<svg width="76" height="76" viewBox="0 0 76 76" fill="none" xmlns="http://www.w3.org/2000/svg">
<path d="M2.83735 47.4037C3.24866 47.6886 3.68261 47.9395 4.13485 48.1537C4.6761 48.4299 5.5811 48.8924 5.64485 49.2174C5.7244 49.6442 5.67344 50.0851 5.4986 50.4824C5.31235 50.8824 5.1161 51.2262 4.9486 51.5237C4.48985 52.3312 3.72485 53.6849 4.87985 54.6299C5.14985 54.8799 5.6161 55.2412 6.04235 55.5674C5.72912 56.1144 5.58717 56.7427 5.63485 57.3712C5.70051 57.8631 5.96592 58.3062 6.3686 58.5962C6.64985 58.7962 6.9511 58.9712 7.2436 59.1399C7.9786 59.5587 8.2661 59.7537 8.3686 60.1399C8.43583 60.6485 8.38886 61.1656 8.2311 61.6537C8.15735 61.9787 8.0861 62.3024 8.03985 62.6349C7.91595 63.775 8.06064 64.9283 8.46235 66.0024C9.02335 67.9929 10.8234 69.3799 12.8911 69.4149C13.2343 69.4136 13.5764 69.3776 13.9123 69.3074C17.4834 68.4611 21.0022 67.4081 24.4511 66.1537C27.2661 67.8062 29.0461 72.8312 29.5099 74.7174C29.6488 75.2745 30.1494 75.6653 30.7236 75.6649L62.0986 75.5774C62.4962 75.5766 62.8698 75.3868 63.1047 75.066C63.3396 74.7452 63.4079 74.3317 63.2886 73.9524C62.9795 73.1055 62.5532 72.3061 62.0224 71.5774C61.7221 71.1463 61.4515 70.6952 61.2124 70.2274C60.6471 69.081 60.1752 67.8909 59.8011 66.6687C59.0881 64.2528 58.5932 61.7779 58.3224 59.2737C57.8836 55.534 58.4506 51.7449 59.9649 48.2974C60.8889 46.3855 62.0279 44.5851 63.3599 42.9312C64.1099 41.9187 64.8886 40.8699 65.5874 39.7687C66.7888 37.9024 67.6598 35.8431 68.1624 33.6812C68.3062 33.0138 67.888 32.3545 67.2229 32.2002C66.5579 32.0459 65.8921 32.4537 65.7274 33.1162C65.2879 35.003 64.5268 36.8001 63.4774 38.4287C62.8286 39.4549 62.0786 40.4649 61.3524 41.4424C59.906 43.2472 58.6716 45.2122 57.6736 47.2987C55.9808 51.1542 55.3482 55.3918 55.8411 59.5737C56.1294 62.2295 56.6569 64.854 57.4174 67.4149C57.828 68.7596 58.3468 70.0689 58.9686 71.3299C59.2536 71.8933 59.5773 72.4363 59.9374 72.9549L60.0211 73.0799L31.6686 73.1649C30.8378 70.1999 29.3313 67.4676 27.2673 65.1824L28.3924 64.7912C29.2324 64.4974 29.8661 64.2762 30.1936 64.1662C35.5461 62.4599 38.2236 60.0224 38.1499 56.9162C38.1464 56.5844 38.0088 56.2681 37.7683 56.0395C37.5279 55.8108 37.2051 55.6892 36.8736 55.7024C36.1837 55.7188 35.6375 56.2912 35.6536 56.9812C35.6836 58.2599 34.6299 60.1324 29.4336 61.7874C29.0936 61.8962 28.4336 62.1249 27.5699 62.4287C26.6411 62.7524 25.4636 63.1649 24.1636 63.6062H24.1548C20.6395 64.8952 17.0527 65.9803 13.4123 66.8562C12.2481 67.0751 11.1163 66.3438 10.8373 65.1924C10.5685 64.4869 10.463 63.7296 10.5286 62.9774C10.5648 62.7274 10.6236 62.4649 10.6811 62.2099C10.9471 61.3374 10.9901 60.4121 10.8061 59.5187C10.4431 58.374 9.60119 57.4432 8.4986 56.9674L8.22985 56.8137C8.36459 56.54 8.52621 56.2804 8.71235 56.0387C8.92178 55.7727 9.01435 55.4331 8.96888 55.0976C8.92341 54.7621 8.74379 54.4593 8.4711 54.2587C8.17235 54.0387 7.4711 53.5087 6.9461 53.0912C7.0061 52.9824 7.0711 52.8624 7.13485 52.7549C7.3311 52.4099 7.5561 52.0049 7.7736 51.5462C8.16974 50.6706 8.28586 49.694 8.1061 48.7499C7.80735 47.2249 6.3461 46.4774 5.27985 45.9324C4.92062 45.7615 4.57612 45.5613 4.24985 45.3337C3.98197 45.1543 3.73094 44.951 3.49985 44.7262C3.49985 44.5362 3.7036 44.0774 4.65485 42.9187C6.89163 40.0367 8.8091 36.9206 10.3736 33.6249C10.6673 33.1083 10.8328 32.5287 10.8561 31.9349C10.7252 30.6772 10.0565 29.5376 9.02235 28.8099C8.5161 28.3449 8.03735 27.9074 7.9836 27.5387C7.99506 27.2324 8.06374 26.9309 8.1861 26.6499C8.38985 26.1149 8.6261 25.5899 8.8611 25.0637C9.38821 23.978 9.8069 22.8429 10.1111 21.6749C10.3975 20.274 10.7733 18.8929 11.2361 17.5399C12.2213 14.8202 13.747 12.328 15.7211 10.2137C18.1111 7.68243 21.8736 5.89243 26.9236 4.88993C30.7864 4.04185 34.706 3.47702 38.6511 3.19993C39.9785 3.13152 41.3091 3.15993 42.6324 3.28493C43.078 3.32646 43.512 3.12706 43.7708 2.76185C44.0297 2.39664 44.074 1.9211 43.8871 1.51435C43.7002 1.10761 43.3105 0.831458 42.8649 0.789926C41.4204 0.657578 39.9684 0.628754 38.5199 0.703676C34.4529 0.98587 30.4121 1.56576 26.4298 2.43868C20.7936 3.56368 16.6973 5.53993 13.9023 8.49493C11.6953 10.8543 9.98925 13.6366 8.88735 16.6737C8.38078 18.1516 7.96952 19.6606 7.6561 21.1912C7.38894 22.1728 7.02985 23.127 6.5836 24.0412C6.3336 24.6099 6.0761 25.1787 5.8511 25.7699C5.56662 26.4308 5.44982 27.1518 5.5111 27.8687C5.76967 28.9844 6.4182 29.9712 7.33985 30.6512C7.95235 31.2124 8.3561 31.6074 8.3611 31.9524C8.3156 32.1422 8.24409 32.3247 8.1486 32.4949C6.65203 35.6469 4.81797 38.6273 2.6786 41.3837C1.7736 42.4874 0.823598 43.7737 1.02235 45.0612C1.28853 46.0539 1.94254 46.898 2.83735 47.4037Z" fill="#202020"/>
<path d="M15.9224 19.2763C16.6752 17.1894 17.8419 15.2761 19.3524 13.6513C21.0187 11.8876 23.8999 10.5888 27.9174 9.79009C28.5947 9.65581 29.0348 8.99795 28.9006 8.32071C28.7663 7.64347 28.1084 7.20331 27.4312 7.33758C22.8949 8.24009 19.5662 9.78509 17.5362 11.9301C15.7919 13.8022 14.4448 16.0082 13.5762 18.4151C13.1554 19.6638 12.8126 20.9375 12.5499 22.2288L14.9912 22.7701C15.2308 21.5878 15.5418 20.4211 15.9224 19.2763Z" fill="#202020"/>
<path d="M42.0738 7.66505L41.3238 11.4051C40.6007 11.6425 39.897 11.935 39.2188 12.2801L36.045 10.1551C35.0534 9.50563 33.742 9.64189 32.905 10.4813L30.83 12.5551C29.9741 13.3954 29.8356 14.7252 30.5 15.7238L32.615 18.8826C32.2699 19.5608 31.9774 20.2645 31.74 20.9876L28.005 21.7376C26.8379 21.9733 25.9991 22.9994 26 24.1901V27.1401C25.9992 28.3287 26.8354 29.3536 28 29.5913L31.74 30.3413C31.9774 31.0643 32.2699 31.768 32.615 32.4463L30.49 35.6201C29.8406 36.6117 29.9768 37.9231 30.8163 38.7601L32.8913 40.8351C33.7331 41.6871 35.0599 41.8248 36.0588 41.1638L39.2175 39.0488C39.8958 39.3939 40.5995 39.6864 41.3225 39.9238L42.0725 43.6588C42.3077 44.8264 43.334 45.6659 44.525 45.6651H47.475C48.6636 45.6659 49.6885 44.8297 49.9263 43.6651L50.6763 39.9251C51.3993 39.6876 52.103 39.3951 52.7813 39.0501L55.955 41.1751C56.9467 41.8245 58.258 41.6882 59.095 40.8488L61.1688 38.7751C62.0247 37.9347 62.1632 36.6049 61.4988 35.6063L59.3838 32.4476C59.7288 31.7693 60.0213 31.0656 60.2588 30.3426L63.9938 29.5926C64.7357 29.4426 65.369 28.9633 65.715 28.2901L67.5988 29.5526C67.9622 29.7815 68.3829 29.9033 68.8125 29.9038C69.4118 29.9039 69.9863 29.665 70.4088 29.2401L72.0713 27.5776C72.8273 26.8177 72.9487 25.6325 72.3625 24.7351L70.75 22.3226C70.9839 21.8524 71.186 21.3672 71.355 20.8701L74.1838 20.3063C75.2421 20.0984 76.0041 19.1686 76 18.0901V15.7401C76.0038 14.6655 75.2472 13.7382 74.1938 13.5263L71.3525 12.9601C71.1848 12.4628 70.9835 11.9775 70.75 11.5076L72.3875 9.0663C72.9549 8.17219 72.825 7.00391 72.075 6.2563L70.4125 4.5938C69.6528 3.8373 68.4673 3.71583 67.57 4.30255L65.1575 5.91505C64.6874 5.68116 64.2021 5.47904 63.705 5.31005L63.14 2.4813C62.9322 1.4234 62.0031 0.661602 60.925 0.665053H58.575C57.5004 0.661261 56.5732 1.41784 56.3613 2.4713L55.795 5.31255C55.2976 5.48143 54.8123 5.68398 54.3425 5.9188L51.9013 4.2813C51.0069 3.71486 49.8393 3.84471 49.0913 4.5938L47.9663 5.7188C47.8046 5.68509 47.6401 5.66709 47.475 5.66505H44.525C43.3364 5.66422 42.3115 6.50043 42.0738 7.66505ZM61.1838 12.5651L60.6 11.9813C62.7666 12.2713 64.4899 13.942 64.847 16.0986C65.2041 18.2552 64.1113 20.3921 62.1538 21.3651L60.2563 20.9901C60.0188 20.267 59.7263 19.5633 59.3813 18.8851L61.5063 15.7113C62.158 14.72 62.0233 13.4071 61.1838 12.5688V12.5651ZM50.7213 6.49505L53.5788 8.41505C53.9795 8.68376 54.4991 8.69787 54.9138 8.4513C55.6293 8.03018 56.3989 7.70847 57.2013 7.49505C57.6597 7.37124 58.0085 6.9983 58.1013 6.53255L58.7725 3.16505H60.7275L61.3988 6.54005C61.4916 7.0058 61.8403 7.37874 62.2988 7.50255C63.1011 7.71597 63.8707 8.03768 64.5863 8.4588C65.0024 8.70313 65.522 8.6861 65.9213 8.41505L68.7788 6.49755L70.1663 7.88505L68.25 10.7438C67.9813 11.1445 67.9672 11.6641 68.2138 12.0788C68.6349 12.7944 68.9566 13.5639 69.17 14.3663C69.2938 14.8248 69.6668 15.1735 70.1325 15.2663L73.5075 15.9376V17.8926L70.1388 18.5638C69.673 18.6566 69.3001 19.0053 69.1763 19.4638C68.9628 20.2662 68.6411 21.0358 68.22 21.7513C67.9734 22.166 67.9875 22.6856 68.2563 23.0863L70.1738 25.9438L68.7863 27.3313L66 25.4676V24.1901C66.0001 23.4582 65.6805 22.7628 65.125 22.2863C67.3257 20.1663 68.0161 16.9212 66.8692 14.0889C65.7222 11.2566 62.9682 9.40637 59.9125 9.41505C59.1567 9.4198 58.4064 9.54297 57.6888 9.78005C57.078 9.69107 56.4558 9.82796 55.9388 10.1651L52.7825 12.2801C52.1042 11.935 51.4005 11.6425 50.6775 11.4051L49.9275 7.67005C49.9054 7.5699 49.8766 7.47135 49.8413 7.37505L50.7213 6.49505ZM43.625 12.6363L44.525 8.16505H47.475L48.3738 12.6401C48.4672 13.1045 48.8152 13.4762 49.2725 13.6001C50.3053 13.8785 51.2974 14.2903 52.2238 14.8251C52.6366 15.0645 53.1497 15.048 53.5463 14.7826L57.3288 12.2526L59.4238 14.3363L56.8863 18.1226C56.6208 18.5191 56.6043 19.0322 56.8438 19.4451C57.3785 20.3714 57.7903 21.3635 58.0688 22.3963C58.1926 22.8536 58.5643 23.2016 59.0288 23.2951L63.5 24.1888V27.1401L59.025 28.0388C58.5605 28.1323 58.1888 28.4803 58.065 28.9376C57.7866 29.9703 57.3748 30.9624 56.84 31.8888C56.6006 32.3016 56.6171 32.8147 56.8825 33.2113L59.4125 36.9938L57.3288 39.0888L53.5425 36.5513C53.1459 36.2858 52.6328 36.2694 52.22 36.5088C51.2936 37.0436 50.3015 37.4554 49.2688 37.7338C48.8115 37.8576 48.4635 38.2293 48.37 38.6938L47.475 43.1651H44.525L43.6263 38.6901C43.5328 38.2256 43.1848 37.8539 42.7275 37.7301C41.6947 37.4516 40.7026 37.0398 39.7763 36.5051C39.3634 36.2656 38.8503 36.2821 38.4538 36.5476L34.6713 39.0776L32.5763 36.9938L35.1138 33.2076C35.3792 32.811 35.3957 32.2979 35.1563 31.8851C34.6215 30.9587 34.2097 29.9666 33.9313 28.9338C33.8074 28.4765 33.4357 28.1285 32.9713 28.0351L28.5 27.1401V24.1901L32.975 23.2913C33.4395 23.1979 33.8112 22.8499 33.935 22.3926C34.2134 21.3598 34.6252 20.3677 35.16 19.4413C35.3994 19.0285 35.383 18.5154 35.1175 18.1188L32.5875 14.3363L34.6713 12.2413L38.4575 14.7788C38.8541 15.0443 39.3672 15.0607 39.78 14.8213C40.7064 14.2865 41.6985 13.8747 42.7313 13.5963C43.1866 13.4709 43.5324 13.0995 43.625 12.6363Z" fill="#202020"/>
<path d="M46 34.4155C50.8325 34.4155 54.75 30.498 54.75 25.6655C54.75 20.833 50.8325 16.9155 46 16.9155C41.1675 16.9155 37.25 20.833 37.25 25.6655C37.2555 30.4957 41.1698 34.41 46 34.4155ZM46 19.4155C49.4518 19.4155 52.25 22.2137 52.25 25.6655C52.25 29.1173 49.4518 31.9155 46 31.9155C42.5482 31.9155 39.75 29.1173 39.75 25.6655C39.7541 22.2155 42.5499 19.4197 46 19.4155Z" fill="#202020"/>
<path d="M45.9999 26.9155C46.6902 26.9155 47.2499 26.3559 47.2499 25.6655C47.2499 24.9752 46.6902 24.4155 45.9999 24.4155C45.3095 24.4155 44.7499 24.9752 44.7499 25.6655C44.7499 26.3559 45.3095 26.9155 45.9999 26.9155Z" fill="#202020"/>
<path d="M12.25 28.1655C12.9404 28.1655 13.5 27.6059 13.5 26.9155C13.5 26.2252 12.9404 25.6655 12.25 25.6655C11.5596 25.6655 11 26.2252 11 26.9155C11 27.6059 11.5596 28.1655 12.25 28.1655Z" fill="#202020"/>
</svg>
