<svg width="75" height="76" viewBox="0 0 75 76" fill="none" xmlns="http://www.w3.org/2000/svg">
<g clip-path="url(#clip0)">
<path d="M1.54899 73.4978C1.59761 73.5481 1.64509 73.5967 1.69485 73.6442C1.91565 73.8558 2.15361 74.0475 2.40759 74.2179C2.44878 74.2454 2.49111 74.2666 2.53229 74.2929C2.7651 74.4359 3.00821 74.5612 3.25933 74.6675C3.31081 74.6887 3.35829 74.7139 3.40977 74.7339C3.68835 74.8454 3.97607 74.9335 4.26952 74.9976C4.33301 75.0113 4.39422 75.0199 4.45943 75.0314C4.74201 75.0834 5.02859 75.1126 5.31632 75.1189H5.39411C5.69442 75.1154 5.99416 75.0874 6.2899 75.0348C6.37627 75.0199 6.46093 74.9976 6.54845 74.9776C6.77612 74.9267 6.99978 74.8609 7.21829 74.7802C7.30581 74.7476 7.39333 74.7173 7.4797 74.6801C7.77601 74.556 8.05973 74.405 8.32801 74.2277L11.6669 72.1032C17.406 68.583 22.3162 63.8638 26.0624 58.2688L26.8581 57.0419C27.1326 56.6289 27.5954 56.3795 28.0919 56.3772H37.0223L32.3352 64.3094L30.8193 66.8749L30.8119 66.8886C29.3023 69.3752 30.0019 72.6077 32.4038 74.2477C33.6325 75.0485 35.1358 75.3111 36.563 74.9736C37.9902 74.6361 39.2166 73.7283 39.9568 72.4618L48.0051 59.0474L56.3698 68.4497C57.3245 69.5154 58.6882 70.1246 60.1188 70.124C60.426 70.124 60.7326 70.096 61.0346 70.0393L69.9982 68.3484C72.8978 68.0418 75.0743 65.5575 74.9965 62.6425C75.0474 61.356 74.52 60.1148 73.5596 59.2573C72.5854 58.3855 71.2721 57.9948 69.9793 58.1928C69.7894 58.2214 69.588 58.2551 69.3747 58.2952L60.2778 60.0112C60.0399 60.0524 59.7973 60.0587 59.5577 60.0295C61.3784 58.3438 61.7874 55.6204 60.541 53.4742L59.4255 51.5476L55.9076 45.4796C54.5868 43.1715 53.8363 40.5814 53.7196 37.9243L53.2883 28.1485C53.175 25.6831 51.9406 23.4041 49.9374 21.9621C54.1606 21.1698 57.2238 17.4854 57.2312 13.1884C57.229 12.5981 57.0848 12.0169 56.8114 11.4941C57.1414 11.1778 57.4229 10.814 57.646 10.4147C58.1591 9.51661 58.2878 8.44922 58.0018 7.45562C56.7496 2.90977 52.4863 -0.138532 47.7803 0.146335C43.0045 0.146335 39.4082 1.96079 37.9084 5.12464C36.6579 8.08771 37.1682 11.501 39.2303 13.9681C39.256 14.4028 39.3161 14.8353 39.4094 15.2603C37.7465 14.3187 35.8028 13.999 33.926 14.3582L22.9369 16.461C21.8231 16.6749 20.7929 17.1994 19.9652 17.9745C16.7121 21.0257 16.5405 26.1344 19.582 29.3972L26.3873 36.6722L26.3009 36.8798C25.3256 39.1891 24.1438 41.4051 22.771 43.5027L15.8495 54.0182C13.8017 57.1414 11.1132 59.7939 7.96192 61.7994L5.30774 63.4788L2.41846 65.3104L2.38986 65.3293C1.05819 66.2028 0.191009 67.6294 0.0279825 69.2139C-0.135044 70.7978 0.423249 72.3715 1.54899 73.4978V73.4978ZM6.95974 72.1398C5.65381 73.0207 3.88112 72.6763 3.0002 71.3704C2.11929 70.0645 2.46365 68.2924 3.76957 67.4109L5.64409 66.2291L8.91548 70.9002L6.95974 72.1398ZM35.9892 72.5471C35.2233 72.7301 34.4162 72.5877 33.7601 72.1535C33.6068 72.054 33.4643 71.9384 33.3362 71.8086C32.4221 70.7995 32.274 69.3123 32.9713 68.1436L33.5724 67.1249L33.8888 66.5912L39.0221 69.1578L37.8008 71.1937C37.4101 71.8755 36.754 72.3652 35.9892 72.5459V72.5471ZM34.4894 33.3098C35.5436 34.4333 35.5099 36.1923 34.4133 37.2745H34.4047C34.387 37.2922 34.3596 37.322 34.3344 37.3506C34.2549 37.4187 34.1714 37.4816 34.085 37.5394C34.0135 37.592 33.9471 37.6509 33.8722 37.6955C33.7973 37.7407 33.7475 37.7533 33.6909 37.783C33.5822 37.8425 33.4695 37.8946 33.3539 37.9392L33.3173 37.9484C33.1503 38.0056 32.9775 38.0473 32.8025 38.0731C32.6115 38.0982 32.4181 38.1057 32.2253 38.0942H32.2168C31.4932 38.0513 30.8142 37.7333 30.3171 37.2059L29.4247 36.2512L33.4638 32.2138L34.4894 33.3098ZM54.8705 56.1283L57.9434 53.9793L58.3719 54.7189C58.7637 55.4013 58.8569 56.2147 58.6304 56.9681C58.4268 57.6608 57.9657 58.2494 57.3422 58.6138L54.8705 56.1283ZM60.7435 62.4675L69.8334 60.752C70.0131 60.7182 70.1829 60.6885 70.3443 60.6645C70.9008 60.581 71.4654 60.7474 71.8876 61.1192C72.2971 61.479 72.5214 62.0047 72.4973 62.5487C72.5551 63.3867 72.2737 64.2127 71.7165 64.8414C71.1594 65.47 70.3734 65.8481 69.5348 65.8916L60.5701 67.5825C59.7075 67.7444 58.8232 67.4435 58.238 66.7891L34.5472 40.1609C34.7623 40.0683 34.971 39.9619 35.1718 39.8412L56.2691 61.0843C57.4372 62.257 59.1109 62.7752 60.7372 62.4675H60.7435ZM48.2974 19.6202C45.4482 19.6603 42.8975 17.8607 41.9794 15.163H44.8939C46.2896 15.1567 47.4365 14.0585 47.5029 12.6639H54.191C54.3237 12.6639 54.4564 12.6564 54.5879 12.6427C54.6789 12.8103 54.7269 12.9979 54.7281 13.1884C54.7224 16.7401 51.8434 19.6174 48.2911 19.6202H48.2974ZM40.1753 6.19203C41.2387 3.93884 44.0067 2.6455 47.7803 2.6455C51.8251 2.6455 54.4644 4.52001 55.6204 8.19868C55.6948 8.55162 55.6313 8.92 55.4431 9.22717C55.232 9.64189 54.8762 9.96394 54.4432 10.1333C54.3614 10.1538 54.2773 10.1647 54.1932 10.1647H47.5052C46.8473 10.1115 46.1981 10.3415 45.7205 10.7974C45.2434 11.2533 44.9831 11.8916 45.006 12.5512C45.0049 12.613 44.9551 12.6622 44.8939 12.6639H41.3662C39.7617 10.9129 39.299 8.39946 40.1741 6.19203H40.1753ZM21.4136 27.6852C19.3131 25.4297 19.4321 21.9003 21.6801 19.7913C22.1629 19.3417 22.7641 19.0385 23.4134 18.9166L34.4019 16.8139C35.8022 16.5433 37.2523 16.8202 38.4546 17.5873L43.203 20.6035L43.358 20.7025L48.2116 23.7903C49.7481 24.7718 50.7096 26.441 50.788 28.2623L51.2193 38.037C51.3532 41.0945 52.2175 44.0759 53.7396 46.7317L56.685 51.8124L53.0824 54.3293L46.9394 48.1446C47.329 47.7419 47.4022 47.1287 47.1191 46.6454L46.7032 45.9303L46.3897 44.8572C45.9252 43.275 45.6575 41.6425 45.5912 39.9951L45.455 37.1206C45.4287 36.5721 45.0478 36.1047 44.5158 35.9692C43.9832 35.833 43.4249 36.0607 43.1395 36.5297L40.1976 41.3582L36.9314 38.0708C38.2276 36.0252 37.9701 33.3607 36.3067 31.6012L32.7991 27.8528L34.3819 24.1037C34.5517 23.6913 34.4888 23.22 34.2171 22.8664C33.9454 22.5129 33.5061 22.331 33.0639 22.3894L27.6606 23.1393C27.6011 23.1513 27.5428 23.1679 27.4856 23.1879C27.4478 23.1994 27.4095 23.2051 27.3717 23.2205C27.2379 23.2737 27.1143 23.3504 27.0068 23.4465C26.9994 23.4539 26.9885 23.4551 26.9805 23.4625C26.973 23.4705 26.9582 23.4991 26.9433 23.5151C26.8581 23.6032 26.7866 23.7033 26.7311 23.8126C26.7156 23.844 26.6973 23.8715 26.6836 23.9041C26.6699 23.9361 26.6619 23.939 26.6544 23.959C26.615 24.0763 26.5921 24.1987 26.5869 24.3222V24.3697C26.5881 24.4996 26.6087 24.6288 26.6481 24.7524C26.6584 24.785 26.6699 24.8148 26.6819 24.8474C26.7362 24.9881 26.8152 25.1173 26.9158 25.2295L30.4149 28.9785C30.4149 28.9785 30.4269 28.9859 30.4332 28.9911L31.7603 30.3868L27.7167 34.4293L21.4136 27.6852ZM9.29987 63.905C12.7492 61.7101 15.6922 58.8071 17.9334 55.3887L24.8577 44.8698C26.1493 42.8889 27.2808 40.809 28.2429 38.6491L28.4929 38.9139C29.2972 39.7697 30.3634 40.3343 31.5229 40.5196L46.2685 57.0905L40.3189 67.0088L35.1707 64.4347L40.2937 55.7714C40.5225 55.3847 40.5259 54.9054 40.304 54.5158C40.0815 54.1263 39.6668 53.8854 39.2183 53.8854H28.0965C26.7614 53.8894 25.5161 54.5599 24.7776 55.6724L23.9757 56.908C20.5773 61.9744 16.1618 66.2771 11.0096 69.5428L7.74912 64.8883L9.29987 63.905Z" fill="#202020"/>
<path d="M18.7646 2.64613H32.5102C33.2007 2.64613 33.7601 2.0867 33.7601 1.39684C33.7601 0.706409 33.2007 0.146973 32.5102 0.146973H18.7646C18.0747 0.146973 17.5153 0.706409 17.5153 1.39684C17.5153 2.0867 18.0747 2.64613 18.7646 2.64613Z" fill="#202020"/>
<path d="M32.5102 5.14453H26.262C25.5721 5.14453 25.0127 5.70397 25.0127 6.3944C25.0127 7.08425 25.5721 7.64369 26.262 7.64369H32.5102C33.2006 7.64369 33.76 7.08425 33.76 6.3944C33.76 5.70397 33.2006 5.14453 32.5102 5.14453Z" fill="#202020"/>
<path d="M11.2671 37.6344H20.0144C20.7043 37.6344 21.2637 37.075 21.2637 36.3851C21.2637 35.6947 20.7043 35.1353 20.0144 35.1353H11.2671C10.5766 35.1353 10.0172 35.6947 10.0172 36.3851C10.0172 37.075 10.5766 37.6344 11.2671 37.6344Z" fill="#202020"/>
<path d="M20.0144 40.1333H16.2654C15.5755 40.1333 15.0161 40.6927 15.0161 41.3832C15.0161 42.073 15.5755 42.6325 16.2654 42.6325H20.0144C20.7043 42.6325 21.2637 42.073 21.2637 41.3832C21.2637 40.6927 20.7043 40.1333 20.0144 40.1333V40.1333Z" fill="#202020"/>
</g>
<defs>
<clipPath id="clip0">
<rect width="75" height="75" fill="white" transform="translate(0 0.104004)"/>
</clipPath>
</defs>
</svg>
