<svg width="76" height="76" viewBox="0 0 76 76" fill="none" xmlns="http://www.w3.org/2000/svg">
<g clip-path="url(#clip0)">
<path d="M42.7935 21.5551C41.5418 20.3037 39.3462 21.1833 38.6243 21.4723C37.1048 22.0808 35.1954 23.1806 32.9489 24.7412C28.4097 27.8943 22.889 32.6517 17.4036 38.1371C12.3405 43.2002 7.82627 48.3777 4.69267 52.7158C4.3373 53.2076 4.44804 53.8944 4.93994 54.2496C5.43183 54.6049 6.11855 54.4944 6.47378 54.0024C9.54101 49.7562 13.9744 44.6735 18.9572 39.6909C24.1366 34.5115 29.3795 29.9633 33.7203 26.8843C39.2634 22.9524 40.9719 23.068 41.2294 23.1195C41.2815 23.3779 41.3964 25.0859 37.4647 30.6286C34.3858 34.9694 29.8376 40.2123 24.6581 45.3917C19.4785 50.571 14.2354 55.1193 9.89477 58.1981C4.34873 62.1321 2.64204 62.0158 2.38525 61.9626C2.3457 61.7769 2.26909 60.8381 3.74668 58.1955C4.04272 57.666 3.85346 56.9967 3.32392 56.7005C2.79424 56.404 2.12509 56.5937 1.8289 57.1232C0.0158665 60.3661 -0.304202 62.4009 0.821677 63.5269L12.1824 74.8878C12.6724 75.3778 13.307 75.541 13.9414 75.541C14.9274 75.541 15.9125 75.1465 16.3515 74.9707C17.871 74.3622 19.7806 73.2624 22.027 71.7018C26.5663 68.5487 32.087 63.7913 37.5724 58.3059C38.0015 57.8767 38.0015 57.1814 37.5724 56.7522C37.1434 56.3233 36.4478 56.3233 36.0188 56.7522C30.8394 61.9316 25.5963 66.4798 21.2557 69.5587C15.4433 73.6815 13.8474 73.3544 13.7187 73.3168L4.27578 63.8737C4.57373 63.7765 4.8226 63.6771 4.99091 63.6097C6.5104 63.0014 8.41982 61.9014 10.6665 60.3409C15.2056 57.1878 20.7264 52.4303 26.2118 46.9449C31.6972 41.4594 36.4547 35.9387 39.6078 31.3994C41.1683 29.1531 42.2681 27.2435 42.8766 25.7239C42.944 25.5557 43.0435 25.3067 43.1404 25.0089L52.5835 34.452C52.6188 34.5696 52.8989 35.9082 49.7728 40.6111C47.4226 44.1469 43.7971 48.5795 39.5639 53.0929C39.1489 53.5354 39.171 54.2306 39.6137 54.6457C40.0555 55.0601 40.7507 55.039 41.1665 54.5959C45.6847 49.7788 49.5009 45.0765 51.9123 41.3555C54.778 36.9336 55.4904 34.2516 54.1543 32.9154L42.7935 21.5551Z" fill="black"/>
<path d="M34.2952 55.029C34.7103 54.5863 34.7243 53.9044 34.2952 53.4752L29.9424 49.1225C29.5134 48.6936 28.8179 48.6936 28.3888 49.1225C27.9598 49.5517 27.9598 50.247 28.3888 50.6762L32.7416 55.029C33.1701 55.4575 33.911 55.4387 34.2952 55.029Z" fill="black"/>
<path d="M39.9954 47.7755L35.6426 43.4228C35.2136 42.9938 34.5181 42.9938 34.089 43.4228C33.6599 43.852 33.6599 44.5473 34.089 44.9765L38.4416 49.3293C38.8708 49.7582 39.5662 49.7582 39.9954 49.3293C40.4243 48.9001 40.4243 48.2046 39.9954 47.7755V47.7755Z" fill="black"/>
<path d="M39.0634 36.997C38.6344 37.4262 38.6344 38.1215 39.0634 38.5507L43.4162 42.9035C43.8454 43.3324 44.5408 43.3324 44.97 42.9035C45.399 42.4743 45.399 41.779 44.97 41.3498L40.6172 36.997C40.188 36.5681 39.4925 36.5681 39.0634 36.997V36.997Z" fill="black"/>
<path d="M49.5298 36.0637C49.9589 35.6345 49.9589 34.9391 49.5298 34.5099L45.1771 30.1571C44.7479 29.7282 44.0525 29.7282 43.6233 30.1571C43.1943 30.5863 43.1943 31.2817 43.6233 31.7109L47.9761 36.0637C48.3591 36.4171 49.1428 36.4618 49.5298 36.0637Z" fill="black"/>
<path d="M27.0416 60.7292C27.4707 61.1581 28.1662 61.1581 28.5953 60.7292C29.0243 60.3 29.0243 59.6046 28.5953 59.1754L24.2425 54.8227C23.8134 54.3938 23.1179 54.3938 22.6889 54.8227C22.2598 55.2519 22.2598 55.9472 22.6889 56.3764L27.0416 60.7292Z" fill="black"/>
<path d="M17.8171 59.7973C17.388 59.3684 16.6925 59.3684 16.2634 59.7973C15.8344 60.2265 15.8344 60.9218 16.2634 61.351L20.6162 65.7038C21.0453 66.1327 21.7408 66.1327 22.1698 65.7038C22.5989 65.2746 22.5989 64.5792 22.1698 64.15L17.8171 59.7973Z" fill="black"/>
<path d="M9.42335 64.3573C8.9943 64.7865 8.9943 65.4819 9.42335 65.9111L13.7761 70.2639C14.2052 70.6928 14.9007 70.6928 15.3297 70.2639C15.7588 69.8347 15.7588 69.1393 15.3297 68.7101L10.977 64.3573C10.5481 63.9284 9.8524 63.9284 9.42335 64.3573V64.3573Z" fill="black"/>
<path d="M41.9893 16.2524C42.2704 16.2524 42.5517 16.1452 42.7661 15.9307L53.2871 5.40962C53.7161 4.98042 53.7161 4.28506 53.2871 3.85586C52.8579 3.42695 52.1625 3.42695 51.7333 3.85586L41.2124 14.377C40.7833 14.8062 40.7833 15.5015 41.2124 15.9307C41.427 16.1452 41.7082 16.2524 41.9893 16.2524Z" fill="black"/>
<path d="M51.0114 15.4147C51.226 15.6292 51.5073 15.7364 51.7882 15.7364C52.0693 15.7364 52.3506 15.6292 52.565 15.4147L64.1175 3.86226C64.5466 3.43306 64.5466 2.7377 64.1175 2.3085C63.6883 1.87959 62.993 1.87959 62.5638 2.3085L51.0114 13.861C50.5824 14.29 50.5824 14.9855 51.0114 15.4147Z" fill="black"/>
<path d="M70.2999 22.4223L59.7788 32.9432C59.3498 33.3724 59.3498 34.0678 59.7788 34.497C59.9934 34.7114 60.2745 34.8187 60.5558 34.8187C60.8369 34.8187 61.1181 34.7114 61.3326 34.497L71.8537 23.976C72.2827 23.5468 72.2827 22.8515 71.8537 22.4223C71.4248 21.9935 70.7293 21.9932 70.2999 22.4223V22.4223Z" fill="black"/>
<path d="M71.8473 11.5917L60.2948 23.1442C59.8657 23.5734 59.8657 24.2687 60.2948 24.6979C60.5094 24.9124 60.7906 25.0196 61.0716 25.0196C61.3527 25.0196 61.6339 24.9124 61.8484 24.6979L73.4009 13.1455C73.8299 12.7163 73.8299 12.0209 73.4009 11.5917C72.9718 11.1628 72.2763 11.1628 71.8473 11.5917Z" fill="black"/>
<path d="M74.845 0.864648C74.4158 0.435742 73.7205 0.435742 73.2913 0.864648L60.7072 13.4485C60.2782 13.8777 60.2782 14.5731 60.7072 15.0023C60.9218 15.2167 61.2031 15.324 61.4842 15.324C61.7653 15.324 62.0465 15.2167 62.261 15.0023L74.845 2.41826C75.2739 1.98921 75.2739 1.2937 74.845 0.864648V0.864648Z" fill="black"/>
</g>
<defs>
<clipPath id="clip0">
<rect width="75" height="75" fill="white" transform="translate(0.166687 0.541992)"/>
</clipPath>
</defs>
</svg>
