<svg width="75" height="75" viewBox="0 0 75 75" fill="none" xmlns="http://www.w3.org/2000/svg">
<g clip-path="url(#clip0)">
<path d="M35.1701 39.9182L37.4831 38.8408L39.7956 39.9182C40.207 40.11 40.69 40.0635 41.0572 39.7968C41.4245 39.53 41.6181 39.0848 41.5629 38.6344L41.2531 36.1018L42.9913 34.2287C43.3005 33.8969 43.4051 33.4232 43.2651 32.992C43.1244 32.5602 42.7612 32.2388 42.3155 32.1522L39.8182 31.6652L38.5821 29.4336C38.3427 29.0622 37.9312 28.8379 37.4895 28.8379C37.0473 28.8379 36.6358 29.0622 36.3964 29.4336L35.1603 31.6652L32.6566 32.1522C32.2115 32.2388 31.8482 32.5602 31.7076 32.992C31.567 33.4232 31.6722 33.8969 31.9813 34.2287L33.7196 36.1018L33.4098 38.6344C33.3546 39.0848 33.5481 39.53 33.9154 39.7968C34.2821 40.0635 34.7651 40.11 35.1765 39.9182H35.1701ZM36.2017 34.0119C36.5649 33.9404 36.8782 33.7115 37.056 33.3872L37.4831 32.6218L37.9103 33.3924C38.0881 33.7167 38.4014 33.9451 38.764 34.0166L39.6299 34.1851L39.0279 34.8308C38.778 35.0998 38.6594 35.4654 38.703 35.8298L38.8105 36.7038L38.0114 36.3296C37.6767 36.1732 37.2896 36.1732 36.9549 36.3296L36.1569 36.7038L36.2633 35.8298C36.3069 35.4654 36.1883 35.0998 35.9384 34.8308L35.3363 34.1851L36.2017 34.0119Z" fill="#202020"/>
<path d="M60.549 64.1773H51.1821C50.1669 64.1187 49.186 63.7299 48.3496 63.0544C47.6902 62.0406 46.6646 61.4428 45.5753 61.439H45.2805C45.1001 58.7772 43.6086 56.4831 41.4632 55.5686L47.8553 44.3294C47.8902 44.3294 47.9267 44.3377 47.9632 44.3377C48.4215 44.3402 48.8765 44.2472 49.307 44.0643C51.2824 43.0409 52.4998 40.6818 52.3526 38.1608C52.3526 36.8111 53.012 36.2988 54.3852 35.3582C55.9988 34.2532 58.2074 32.7416 58.2074 28.5759C58.2052 27.8928 58.1262 27.2122 57.9731 26.5526L71.7898 2.26693C72.6993 0.759192 72.3914 -1.32526 71.1027 -2.38884C69.8134 -3.45241 68.0309 -3.09236 67.1214 -1.58462C62.2938 5.90947 57.5409 13.5552 52.6164 21.7446C52.527 21.7446 52.4453 21.7299 52.3526 21.7299C50.2345 21.6929 48.2052 22.7234 46.7829 24.5587C46.6526 24.442 46.5251 24.3235 46.3873 24.219C45.7693 19.367 42.4643 15.59 38.3021 14.9795V13.3838C40.2497 13.1264 41.7433 11.2414 41.8147 8.95044V4.15766C41.8147 3.83075 41.7145 3.51467 41.5325 3.26614C39.0754 0.498556 35.1867 0.498556 32.7296 3.26614C32.5476 3.51467 32.4473 3.83075 32.4473 4.15766V8.95044C32.5182 11.2414 34.0124 13.1264 35.96 13.3838V14.9795C31.8 15.5925 28.4977 19.3695 27.8808 24.219C27.7424 24.3235 27.6149 24.442 27.4852 24.5587C26.0613 22.7215 24.0292 21.6904 21.9094 21.7299C21.8168 21.7299 21.7345 21.742 21.6457 21.7446C16.7211 13.5552 11.9682 5.90947 7.14067 -1.58653C6.21482 -3.03628 4.4705 -3.35937 3.2068 -2.31555C1.94364 -1.27109 1.62159 0.759829 2.48149 2.26438L16.2983 26.5526C16.1419 27.2115 16.0601 27.8921 16.0547 28.5759C16.0547 32.7416 18.2627 34.2532 19.8763 35.3582C21.2501 36.2988 21.9094 36.8111 21.9094 38.1608C21.7645 40.6792 22.9802 43.0352 24.9534 44.0586C25.3845 44.2421 25.8395 44.3345 26.2978 44.3326C26.3343 44.3326 26.3702 44.3256 26.4057 44.3243L32.7988 55.5686C30.6534 56.4831 29.1614 58.7772 28.9816 61.439H28.6862C27.5969 61.4428 26.5719 62.0406 25.9125 63.0544C25.076 63.7299 24.0952 64.1187 23.0799 64.1773H13.7126C3.01171 64.1773 2.00359 65.6289 2.00359 72.3934C2.00359 78.288 3.38444 79.2394 6.68728 79.2394H23.0799C28.0132 79.2394 29.6371 76.475 29.9379 75.8396L33.4506 69.6545H40.8017L44.3143 75.8396C44.6249 76.475 46.2488 79.2394 51.1821 79.2394H67.5748C70.8776 79.2394 72.2585 78.281 72.2585 72.3934C72.2585 65.6289 71.2498 64.1773 60.549 64.1773ZM33.4615 43.7234C33.1465 43.4863 32.849 43.2187 32.5727 42.9236L32.5645 42.9154L32.5482 42.8962C32.2588 42.5782 31.9929 42.2456 31.7286 41.913C31.6419 41.8021 31.5564 41.6995 31.4686 41.5829C31.3199 41.3859 31.1689 41.1725 31.0163 40.9488C30.9886 40.9093 30.9613 40.8685 30.9346 40.8284C30.7755 40.5913 30.6147 40.344 30.4545 40.0821C29.399 38.3609 28.6159 36.4326 28.1418 34.3889C28.108 34.2423 28.0694 34.0983 28.0377 33.9492C27.9816 33.6752 27.9358 33.4018 27.8901 33.1278C27.8388 32.8264 27.7931 32.5237 27.7544 32.2159C27.7271 32.005 27.6993 31.7927 27.6781 31.5793C27.6258 31.0312 27.5833 30.4838 27.5669 29.9205C27.5489 29.0124 27.8089 28.1266 28.2999 27.4231C28.2999 27.4135 28.308 27.4014 28.314 27.3919C28.3794 27.2976 28.4312 27.1943 28.5097 27.1058C28.7881 26.7769 29.1124 26.5055 29.4687 26.3035L29.4905 26.2939C29.9799 25.9995 30.5215 25.8434 31.0714 25.8376H43.1907C43.7411 25.844 44.2827 26.0008 44.7721 26.2964H44.7873C45.1459 26.5004 45.4723 26.7737 45.7535 27.1045C46.3818 27.8533 46.7208 28.8709 46.6902 29.9192C46.6308 33.5439 45.6429 37.0641 43.8544 40.0248C43.8392 40.0452 43.8168 40.0547 43.8026 40.077C43.6413 40.3396 43.4795 40.5875 43.3182 40.8284L43.2348 40.9488C43.079 41.1782 42.9226 41.3987 42.7667 41.6103C42.4152 42.0761 42.0556 42.5171 41.6954 42.9109C41.4164 43.2104 41.1161 43.4806 40.7973 43.7189C40.7254 43.7737 40.6567 43.8324 40.5837 43.8846C40.2955 44.086 39.9947 44.2612 39.6835 44.4091C39.5756 44.4613 39.4655 44.5078 39.3555 44.5461C37.913 45.1394 36.3403 45.1394 34.8979 44.5461C34.7905 44.5008 34.6827 44.4569 34.5758 44.4091C34.2641 44.2606 33.9623 44.0847 33.6734 43.8821C33.6031 43.8355 33.5328 43.775 33.4615 43.7234ZM37.131 47.7559C37.5228 47.7515 37.9136 47.7183 38.3021 47.6559V55.1264H35.96V47.6559C36.348 47.7183 36.7392 47.7515 37.131 47.7559ZM45.5312 43.4768L40.6437 52.0701V46.9243C40.6589 46.9179 40.672 46.9052 40.6873 46.8969C41.1532 46.6681 41.6017 46.3935 42.0278 46.0755C42.0501 46.0576 42.0698 46.0385 42.0921 46.022C42.5204 45.6976 42.9242 45.3312 43.2991 44.9265L43.3133 44.9106C43.625 44.5677 43.9574 44.1625 44.3203 43.696C44.468 43.508 44.613 43.3194 44.7536 43.1263C44.7955 43.067 44.8391 43.0109 44.8811 42.951C44.9432 43.0084 45.0064 43.0524 45.0685 43.1059C45.1857 43.2085 45.3028 43.3066 45.42 43.3971C45.4571 43.4124 45.4925 43.4494 45.5312 43.4768ZM68.9927 0.0620374C69.0826 -0.0794326 69.221 -0.168011 69.372 -0.178844C69.5186 -0.193501 69.663 -0.13105 69.7665 -0.00869746C69.9393 0.193312 69.9654 0.509389 69.8297 0.747084L56.7235 23.7933C56.2702 23.1962 55.716 22.7151 55.0953 22.3818C59.8057 14.5659 64.3619 7.24833 68.9927 0.0620374ZM52.3526 24.4682C52.5881 24.4688 52.8229 24.4892 53.0551 24.5287C53.3444 24.5714 53.6283 24.6523 53.9019 24.7709C53.9231 24.7804 53.9406 24.7932 53.9602 24.8027C54.1951 24.9098 54.4158 25.0532 54.6174 25.2297C54.6326 25.2418 54.6441 25.2571 54.6583 25.2705C55.0844 25.6777 55.4059 26.2142 55.5879 26.8209C55.6026 26.8579 55.619 26.8942 55.6369 26.9292C55.7884 27.4601 55.8658 28.0164 55.8653 28.5759C55.8653 31.1708 54.6948 31.9763 53.2027 32.9946C51.7815 33.9683 50.0111 35.1817 50.0111 38.1608C50.1282 39.5239 49.5337 40.8354 48.5038 41.4873C48.2068 41.6077 47.8864 41.6281 47.5801 41.5446C47.5687 41.5446 47.5578 41.5325 47.5463 41.5293C47.2058 41.4312 46.8848 41.2579 46.6003 41.0189L46.5731 40.9966C46.469 40.9106 46.366 40.8054 46.2619 40.7028C47.9894 37.4981 48.9474 33.809 49.0356 30.0218C49.0645 28.8467 48.8188 27.6837 48.325 26.659C49.3059 25.2399 50.7925 24.4312 52.3526 24.4682ZM34.7889 8.95044V4.76878C35.4733 4.20482 36.294 3.91104 37.131 3.92889C37.9681 3.90658 38.7893 4.19972 39.4726 4.7656V8.95044C39.4726 9.85788 38.7489 10.7755 37.131 10.7755C35.5126 10.7755 34.7889 9.85788 34.7889 8.95044ZM30.4861 23.1344C31.4746 19.8334 34.1394 17.6228 37.131 17.6228C40.1222 17.6228 42.7869 19.8334 43.7759 23.1344C43.5814 23.1115 43.3858 23.0994 43.1907 23.0994H31.0714C30.8758 23.0994 30.6807 23.1115 30.4861 23.1344ZM4.43126 0.745809C4.29612 0.508751 4.32336 0.193312 4.49556 -0.00742298C4.59038 -0.118305 4.71953 -0.180118 4.85358 -0.178844H4.89009C5.04049 -0.168011 5.17945 -0.0800698 5.26937 0.0607629C9.9002 7.24706 14.4564 14.5646 19.1668 22.3799C18.5461 22.7138 17.9914 23.1943 17.538 23.792L4.43126 0.745809ZM24.251 38.1608C24.251 35.1817 22.4805 33.9683 21.0593 32.9946C19.5673 31.9763 18.3962 31.1778 18.3962 28.5759C18.3984 28.017 18.4774 27.4626 18.6306 26.9331C18.6491 26.898 18.6654 26.8623 18.6796 26.8247C18.8622 26.2181 19.1837 25.6815 19.6093 25.2749C19.6234 25.2609 19.6354 25.2463 19.6507 25.2335C19.8518 25.0576 20.073 24.9136 20.3073 24.8066C20.3275 24.797 20.3449 24.7849 20.3656 24.7753C20.6392 24.6568 20.9231 24.5752 21.2125 24.5325C21.443 24.4924 21.6757 24.4707 21.9094 24.4682C22.1726 24.4694 22.4353 24.4911 22.6958 24.5325C22.7759 24.5453 22.8494 24.5657 22.9301 24.5803C23.0914 24.6128 23.2516 24.6542 23.4091 24.7052C23.4886 24.7314 23.5671 24.76 23.6434 24.79C23.784 24.8461 23.9197 24.9079 24.0494 24.9748C24.1186 25.0092 24.1878 25.0436 24.2532 25.0818C24.3938 25.164 24.5262 25.2526 24.6537 25.3463C24.6973 25.3775 24.7442 25.4062 24.785 25.4381C24.9474 25.5649 25.1038 25.7019 25.2531 25.8485L25.3518 25.9555C25.4618 26.0689 25.567 26.1843 25.6667 26.3035C25.7136 26.3595 25.7577 26.4169 25.8024 26.473C25.8471 26.529 25.8913 26.5909 25.9348 26.6495C25.8962 26.7304 25.8678 26.8164 25.8319 26.8999C25.7125 27.1752 25.6106 27.4601 25.5261 27.7519C25.4531 27.9985 25.3932 28.2509 25.348 28.5064C25.3272 28.6269 25.3082 28.746 25.294 28.8678C25.2422 29.2476 25.2204 29.6325 25.2286 30.0167C25.2477 30.6699 25.2967 31.3103 25.361 31.9444C25.3763 32.0942 25.3926 32.2401 25.4101 32.3879C25.4842 33.0169 25.573 33.6382 25.6913 34.2462C25.8084 34.8586 25.9594 35.4582 26.1234 36.0483C26.1643 36.1974 26.2089 36.344 26.252 36.4918C26.3926 36.9628 26.5484 37.4261 26.7206 37.8817C26.7675 38.0079 26.8084 38.1366 26.8563 38.2609C27.046 38.7445 27.2569 39.2193 27.4792 39.6838C27.6045 39.9483 27.7391 40.2083 27.8748 40.467C27.9173 40.5467 27.9544 40.6302 27.998 40.7092C27.9451 40.7627 27.8922 40.8118 27.8388 40.8602C27.7506 40.9405 27.6628 41.0144 27.5751 41.082C27.477 41.1565 27.3751 41.226 27.2705 41.2884C27.2089 41.3241 27.1539 41.3515 27.0879 41.3815C26.974 41.4376 26.8569 41.4834 26.737 41.5185C26.6068 41.5574 26.4732 41.5797 26.3386 41.5854C26.3027 41.5854 26.2662 41.5854 26.2297 41.5854C26.0705 41.5803 25.9125 41.5472 25.7616 41.4873C24.7305 40.836 24.1349 39.5245 24.251 38.1608ZM28.8442 43.3837C28.9614 43.2958 29.0786 43.1989 29.1865 43.0989C29.2508 43.0428 29.3172 42.9988 29.3805 42.9383C29.423 42.9976 29.4649 43.0536 29.5085 43.1123C29.6393 43.2952 29.7739 43.4729 29.9112 43.6463C30.2774 44.1204 30.6218 44.5391 30.9499 44.8978L30.9624 44.9144L30.9706 44.9214C31.3455 45.3261 31.7487 45.6925 32.1771 46.0169L32.2321 46.0602C32.6588 46.3814 33.1078 46.6598 33.5748 46.8918C33.5901 46.8918 33.6031 46.9109 33.6184 46.9179V52.065L28.7309 43.471C28.7696 43.4494 28.8056 43.4124 28.8442 43.3837ZM34.7355 57.8787H39.5266C41.2649 57.9118 42.722 59.424 42.9564 61.439H31.3057C31.54 59.424 32.9972 57.9118 34.7355 57.8787ZM45.5753 64.1773C46.0107 64.1824 46.4069 64.4704 46.6025 64.9248C46.627 64.9789 46.6488 65.035 46.6679 65.0924C46.808 65.5091 46.76 65.9801 46.5398 66.3465C46.3202 66.7135 45.9584 66.927 45.5753 66.9162H28.6862C28.3037 66.927 27.9413 66.7135 27.7217 66.3465C27.5021 65.9801 27.4541 65.5091 27.5942 65.0924C27.6127 65.035 27.635 64.9789 27.6596 64.9248C27.8552 64.4704 28.2514 64.1824 28.6862 64.1773H45.5753ZM27.9021 74.4867C27.8606 74.569 26.8727 76.5011 23.0799 76.5011H6.68728C4.61272 76.5011 4.34571 76.5011 4.34571 72.3934C4.34571 67.5401 4.34571 66.9162 13.7126 66.9162H23.0799C23.8243 66.9117 24.5622 66.7594 25.2624 66.4657C25.3076 66.6938 25.3698 66.9175 25.4477 67.1335C25.4608 67.1705 25.4804 67.2036 25.4956 67.2405C25.5681 67.4305 25.6531 67.6133 25.7496 67.7879C25.791 67.8619 25.84 67.925 25.8842 67.9976C25.9648 68.1263 26.0515 68.2493 26.1441 68.3659C26.2019 68.4373 26.2613 68.503 26.3234 68.566C26.4187 68.6686 26.5185 68.7655 26.6231 68.8547C26.6912 68.914 26.7604 68.9688 26.8318 69.0204C26.9452 69.1026 27.0623 69.1765 27.1827 69.2422C27.2569 69.2836 27.3282 69.3256 27.404 69.3601C27.5408 69.4212 27.6803 69.4722 27.8225 69.5124C27.8901 69.5327 27.9571 69.5602 28.0274 69.5767C28.2454 69.6271 28.4671 69.6532 28.69 69.6545H30.6491L27.9021 74.4867ZM67.5748 76.5011H51.1821C47.3894 76.5011 46.4009 74.569 46.3813 74.5192C46.3611 74.4702 46.3344 74.4198 46.3088 74.3733L43.619 69.6545H45.5753C45.7982 69.6532 46.02 69.6271 46.2385 69.5767C46.3088 69.5602 46.3753 69.5327 46.4434 69.5124C46.5851 69.4722 46.7251 69.4212 46.8614 69.3601C46.9371 69.3256 47.0085 69.2836 47.0826 69.2422C47.203 69.1759 47.3202 69.102 47.4335 69.0204C47.5055 68.9688 47.5741 68.914 47.6422 68.8547C47.7469 68.7655 47.8471 68.6686 47.942 68.566C48.003 68.5004 48.0591 68.4373 48.1212 68.3659C48.2139 68.2493 48.3011 68.1263 48.3812 67.9976C48.4253 67.9281 48.4749 67.8606 48.5158 67.7879C48.6122 67.6133 48.6967 67.4305 48.7686 67.2405C48.7839 67.2036 48.8035 67.1692 48.8177 67.1309C48.8956 66.9149 48.9577 66.6912 49.0029 66.4625C49.7021 66.7569 50.4388 66.9105 51.1821 66.9162H60.549C69.9164 66.9162 69.9164 67.5401 69.9164 72.3934C69.9164 76.5011 69.6493 76.5011 67.5748 76.5011Z" fill="#202020"/>
</g>
<defs>
<clipPath id="clip0">
<rect width="75" height="75" fill="white"/>
</clipPath>
</defs>
</svg>
