<svg width="75" height="75" viewBox="0 0 75 75" fill="none" xmlns="http://www.w3.org/2000/svg">
<path d="M31.4941 13.1836C32.7077 13.1836 33.6914 12.1999 33.6914 10.9864C33.6914 9.77284 32.7077 8.78909 31.4941 8.78909C30.2806 8.78909 29.2969 9.77284 29.2969 10.9864C29.2969 12.1999 30.2806 13.1836 31.4941 13.1836Z" fill="#202020"/>
<path d="M22.7051 13.1836C23.9186 13.1836 24.9023 12.1999 24.9023 10.9864C24.9023 9.77284 23.9186 8.78909 22.7051 8.78909C21.4916 8.78909 20.5078 9.77284 20.5078 10.9864C20.5078 12.1999 21.4916 13.1836 22.7051 13.1836Z" fill="#202020"/>
<path d="M31.4941 30.7618C32.7077 30.7618 33.6914 29.778 33.6914 28.5645C33.6914 27.351 32.7077 26.3673 31.4941 26.3673C30.2806 26.3673 29.2969 27.351 29.2969 28.5645C29.2969 29.778 30.2806 30.7618 31.4941 30.7618Z" fill="#202020"/>
<path d="M27.0996 38.0857C28.3131 38.0857 29.2969 37.102 29.2969 35.8885C29.2969 34.675 28.3131 33.6912 27.0996 33.6912C25.8861 33.6912 24.9023 34.675 24.9023 35.8885C24.9023 37.102 25.8861 38.0857 27.0996 38.0857Z" fill="#202020"/>
<path d="M22.7051 30.7618C23.9186 30.7618 24.9023 29.778 24.9023 28.5645C24.9023 27.351 23.9186 26.3673 22.7051 26.3673C21.4916 26.3673 20.5078 27.351 20.5078 28.5645C20.5078 29.778 21.4916 30.7618 22.7051 30.7618Z" fill="#202020"/>
<path d="M31.4941 21.9727H35.8887C37.1022 21.9727 38.0859 20.9889 38.0859 19.7754C38.0859 18.562 37.1022 17.5782 35.8887 17.5782H31.4941C30.2807 17.5782 29.2969 18.562 29.2969 19.7754C29.2969 20.9889 30.2807 21.9727 31.4941 21.9727Z" fill="#202020"/>
<path d="M24.9023 19.7754C24.9023 18.562 23.9186 17.5782 22.7051 17.5782H18.3105C17.0971 17.5782 16.1133 18.562 16.1133 19.7754C16.1133 20.9889 17.0971 21.9727 18.3105 21.9727H22.7051C23.9186 21.9727 24.9023 20.9889 24.9023 19.7754Z" fill="#202020"/>
<path d="M40.2832 45.4102H34.4238V43.8797C40.8847 41.0486 45.4102 34.5932 45.4102 27.0996V18.3105C45.4102 8.21411 37.196 0 27.0996 0C17.0032 0 8.78906 8.21411 8.78906 18.3105V27.0996C8.78906 34.5932 13.3146 41.0486 19.7754 43.8797V45.4102H13.916C6.24272 45.4102 0 51.6529 0 59.3262V72.8027C0 74.0162 0.983789 75 2.19727 75H52.002C53.2154 75 54.1992 74.0162 54.1992 72.8027V59.3262C54.1992 51.6529 47.9565 45.4102 40.2832 45.4102ZM49.7738 58.5938H43.2129C40.3859 58.5938 38.0859 56.2938 38.0859 53.4668V49.8047H40.2832C45.2867 49.8047 49.3982 53.6849 49.7738 58.5938ZM13.1836 62.7296C15.7718 62.1157 17.9533 60.4433 19.2453 58.1956L25.8809 62.6193C26.2499 62.8652 26.6748 62.9883 27.0996 62.9883C27.5244 62.9883 27.9494 62.8652 28.3184 62.6193L34.954 58.1956C36.2459 60.4433 38.4274 62.1155 41.0156 62.7296V70.6055H13.1836V62.7296ZM13.1836 27.0996V18.3105C13.1836 10.6373 19.4263 4.39453 27.0996 4.39453C34.7729 4.39453 41.0156 10.6373 41.0156 18.3105V27.0996C41.0156 34.7729 34.7729 41.0156 27.0996 41.0156C19.4263 41.0156 13.1836 34.7729 13.1836 27.0996ZM27.0996 45.4102C28.0967 45.4102 29.075 45.3289 30.0293 45.1748V47.6074C30.0293 48.8209 31.0131 49.8047 32.2266 49.8047H33.6914V53.4668C33.6914 53.562 33.6958 53.6563 33.6986 53.7508L27.0996 58.1502L20.5006 53.7508C20.5034 53.6563 20.5078 53.562 20.5078 53.4668V49.8047H21.9727C23.1861 49.8047 24.1699 48.8209 24.1699 47.6074V45.1748C25.1243 45.3289 26.1025 45.4102 27.0996 45.4102ZM13.916 49.8047H16.1133V53.4668C16.1133 56.2938 13.8133 58.5938 10.9863 58.5938H4.42544C4.80103 53.6849 8.91255 49.8047 13.916 49.8047ZM4.39453 62.9883H8.78906V70.6055H4.39453V62.9883ZM45.4102 70.6055V62.9883H49.8047V70.6055H45.4102Z" fill="#202020"/>
<path d="M59.6191 0H51.4557C48.2837 0 45.7031 2.58062 45.7031 5.75259C45.7031 6.64087 45.9132 7.53047 46.3104 8.32515L49.115 13.9343C50.2389 16.1818 52.4981 17.5781 55.011 17.5781H59.6191C60.8307 17.5781 61.8164 18.5638 61.8164 19.7754V68.4082C61.8164 72.0429 64.7735 75 68.4082 75C72.0429 75 75 72.0429 75 68.4082V15.3809C75 6.89985 68.1001 0 59.6191 0ZM59.6191 13.1836H55.0109C54.1733 13.1836 53.4202 12.7182 53.0455 11.9689L50.2409 6.35977C50.147 6.17212 50.0975 5.96206 50.0975 5.75244C50.0975 5.00361 50.7067 4.39438 51.4556 4.39438H59.6191C65.677 4.39438 70.6055 9.32285 70.6055 15.3807V20.5077H66.2109V19.7752C66.2109 16.1407 63.2539 13.1836 59.6191 13.1836ZM66.2109 33.6914H70.6055V49.8047H66.2109V33.6914ZM66.2109 29.2969V24.9023H70.6055V29.2969H66.2109ZM68.4082 70.6055C67.1966 70.6055 66.2109 69.6198 66.2109 68.4082V54.1992H70.6055V68.4082C70.6055 69.6198 69.6198 70.6055 68.4082 70.6055Z" fill="#202020"/>
</svg>
