<svg width="75" height="76" viewBox="0 0 75 76" fill="none" xmlns="http://www.w3.org/2000/svg">
<g clip-path="url(#clip0)">
<path d="M33.7671 14.3613H41.233C41.8397 14.3613 42.3316 13.8696 42.3316 13.2627C42.3316 12.6558 41.8397 12.1641 41.233 12.1641H33.7671C33.1604 12.1641 32.6685 12.6558 32.6685 13.2627C32.6685 13.8696 33.1604 14.3613 33.7671 14.3613Z" fill="#202020"/>
<path d="M56.1769 45.6791H45.9353C45.8941 45.6617 45.8584 45.6209 45.8584 45.5633V41.2017C49 38.9116 51.5559 35.6054 51.8433 31.7035L51.8631 31.4357L53.0119 31.3082C54.747 31.1155 56.0554 29.6538 56.0554 27.908V11.5689C56.0554 9.79692 54.6139 8.35537 52.8419 8.35537H51.5884C49.4049 3.43804 44.4902 0.126465 38.9327 0.126465H36.0672C30.4589 0.126465 25.5725 3.48857 23.4114 8.35537H22.1579C20.3859 8.35537 18.9444 9.79707 18.9444 11.5689V27.9078C18.9444 29.6536 20.2528 31.1152 21.9879 31.308L23.1369 31.4356L23.1567 31.7034C23.4441 35.6056 25.997 38.9094 29.1416 41.2016V45.5631C29.1416 45.6189 29.106 45.6611 29.0644 45.679H18.8229C13.5006 45.679 9.17035 50.0092 9.17035 55.3316V73.5271C9.17035 74.4091 9.88783 75.1265 10.7697 75.1265H64.2303C65.1121 75.1265 65.8296 74.4091 65.8296 73.5271V55.3316C65.8296 50.0092 61.4994 45.6791 56.1769 45.6791V45.6791ZM46.6617 52.706C46.6438 52.7309 46.627 52.7567 46.6112 52.7834C45.7016 54.1629 44.4665 55.3473 43.0311 56.1956L42.3709 54.8795C44.869 53.3718 46.5341 50.7787 46.8663 47.8763H48.3416C48.1744 49.6102 47.599 51.2574 46.6617 52.706ZM34.6315 55.7886C36.4829 56.38 38.5151 56.3804 40.3684 55.7885L41.0341 57.1155C38.7807 57.8867 36.2462 57.8959 33.9657 57.1156L34.6315 55.7886ZM52.7695 29.1242L52.0271 29.2067L52.1868 27.038C52.6674 27.1167 52.9387 27.0771 53.8582 27.0876V27.908C53.8583 28.5324 53.3903 29.0552 52.7695 29.1242V29.1242ZM53.8583 24.8904H52.7997C51.9281 24.8904 51.2191 24.1812 51.2191 23.3098V19.5424C51.2191 19.1426 51.1484 18.7591 51.0189 18.4036H52.6229C53.304 18.4036 53.8582 18.9578 53.8582 19.6391V24.8904H53.8583ZM36.0672 2.32373H38.9327C39.8014 2.32373 40.6605 2.41953 41.5006 2.60952L41.0225 3.32671C40.7861 3.68149 40.3904 3.89316 39.964 3.89316H35.0358C34.6094 3.89316 34.2137 3.68149 33.9772 3.32671L33.4991 2.60952C34.3393 2.41953 35.1986 2.32373 36.0672 2.32373V2.32373ZM22.1579 10.5526H41.476C42.0827 10.5526 42.5746 10.0609 42.5746 9.454C42.5746 8.84712 42.0827 8.35537 41.476 8.35537H25.8625C27.0871 6.13569 29.0169 4.36089 31.3371 3.32744L32.1491 4.54546C32.7939 5.51284 33.8732 6.09043 35.036 6.09043H39.9641C41.1269 6.09043 42.2061 5.51284 42.8509 4.54546L43.6629 3.32744C45.983 4.36074 47.9128 6.13555 49.1374 8.35537H46.603C45.9962 8.35537 45.5043 8.84712 45.5043 9.454C45.5043 10.0609 45.9962 10.5526 46.603 10.5526H52.842C53.4025 10.5526 53.8583 11.0085 53.8583 11.5689V16.4362C53.4748 16.2878 53.0582 16.2062 52.623 16.2062H22.3769C21.9417 16.2062 21.5251 16.2876 21.1416 16.4362V11.5689C21.1416 11.0085 21.5975 10.5526 22.1579 10.5526V10.5526ZM23.7808 19.5424V23.3098C23.7808 24.1812 23.0719 24.8904 22.2003 24.8904H21.1416V19.6389C21.1416 18.9578 21.6958 18.4035 22.3769 18.4035H23.9811C23.8514 18.759 23.7808 19.1426 23.7808 19.5424ZM22.2303 29.1242C21.6097 29.0552 21.1415 28.5324 21.1415 27.9078V27.0875C22.0708 27.0767 22.3346 27.1161 22.813 27.0378L22.9727 29.2067L22.2303 29.1242ZM25.3598 31.6826L34.9594 32.7487C36.6553 32.9369 38.365 32.9347 40.0406 32.7487L42.2393 32.5045C42.8424 32.4375 43.2769 31.8944 43.2099 31.2913C43.143 30.6884 42.5995 30.2538 41.9968 30.3207L39.798 30.5649C38.2731 30.7342 36.7265 30.7342 35.2018 30.5649L25.1941 29.4534L24.9335 25.915C25.5804 25.2367 25.9781 24.3188 25.9781 23.3097V19.5422C25.9781 18.9143 26.489 18.4035 27.1169 18.4035H47.8829C48.5109 18.4035 49.0218 18.9143 49.0218 19.5422V23.3097C49.0218 24.3188 49.4196 25.2367 50.0664 25.915L49.8058 29.4534L47.1795 29.745C46.5764 29.812 46.1418 30.3551 46.2089 30.9582C46.2759 31.5611 46.8196 31.9969 47.4221 31.9288L49.6404 31.6824C49.0819 37.7677 41.2929 42.2718 37.5003 42.2718C33.4617 42.2719 25.9008 37.5768 25.3598 31.6826V31.6826ZM37.5 44.4692C39.2639 44.4692 41.505 43.768 43.6613 42.5924V45.5633C43.6613 46.3613 44.0691 47.0768 44.6969 47.4963C44.3261 51.3547 41.0636 54.0431 37.4944 54.0431C33.4888 54.0431 30.6306 50.9041 30.3032 47.4961C30.9309 47.0766 31.3387 46.3612 31.3387 45.5631V42.5923C33.4949 43.768 35.736 44.4692 37.5 44.4692V44.4692ZM28.1339 47.8764C28.4661 50.7787 30.1312 53.3719 32.6292 54.8797L31.969 56.1958C30.5283 55.3445 29.2904 54.1547 28.3812 52.7718C28.3693 52.7524 28.357 52.7335 28.3441 52.7151C27.4033 51.2643 26.8258 49.6137 26.6585 47.8764H28.1339ZM19.4594 69.2671H11.3676V67.8022H19.4594V69.2671ZM19.4594 65.605H11.3676V64.1401H19.4594V65.605ZM11.3676 71.4644H19.4594V72.9292H11.3676V71.4644ZM29.8134 69.6534C29.8134 67.7488 32.9701 65.6268 37.5 65.6268C42.0299 65.6268 45.1864 67.7488 45.1864 69.6534C45.1864 70.9124 43.9262 72.1575 41.8844 72.9292H33.1157C31.0737 72.1575 29.8134 70.9124 29.8134 69.6534V69.6534ZM53.3433 72.9292H45.9545C46.8786 71.9716 47.3837 70.8482 47.3837 69.6534C47.3837 66.1634 43.0422 63.4295 37.5 63.4295C31.9577 63.4295 27.6161 66.1634 27.6161 69.6534C27.6161 70.8482 28.1212 71.9716 29.0455 72.9292H21.6567V59.8363C21.6567 59.2294 21.1648 58.7376 20.558 58.7376C19.9513 58.7376 19.4594 59.2294 19.4594 59.8363V61.9429H11.3676V58.7899L18.1314 56.9775C18.7175 56.8205 19.0652 56.218 18.9082 55.6319C18.7512 55.0458 18.1488 54.6978 17.5626 54.8551L11.3675 56.515V55.3314C11.3675 51.2207 14.712 47.8761 18.8228 47.8761H24.4526C24.5867 49.5559 25.0388 51.1716 25.7801 52.6533L22.5644 53.5149C21.9784 53.6718 21.6306 54.2744 21.7875 54.8605C21.9451 55.4488 22.5498 55.7942 23.1331 55.6373L26.9834 54.6056C32.2242 61.638 42.7441 61.6798 48.0162 54.6056L63.6322 58.7899V61.9429H55.5404V59.8363C55.5404 59.2294 55.0485 58.7376 54.4418 58.7376C53.835 58.7376 53.3431 59.2294 53.3431 59.8363V72.9292H53.3433ZM63.6323 65.605H55.5405V64.1401H63.6323V65.605ZM55.5405 67.8022H63.6323V69.2671H55.5405V67.8022ZM63.6323 72.9292H55.5405V71.4644H63.6323V72.9292ZM63.6323 56.5152L49.2197 52.6534C49.961 51.1717 50.4132 49.556 50.5472 47.8763H56.1769C60.2878 47.8763 63.6323 51.2207 63.6323 55.3316V56.5152Z" fill="#202020"/>
<path d="M42.2789 69.2778C42.2789 68.6709 41.787 68.1792 41.1803 68.1792H33.8199C33.2131 68.1792 32.7213 68.6709 32.7213 69.2778C32.7213 69.8847 33.2131 70.3765 33.8199 70.3765H41.1803C41.787 70.3765 42.2789 69.8847 42.2789 69.2778Z" fill="#202020"/>
</g>
<defs>
<clipPath id="clip0">
<rect width="75" height="75" fill="white" transform="translate(0 0.126465)"/>
</clipPath>
</defs>
</svg>
