<svg width="29" height="29" viewBox="0 0 29 29" fill="none" xmlns="http://www.w3.org/2000/svg">
<path d="M25.2884 21.0158C25.24 20.7165 25.0524 20.4608 24.7714 20.3088L20.6142 17.8595L20.58 17.8403C20.4057 17.7531 20.2132 17.7084 20.0183 17.7098C19.67 17.7098 19.3374 17.8418 19.1065 18.0732L17.8795 19.3008C17.827 19.3506 17.6559 19.4229 17.604 19.4255C17.5898 19.4243 16.1764 19.3225 13.5742 16.7201C10.9767 14.1231 10.8665 12.7053 10.8656 12.7053C10.867 12.6328 10.9384 12.4623 10.9891 12.4095L12.0354 11.3635C12.404 10.994 12.5145 10.3815 12.2959 9.90709L9.98515 5.55912C9.81724 5.21344 9.49099 5 9.12907 5C8.873 5 8.62592 5.10614 8.43278 5.29899L5.58063 8.14476C5.30716 8.41678 5.07168 8.89238 5.02035 9.27518C4.99541 9.45817 4.48936 13.8261 10.4779 19.8155C15.5618 24.8989 19.5261 25.2939 20.6209 25.2939C20.7542 25.2956 20.8875 25.2887 21.0199 25.2733C21.4016 25.2223 21.8766 24.9874 22.1483 24.7151L24.9982 21.8655C25.2307 21.6318 25.3369 21.3229 25.2884 21.0158Z" fill="#0C1423"/>
</svg>
