<svg width="70" height="70" viewBox="0 0 70 70" fill="none" xmlns="http://www.w3.org/2000/svg">
<g clip-path="url(#clip0)">
<path d="M57.6268 35.0011H12.7988C11.4926 35.0011 10.4174 33.8783 10.4174 32.6015C10.4174 32.3887 10.4566 32.1479 10.5 31.9547L12.8856 15.2961C13.0886 14.2139 14.063 14.0011 15.2292 14.0011H55.2034C56.3612 14.0011 57.344 14.1957 57.5442 15.2737L59.9298 32.2361C59.9662 32.4335 60.0138 32.5497 60.0138 32.7625C60.0124 34.0393 58.9316 35.0011 57.6268 35.0011V35.0011ZM55.8334 53.6841C53.3092 53.6841 51.2624 51.6975 51.2624 49.2209C51.2624 46.7611 53.3092 44.7773 55.8334 44.7773C58.3408 44.7773 60.3918 46.7611 60.3918 49.2209C60.3918 51.6975 58.3408 53.6841 55.8334 53.6841ZM14.532 53.6841C12.026 53.6841 9.97778 51.6975 9.97778 49.2209C9.97778 46.7611 12.026 44.7773 14.532 44.7773C17.0632 44.7773 19.1072 46.7611 19.1072 49.2209C19.1072 51.6975 17.0632 53.6841 14.532 53.6841ZM22.4 4.2011H50.4V8.4011H22.4C19.6 8.4011 19.6 4.2011 22.4 4.2011ZM61.8828 10.6271C61.0652 6.6889 58.6768 5.1027 54.7806 3.5179C50.8914 1.9387 41.8782 0.0458984 35.0994 0.0458984C28.2912 0.0458984 19.2318 1.9401 15.3384 3.5179C11.4436 5.1041 9.09438 6.6889 8.28378 10.6271L5.59998 32.5497V63.0011H9.79998V65.8011C9.79998 71.4011 16.8 71.4011 16.8 65.8011V63.0011H51.8V65.8011C51.8 71.4011 60.2 71.4011 60.2 65.8011V63.0011H64.4V32.5497L61.8828 10.6271Z" fill="#202020"/>
</g>
<defs>
<clipPath id="clip0">
<rect width="70" height="70" fill="white"/>
</clipPath>
</defs>
</svg>
