<svg width="70" height="70" viewBox="0 0 70 70" fill="none" xmlns="http://www.w3.org/2000/svg">
<path d="M21.875 25.503C22.8871 24.3888 24.5437 23.333 26.9792 23.333C30.3392 23.333 32.5033 25.643 33.2646 28.1776C34.0025 30.648 33.5562 33.7047 31.4562 35.8134C30.7279 36.5137 29.9553 37.1664 29.1433 37.7676L29.0267 37.858C28.21 38.488 27.4808 39.0597 26.8392 39.6955C26.0954 40.4422 25.4858 41.2559 25.1329 42.2913H31.3542C31.9343 42.2913 32.4907 42.5218 32.901 42.9321C33.3112 43.3423 33.5417 43.8987 33.5417 44.4788C33.5417 45.059 33.3112 45.6154 32.901 46.0256C32.4907 46.4359 31.9343 46.6663 31.3542 46.6663H22.6042C22.024 46.6663 21.4676 46.4359 21.0574 46.0256C20.6471 45.6154 20.4167 45.059 20.4167 44.4788C20.4167 40.8418 21.945 38.4034 23.7533 36.6009C24.6167 35.7376 25.5558 35.0113 26.3492 34.3959L26.3579 34.3901C27.1921 33.7455 27.8396 33.2438 28.3558 32.7276C29.1492 31.9284 29.4262 30.613 29.0733 29.4318C28.7379 28.3205 27.9942 27.708 26.9792 27.708C25.9496 27.708 25.4187 28.1076 25.1125 28.4459C24.9333 28.6437 24.7875 28.8693 24.6808 29.1138V29.1226C24.5021 29.6749 24.1114 30.1336 23.5945 30.3978C23.0776 30.662 22.4769 30.71 21.9246 30.5313C21.3723 30.3527 20.9136 29.9619 20.6494 29.445C20.3852 28.9281 20.3371 28.3274 20.5158 27.7751L20.6179 27.4951C20.9176 26.7635 21.3419 26.0895 21.8721 25.503H21.875Z" fill="#202020"/>
<path d="M38.6459 23.333C39.226 23.333 39.7824 23.5635 40.1927 23.9737C40.6029 24.3839 40.8334 24.9403 40.8334 25.5205V33.5413H45.2084V25.5205C45.2084 24.9403 45.4388 24.3839 45.8491 23.9737C46.2593 23.5635 46.8157 23.333 47.3959 23.333C47.976 23.333 48.5324 23.5635 48.9427 23.9737C49.3529 24.3839 49.5834 24.9403 49.5834 25.5205V44.3913C49.5834 44.9715 49.3529 45.5279 48.9427 45.9381C48.5324 46.3484 47.976 46.5788 47.3959 46.5788C46.8157 46.5788 46.2593 46.3484 45.8491 45.9381C45.4388 45.5279 45.2084 44.9715 45.2084 44.3913V37.9163H38.6459C38.0657 37.9163 37.5093 37.6859 37.0991 37.2756C36.6888 36.8654 36.4584 36.309 36.4584 35.7288V25.5205C36.4584 24.9403 36.6888 24.3839 37.0991 23.9737C37.5093 23.5635 38.0657 23.333 38.6459 23.333V23.333Z" fill="#202020"/>
<path d="M64.1667 34.9997C64.1667 18.8909 51.1088 5.83301 35 5.83301C18.8913 5.83301 5.83337 18.8909 5.83337 34.9997C5.83337 51.1084 18.8913 64.1663 35 64.1663C51.1088 64.1663 64.1667 51.1084 64.1667 34.9997ZM10.2084 34.9997C10.2084 28.4245 12.8203 22.1187 17.4697 17.4693C22.119 12.82 28.4249 10.208 35 10.208C41.5752 10.208 47.8811 12.82 52.5304 17.4693C57.1797 22.1187 59.7917 28.4245 59.7917 34.9997C59.7917 41.5748 57.1797 47.8807 52.5304 52.53C47.8811 57.1794 41.5752 59.7913 35 59.7913C28.4249 59.7913 22.119 57.1794 17.4697 52.53C12.8203 47.8807 10.2084 41.5748 10.2084 34.9997V34.9997Z" fill="#202020"/>
</svg>
