<svg width="70" height="70" viewBox="0 0 70 70" fill="none" xmlns="http://www.w3.org/2000/svg">
<path fill-rule="evenodd" clip-rule="evenodd" d="M4.375 52.5H17.7187V61.0094H4.375V52.5Z" fill="#202020"/>
<path fill-rule="evenodd" clip-rule="evenodd" d="M18.1999 53.4928L27.0724 28.2578L32.248 30.0778L23.3799 55.3128L18.1999 53.4928Z" fill="#202020"/>
<path fill-rule="evenodd" clip-rule="evenodd" d="M11.3531 14.0732L9.22688 21.3532C9.22688 21.3532 7.94063 24.7395 11.095 25.7895C14.6475 26.8745 41.685 34.907 41.685 34.907L47.7706 24.4945L11.3531 14.0732V14.0732Z" fill="#202020"/>
<path fill-rule="evenodd" clip-rule="evenodd" d="M59.977 21.7478C60.4364 21.5772 69.8164 16.4978 69.8164 16.4978C69.1076 15.7847 68.692 15.2466 67.6507 14.9447L18.1345 0.441562C17.3661 0.210759 16.5597 0.133737 15.7614 0.214903C14.9632 0.29607 14.1888 0.533831 13.4826 0.914583C12.7764 1.29534 12.1521 1.81161 11.6456 2.43386C11.1391 3.05611 10.7602 3.77212 10.5307 4.54094L8.99512 9.77781C8.99512 9.77781 51.4676 22.2203 52.7714 22.4041L48.3132 30.2703L61.202 34.7547L65.5332 21.9709C65.5332 21.9666 60.677 21.9666 59.977 21.7478Z" fill="#202020"/>
<path fill-rule="evenodd" clip-rule="evenodd" d="M7.69568 53.2831L6.13818 50.9687C14.6432 45.7275 17.5569 31.7362 17.4694 21.3456L20.3482 21.3193C20.4401 32.9393 17.1719 47.4425 7.69568 53.2831Z" fill="#202020"/>
<path fill-rule="evenodd" clip-rule="evenodd" d="M8.87688 56.8555C8.87688 64.0523 4.90438 69.8798 0 69.8798V43.8398C4.90438 43.8398 8.87688 49.6673 8.87688 56.8555Z" fill="#202020"/>
</svg>
