<svg width="70" height="70" viewBox="0 0 70 70" fill="none" xmlns="http://www.w3.org/2000/svg">
<path d="M35 0C29.3461 0 25.9619 0.861538 23.8107 1.93577C22.7338 2.47423 21.9692 3.03962 21.455 3.61846C20.938 4.19731 20.6123 5.04808 20.6123 5.04808C20.5278 5.2643 20.4717 5.49054 20.4453 5.72115L19.013 24.1473C18.9942 24.2604 19.0319 24.4435 19.013 24.5673L18.8461 26.4196C18.8304 26.5871 18.8304 26.7556 18.8461 26.9231C18.8461 35.8077 26.1153 43.0769 35 43.0769C43.8846 43.0769 51.1538 35.8077 51.1538 26.9231V26.5031C51.1542 26.4753 51.1542 26.4474 51.1538 26.4196L49.5546 5.72115C49.5282 5.49054 49.4721 5.2643 49.3876 5.04808C49.3876 5.04808 49.0619 4.19731 48.545 3.61846C48.0307 3.03692 47.2661 2.47154 46.1892 1.93577C44.038 0.858846 40.6538 0 35 0ZM35 43.0769C17.2307 43.0769 2.69226 51.4392 2.69226 58.9777V70H67.3076V58.9777C67.3076 51.8162 54.1638 43.9277 37.6088 43.1604C36.7404 43.1031 35.8703 43.0752 35 43.0769V43.0769ZM35 5.38462C40.1153 5.38462 42.6703 6.19231 43.75 6.73077C44.1107 6.91115 44.1538 6.98115 44.2561 7.06731L45.3492 20.8654C42.8723 21.0162 39.4961 21.5385 35 21.5385C30.5038 21.5385 27.1303 21.0162 24.6507 20.8654L25.7438 7.06731C25.8434 6.98115 25.8892 6.91115 26.25 6.73077C27.3296 6.19231 29.8846 5.38462 35 5.38462V5.38462ZM32.8111 8.07692V11.2754H29.6153V15.6504H32.8138V18.8462H37.1861V15.6477H40.3846V11.2754H37.1861V8.07692H32.8138H32.8111ZM26.923 49.1346L33.8234 64.6154H8.07688V58.9777C8.07688 56.9719 14.9423 51.0973 26.923 49.1346ZM43.0769 49.1346C55.0576 51.1 61.923 56.9719 61.923 58.9777V64.6154H36.1765L43.0769 49.1346Z" fill="#202020"/>
</svg>
