<svg width="75" height="75" fill="none" xmlns="http://www.w3.org/2000/svg"><path d="M31.494 13.184a2.197 2.197 0 100-4.395 2.197 2.197 0 000 4.395zm-8.789 0a2.197 2.197 0 100-4.395 2.197 2.197 0 000 4.395zm8.789 17.578a2.197 2.197 0 100-4.395 2.197 2.197 0 000 4.395zM27.1 38.086a2.197 2.197 0 100-4.395 2.197 2.197 0 000 4.395zm-4.395-7.324a2.197 2.197 0 100-4.395 2.197 2.197 0 000 4.395zm8.789-8.789h4.395a2.197 2.197 0 000-4.395h-4.395a2.197 2.197 0 000 4.395zm-6.592-2.198a2.197 2.197 0 00-2.197-2.197h-4.394a2.197 2.197 0 000 4.395h4.394a2.197 2.197 0 002.197-2.198z" fill="#202020"/><path d="M40.283 45.41h-5.86v-1.53c6.462-2.831 10.987-9.287 10.987-16.78v-8.79C45.41 8.215 37.196 0 27.1 0 17.003 0 8.79 8.214 8.79 18.31v8.79c0 7.493 4.525 13.949 10.985 16.78v1.53h-5.859C6.243 45.41 0 51.653 0 59.326v13.477C0 74.016.984 75 2.197 75h49.805a2.197 2.197 0 002.197-2.197V59.326c0-7.673-6.242-13.916-13.916-13.916zm9.49 13.184h-6.56a5.133 5.133 0 01-5.127-5.127v-3.662h2.197c5.004 0 9.115 3.88 9.49 8.789zm-36.59 4.136a9.553 9.553 0 006.062-4.534l6.636 4.423a2.196 2.196 0 002.437 0l6.636-4.423a9.553 9.553 0 006.062 4.534v7.876H13.184V62.73zm0-35.63v-8.79c0-7.673 6.243-13.915 13.917-13.915 7.673 0 13.916 6.242 13.916 13.916V27.1c0 7.673-6.243 13.916-13.916 13.916-7.674 0-13.916-6.243-13.916-13.916zM27.1 45.41c.997 0 1.975-.081 2.93-.235v2.432c0 1.214.983 2.198 2.197 2.198h1.464v3.662c0 .095.005.19.008.284l-6.6 4.4-6.598-4.4c.002-.095.007-.189.007-.284v-3.662h1.465a2.197 2.197 0 002.197-2.198v-2.432a18.37 18.37 0 002.93.235zm-13.184 4.395h2.197v3.662c0 2.827-2.3 5.127-5.127 5.127h-6.56c.375-4.91 4.487-8.79 9.49-8.79zM4.395 62.988h4.394v7.618H4.395v-7.618zm41.015 7.618v-7.618h4.395v7.618H45.41zM59.62 0h-8.164a5.76 5.76 0 00-5.753 5.753c0 .888.21 1.777.607 2.572l2.805 5.61a6.556 6.556 0 005.896 3.643h4.608a2.2 2.2 0 012.197 2.197v48.633A6.6 6.6 0 0068.408 75 6.6 6.6 0 0075 68.408V15.381C75 6.9 68.1 0 59.62 0zm0 13.184h-4.61c-.837 0-1.59-.466-1.965-1.215l-2.804-5.61a1.36 1.36 0 011.215-1.965h8.163c6.058 0 10.987 4.929 10.987 10.987v5.127H66.21v-.733a6.6 6.6 0 00-6.592-6.591zm6.59 20.507h4.396v16.114H66.21V33.69zm0-4.394v-4.395h4.396v4.395H66.21zm2.198 41.309a2.2 2.2 0 01-2.197-2.198V54.2h4.395v14.21a2.2 2.2 0 01-2.198 2.197z" fill="#202020"/></svg>