<svg width="75" height="75" fill="none" xmlns="http://www.w3.org/2000/svg"><g clip-path="url(#clip0)" fill="#202020"><path d="M35.17 39.918l2.313-1.077 2.313 1.077a1.249 1.249 0 001.767-1.284l-.31-2.532 1.738-1.873a1.249 1.249 0 00-.675-2.077l-2.498-.487-1.236-2.231a1.3 1.3 0 00-2.186 0l-1.236 2.231-2.503.487a1.25 1.25 0 00-.676 2.077l1.739 1.873-.31 2.532a1.249 1.249 0 001.767 1.284h-.007zm1.032-5.906c.363-.072.676-.3.854-.625l.427-.765.427.77c.178.325.491.553.854.625l.866.168-.602.646a1.25 1.25 0 00-.325.999l.107.874-.799-.374a1.248 1.248 0 00-1.056 0l-.798.374.106-.874a1.25 1.25 0 00-.325-1l-.602-.645.866-.173z"/><path d="M60.549 64.177h-9.367c-1.015-.058-1.996-.447-2.832-1.123-.66-1.013-1.685-1.611-2.775-1.615h-.294c-.18-2.662-1.672-4.956-3.818-5.87l6.392-11.24c.035 0 .072.009.108.009.459.002.913-.09 1.344-.274 1.975-1.023 3.193-3.382 3.046-5.903 0-1.35.659-1.862 2.032-2.803 1.614-1.105 3.822-2.616 3.822-6.782a9.09 9.09 0 00-.234-2.023L71.79 2.267c.91-1.508.601-3.592-.687-4.656-1.29-1.063-3.072-.703-3.982.804a882.899 882.899 0 00-14.505 23.33c-.089 0-.17-.015-.263-.015-2.119-.037-4.148.993-5.57 2.829-.13-.117-.258-.236-.396-.34-.618-4.852-3.923-8.629-8.085-9.24v-1.595c1.948-.258 3.441-2.143 3.513-4.434V4.158c0-.327-.1-.643-.282-.892C39.075.5 35.186.5 32.73 3.266a1.515 1.515 0 00-.283.892V8.95c.071 2.291 1.565 4.176 3.513 4.434v1.595c-4.16.614-7.462 4.39-8.08 9.24-.138.104-.265.223-.395.34-1.424-1.838-3.456-2.869-5.576-2.83-.092 0-.174.013-.263.016A886.665 886.665 0 007.14-1.587c-.926-1.45-2.67-1.772-3.934-.729C1.944-1.27 1.622.76 2.48 2.264l13.817 24.289a9.083 9.083 0 00-.243 2.023c0 4.166 2.208 5.677 3.821 6.782 1.374.94 2.033 1.453 2.033 2.803-.144 2.518 1.071 4.874 3.044 5.898a3.4 3.4 0 001.345.274c.036 0 .072-.007.108-.009l6.393 11.245c-2.146.914-3.638 3.208-3.817 5.87h-.296c-1.09.004-2.114.602-2.773 1.615-.837.676-1.818 1.065-2.833 1.123h-9.367c-10.701 0-11.71 1.452-11.71 8.216 0 5.895 1.381 6.846 4.684 6.846H23.08c4.933 0 6.557-2.764 6.858-3.4l3.513-6.184h7.35l3.513 6.185c.31.635 1.935 3.4 6.868 3.4h16.393c3.303 0 4.683-.959 4.683-6.847 0-6.764-1.008-8.216-11.709-8.216zM33.462 43.723a6.92 6.92 0 01-.89-.8l-.008-.008-.016-.019c-.29-.318-.555-.65-.82-.983-.086-.11-.172-.213-.26-.33a16.394 16.394 0 01-.533-.755 19.192 19.192 0 01-2.793-6.44c-.034-.146-.073-.29-.104-.439a22.683 22.683 0 01-.148-.821 21.138 21.138 0 01-.136-.912c-.027-.211-.055-.423-.076-.637a25.017 25.017 0 01-.111-1.659c-.018-.908.242-1.793.733-2.497 0-.01.008-.022.014-.031.065-.094.117-.198.196-.286.278-.33.602-.6.959-.803l.021-.01a3.124 3.124 0 011.581-.455h12.12a3.12 3.12 0 011.581.458h.015c.359.204.685.478.967.809.628.748.967 1.766.936 2.814-.06 3.625-1.047 7.145-2.836 10.106-.015.02-.037.03-.051.052-.162.263-.323.51-.485.751l-.083.12c-.156.23-.312.45-.468.662a18.03 18.03 0 01-1.072 1.3c-.279.3-.579.57-.898.809-.072.055-.14.113-.213.166a6.27 6.27 0 01-.9.524 3.091 3.091 0 01-.328.137 5.804 5.804 0 01-4.458 0 18.29 18.29 0 01-.322-.137 6.264 6.264 0 01-.903-.527c-.07-.046-.14-.107-.212-.159zm3.669 4.033a7.94 7.94 0 001.171-.1v7.47H35.96v-7.47c.388.062.78.096 1.171.1zm8.4-4.28l-4.887 8.594v-5.146c.015-.006.028-.019.043-.027a8.524 8.524 0 001.34-.822c.023-.017.043-.037.065-.053.428-.324.832-.69 1.207-1.096l.014-.015c.312-.343.644-.748 1.007-1.215a19.9 19.9 0 00.434-.57c.041-.059.085-.115.127-.175.062.057.125.101.188.155.117.102.234.2.351.291.037.015.072.052.111.08zM68.993.063a.497.497 0 01.379-.24.457.457 0 01.394.17.676.676 0 01.064.755L56.724 23.793a5.066 5.066 0 00-1.629-1.411A868.68 868.68 0 0168.993.062zm-16.64 24.406c.235 0 .47.021.702.06.29.043.573.124.847.243.021.01.039.022.058.032.235.107.456.25.657.427.016.012.027.027.041.04.426.408.748.944.93 1.55.015.038.031.074.049.11a5.98 5.98 0 01.228 1.646c0 2.595-1.17 3.4-2.662 4.419-1.422.973-3.192 2.187-3.192 5.166.117 1.363-.477 2.674-1.507 3.326-.297.12-.618.141-.924.058-.011 0-.022-.013-.034-.016a2.585 2.585 0 01-.946-.51l-.027-.022c-.104-.086-.207-.192-.311-.294 1.727-3.205 2.685-6.894 2.774-10.681a7.36 7.36 0 00-.711-3.363c.98-1.42 2.467-2.228 4.028-2.19zM34.789 8.95V4.77c.684-.564 1.505-.858 2.342-.84.837-.022 1.658.27 2.342.837V8.95c0 .908-.724 1.825-2.342 1.825s-2.342-.917-2.342-1.825zm-4.303 14.184c.989-3.3 3.653-5.511 6.645-5.511 2.991 0 5.656 2.21 6.645 5.511a5.008 5.008 0 00-.585-.035H31.07c-.195 0-.39.012-.585.035zM4.431.746a.674.674 0 01.065-.753.467.467 0 01.358-.172h.036a.5.5 0 01.38.24A869.584 869.584 0 0119.166 22.38a5.071 5.071 0 00-1.629 1.412L4.431.746zm19.82 37.415c0-2.98-1.77-4.193-3.192-5.166-1.492-1.019-2.663-1.817-2.663-4.42a6.003 6.003 0 01.235-1.642.954.954 0 00.049-.108 3.555 3.555 0 01.93-1.55c.013-.014.025-.029.04-.041a2.71 2.71 0 01.657-.427c.02-.01.038-.022.059-.032.273-.118.557-.2.846-.242.231-.04.464-.062.697-.065.264.001.526.023.787.064.08.013.153.034.234.048a4.334 4.334 0 01.713.21c.141.056.277.118.406.185a3.443 3.443 0 01.605.371c.043.032.09.06.131.092.162.127.319.264.468.41l.099.108c.11.113.215.228.315.348.047.056.09.113.135.169.045.056.09.118.133.177-.039.08-.067.166-.103.25-.12.275-.221.56-.306.852a6.89 6.89 0 00-.232 1.116 7.35 7.35 0 00-.065 1.149 26.828 26.828 0 00.181 2.37c.074.63.163 1.251.281 1.86.117.612.268 1.211.432 1.801.041.15.086.296.129.444.14.47.296.934.469 1.39.046.126.087.255.135.379a21.44 21.44 0 001.019 2.206c.042.08.08.163.123.242a4.212 4.212 0 01-.423.373c-.098.075-.2.144-.305.206a1.98 1.98 0 01-.182.094 2.18 2.18 0 01-.351.137 1.69 1.69 0 01-.398.066h-.11a1.388 1.388 0 01-.467-.098c-1.032-.651-1.627-1.962-1.511-3.326zm4.593 5.223c.117-.088.235-.185.342-.285.065-.056.131-.1.195-.16.042.059.084.115.128.173.13.183.265.36.402.534.366.474.71.893 1.039 1.252l.012.016.009.007c.375.405.778.772 1.206 1.096l.055.043c.427.321.876.6 1.343.832.015 0 .028.019.043.026v5.147l-4.887-8.594c.039-.022.075-.059.113-.087zm5.892 14.495h4.79c1.739.033 3.196 1.545 3.43 3.56h-11.65c.234-2.015 1.691-3.527 3.43-3.56zm10.84 6.298c.435.005.83.293 1.026.748a1.525 1.525 0 01-.063 1.422c-.219.367-.58.58-.964.57H28.686c-.382.01-.745-.204-.964-.57a1.527 1.527 0 01-.062-1.422c.195-.455.591-.743 1.026-.748h16.89zm-17.674 10.31c-.041.082-1.03 2.014-4.822 2.014H6.687c-2.074 0-2.341 0-2.341-4.108 0-4.853 0-5.477 9.367-5.477h9.367a5.72 5.72 0 002.182-.45c.046.228.108.452.186.668.013.037.032.07.048.106a4.2 4.2 0 00.254.548c.041.074.09.137.134.21.08.128.168.251.26.368.058.071.117.137.18.2a3.588 3.588 0 00.508.454c.113.083.23.157.35.222.075.042.146.084.222.118.137.061.276.112.419.152.067.02.134.048.204.065.218.05.44.076.663.078h1.96l-2.748 4.832zM67.575 76.5H51.182c-3.793 0-4.781-1.932-4.8-1.982-.02-.049-.048-.1-.073-.146l-2.69-4.719h1.956c.223 0 .445-.027.663-.077.07-.017.137-.044.205-.065.142-.04.282-.09.418-.152.076-.034.148-.076.222-.118a3.437 3.437 0 00.56-.387c.104-.09.204-.186.299-.289.061-.066.117-.129.18-.2.092-.117.18-.24.26-.368.043-.07.093-.137.134-.21a4.53 4.53 0 00.253-.547c.015-.037.035-.072.049-.11a4.6 4.6 0 00.185-.668c.7.294 1.436.448 2.18.453h9.366c9.367 0 9.367.624 9.367 5.477 0 4.108-.267 4.108-2.341 4.108z"/></g><defs><clipPath id="clip0"><path fill="#fff" d="M0 0h75v75H0z"/></clipPath></defs></svg>