<svg width="75" height="76" fill="none" xmlns="http://www.w3.org/2000/svg"><g clip-path="url(#clip0)" fill="#202020"><path d="M1.549 73.498a5.114 5.114 0 00.859.72c.04.027.083.049.124.075.233.143.476.268.727.374.052.022.1.047.15.067.28.111.567.2.86.264.064.013.125.022.19.033.283.052.57.082.857.088h.078c.3-.004.6-.032.896-.084.086-.015.17-.037.258-.057a5.22 5.22 0 00.67-.198c.088-.032.175-.063.262-.1.296-.124.58-.275.848-.452l3.339-2.125A46.726 46.726 0 0026.062 58.27l.796-1.227a1.49 1.49 0 011.234-.665h8.93l-4.687 7.932-1.516 2.566-.007.014a5.472 5.472 0 001.592 7.359 5.36 5.36 0 007.553-1.786l8.048-13.415 8.365 9.403a5.031 5.031 0 004.665 1.59l8.963-1.692a5.588 5.588 0 004.998-5.706 4.31 4.31 0 00-1.436-3.385 4.376 4.376 0 00-3.58-1.064c-.19.028-.392.062-.605.102l-9.097 1.716a2.47 2.47 0 01-.72.018 5.304 5.304 0 00.983-6.555l-1.115-1.926-3.518-6.068a16.686 16.686 0 01-2.188-7.556l-.432-9.776a8.08 8.08 0 00-3.35-6.186 8.943 8.943 0 007.293-8.774 3.686 3.686 0 00-.42-1.694c.33-.316.612-.68.835-1.08a3.83 3.83 0 00.356-2.958A9.977 9.977 0 0047.78.146c-4.776 0-8.372 1.815-9.872 4.979a8.585 8.585 0 001.322 8.843c.026.435.086.867.18 1.292a8.056 8.056 0 00-5.484-.902l-10.99 2.103a6.003 6.003 0 00-2.97 1.514 8.094 8.094 0 00-.384 11.422l6.805 7.275-.086.208a41.772 41.772 0 01-3.53 6.623L15.85 54.018A26.348 26.348 0 017.962 61.8l-2.654 1.68-2.89 1.831-.028.02a5.293 5.293 0 00-.841 8.168zm5.41-1.358a2.852 2.852 0 01-3.19-4.73l1.875-1.18 3.271 4.67-1.955 1.24zm29.03.407a2.842 2.842 0 01-2.653-.738 3.096 3.096 0 01-.365-3.665l.601-1.02.317-.533 5.133 2.567-1.221 2.036a2.841 2.841 0 01-1.812 1.352v.001zm-1.5-39.237a2.84 2.84 0 01-.076 3.965h-.008a1.88 1.88 0 00-.07.076c-.08.068-.164.13-.25.188-.072.053-.138.112-.213.157-.075.045-.124.057-.181.087a2.7 2.7 0 01-.337.156l-.037.01c-.167.057-.34.098-.514.124a3.042 3.042 0 01-.578.021h-.008a2.841 2.841 0 01-1.9-.888l-.892-.955 4.039-4.037 1.025 1.096zm20.382 22.818l3.072-2.149.429.74a2.86 2.86 0 01.258 2.25 2.831 2.831 0 01-1.288 1.645l-2.471-2.486zm5.872 6.34l9.09-1.716c.18-.034.35-.064.511-.088a1.907 1.907 0 011.544.455c.41.36.633.886.61 1.43a3.132 3.132 0 01-2.963 3.343l-8.965 1.69a2.508 2.508 0 01-2.332-.793l-23.69-26.628c.214-.093.423-.2.624-.32l21.097 21.243a4.996 4.996 0 004.468 1.383h.006zM48.297 19.62a6.577 6.577 0 01-6.318-4.457h2.915a2.624 2.624 0 002.609-2.5h6.688c.133 0 .265-.007.397-.02.09.167.139.355.14.545a6.442 6.442 0 01-6.437 6.432h.006zM40.175 6.192c1.064-2.253 3.832-3.546 7.605-3.546 4.045 0 6.684 1.874 7.84 5.553.075.353.011.721-.177 1.028a1.897 1.897 0 01-1 .906 1.03 1.03 0 01-.25.032h-6.688a2.314 2.314 0 00-2.499 2.386.115.115 0 01-.112.113h-3.528a6.198 6.198 0 01-1.192-6.472h.001zM21.414 27.685a5.595 5.595 0 01.266-7.894 3.487 3.487 0 011.733-.874l10.989-2.103a5.57 5.57 0 014.053.773l4.748 3.017.155.099 4.854 3.087a5.592 5.592 0 012.576 4.472l.431 9.775a19.173 19.173 0 002.52 8.695l2.946 5.08-3.603 2.517-6.143-6.184a1.25 1.25 0 00.18-1.5l-.416-.715-.313-1.073a20.131 20.131 0 01-.799-4.862l-.136-2.874a1.25 1.25 0 00-2.316-.591l-2.941 4.828-3.267-3.287a5.294 5.294 0 00-.624-6.47l-3.508-3.748 1.583-3.75a1.25 1.25 0 00-1.318-1.714l-5.403.75c-.06.012-.118.029-.175.049-.038.011-.076.017-.114.033a1.23 1.23 0 00-.365.226c-.008.007-.019.008-.027.015-.007.009-.022.037-.037.053a1.227 1.227 0 00-.212.298c-.015.031-.034.059-.047.091-.014.032-.022.035-.03.055-.039.117-.062.24-.067.363v.048c.001.13.022.259.061.382.01.033.022.063.034.095.054.141.133.27.234.383l3.499 3.748.018.013 1.327 1.396-4.043 4.042-6.303-6.744zM9.3 63.905a28.832 28.832 0 008.633-8.516l6.925-10.52a44.656 44.656 0 003.385-6.22l.25.265a5.308 5.308 0 003.03 1.606l14.746 16.57-5.95 9.919-5.148-2.574 5.123-8.664a1.25 1.25 0 00-1.076-1.886H28.096a3.998 3.998 0 00-3.318 1.787l-.802 1.236A43.935 43.935 0 0111.01 69.543l-3.26-4.655 1.55-.983zm9.465-61.259H32.51a1.25 1.25 0 100-2.499H18.765a1.25 1.25 0 000 2.5z"/><path d="M32.51 5.145h-6.248a1.25 1.25 0 000 2.499h6.248a1.25 1.25 0 100-2.5zM11.267 37.634h8.747a1.25 1.25 0 000-2.499h-8.747a1.25 1.25 0 100 2.5zm8.747 2.499h-3.749a1.25 1.25 0 000 2.5h3.75a1.25 1.25 0 000-2.5z"/></g><defs><clipPath id="clip0"><path fill="#fff" transform="translate(0 .104)" d="M0 0h75v75H0z"/></clipPath></defs></svg>