<svg width="76" height="76" fill="none" xmlns="http://www.w3.org/2000/svg"><g clip-path="url(#clip0)" fill="#000"><path d="M42.794 21.555c-1.252-1.251-3.448-.372-4.17-.083-1.52.609-3.429 1.709-5.675 3.27-4.54 3.152-10.06 7.91-15.545 13.395C12.34 43.2 7.826 48.377 4.693 52.716a1.098 1.098 0 101.78 1.286c3.068-4.246 7.501-9.329 12.484-14.311 5.18-5.18 10.422-9.728 14.763-12.807 5.543-3.932 7.252-3.816 7.51-3.765.052.259.166 1.967-3.765 7.51-3.08 4.34-7.627 9.583-12.807 14.763-5.18 5.179-10.423 9.727-14.763 12.806-5.546 3.934-7.253 3.818-7.51 3.765-.04-.186-.116-1.125 1.362-3.767a1.099 1.099 0 00-1.918-1.073C.016 60.366-.304 62.401.822 63.527l11.36 11.36c.49.49 1.125.654 1.76.654.985 0 1.97-.394 2.41-.57 1.519-.609 3.429-1.709 5.675-3.27 4.54-3.152 10.06-7.91 15.545-13.395a1.099 1.099 0 10-1.553-1.554c-5.18 5.18-10.423 9.728-14.763 12.807-5.813 4.123-7.409 3.795-7.537 3.758l-9.443-9.443c.298-.098.547-.197.715-.264C6.51 63 8.42 61.9 10.666 60.34c4.54-3.152 10.06-7.91 15.546-13.395 5.485-5.486 10.243-11.006 13.396-15.546 1.56-2.246 2.66-4.155 3.269-5.675.067-.168.166-.417.263-.715l9.444 9.443c.035.118.315 1.456-2.811 6.16-2.35 3.535-5.976 7.968-10.21 12.48a1.098 1.098 0 101.603 1.504c4.519-4.817 8.335-9.52 10.746-13.24 2.866-4.422 3.578-7.104 2.242-8.44l-11.36-11.36z"/><path d="M34.295 55.029c.415-.443.43-1.125 0-1.554l-4.353-4.352a1.099 1.099 0 00-1.553 1.553l4.353 4.353c.428.428 1.169.41 1.553 0zm5.7-7.253l-4.352-4.353a1.099 1.099 0 10-1.554 1.553l4.353 4.353a1.099 1.099 0 001.553-1.553zm-.932-10.779a1.099 1.099 0 000 1.554l4.353 4.352a1.099 1.099 0 001.554-1.553l-4.353-4.353a1.099 1.099 0 00-1.554 0zm10.467-.933a1.1 1.1 0 000-1.554l-4.353-4.353a1.099 1.099 0 00-1.554 1.554l4.353 4.353c.383.353 1.167.398 1.554 0zM27.042 60.73a1.099 1.099 0 001.553-1.555l-4.352-4.352a1.099 1.099 0 00-1.554 1.553l4.353 4.353zm-9.225-.933a1.099 1.099 0 00-1.554 1.554l4.353 4.353a1.099 1.099 0 001.554-1.554l-4.353-4.353zm-8.394 4.56a1.099 1.099 0 000 1.554l4.353 4.353a1.099 1.099 0 001.554-1.554l-4.353-4.353a1.099 1.099 0 00-1.554 0zM41.99 16.252c.28 0 .562-.107.776-.321L53.287 5.41a1.099 1.099 0 00-1.554-1.554l-10.52 10.521a1.099 1.099 0 00.776 1.875zm9.021-.837a1.096 1.096 0 001.554 0L64.118 3.862a1.099 1.099 0 10-1.554-1.554L51.01 13.862a1.099 1.099 0 000 1.554zM70.3 22.422L59.779 32.943a1.099 1.099 0 001.554 1.554l10.52-10.521a1.099 1.099 0 00-1.553-1.554zm1.547-10.83L60.295 23.144a1.099 1.099 0 101.553 1.554l11.553-11.553a1.099 1.099 0 00-1.554-1.553zM74.845.865a1.099 1.099 0 00-1.554 0L60.707 13.448a1.099 1.099 0 001.554 1.554L74.845 2.418a1.099 1.099 0 000-1.553z"/></g><defs><clipPath id="clip0"><path fill="#fff" transform="translate(.167 .542)" d="M0 0h75v75H0z"/></clipPath></defs></svg>