<svg width="76" height="76" fill="none" xmlns="http://www.w3.org/2000/svg"><path d="M2.837 47.404a9.18 9.18 0 001.298.75c.541.276 1.446.738 1.51 1.063.08.427.028.868-.146 1.265-.187.4-.383.744-.55 1.042-.46.807-1.224 2.16-.07 3.106.27.25.737.611 1.163.937a3.15 3.15 0 00-.407 1.804 1.8 1.8 0 00.734 1.225c.28.2.582.375.875.544.735.419 1.022.614 1.125 1 .067.508.02 1.026-.138 1.514-.074.325-.145.648-.191.98a7.347 7.347 0 00.422 3.368 4.684 4.684 0 004.43 3.413 5.086 5.086 0 001.02-.108 94.882 94.882 0 0010.54-3.153c2.814 1.652 4.594 6.677 5.058 8.563.139.558.64.948 1.214.948l31.375-.088a1.25 1.25 0 001.19-1.625 9.658 9.658 0 00-1.267-2.375c-.3-.43-.57-.882-.81-1.35a23.791 23.791 0 01-1.41-3.558 42.126 42.126 0 01-1.48-7.395 21.161 21.161 0 011.643-10.977 27.934 27.934 0 013.395-5.366c.75-1.012 1.529-2.061 2.227-3.162a19.335 19.335 0 002.575-6.088 1.25 1.25 0 00-2.435-.565 16.876 16.876 0 01-2.25 5.313c-.648 1.026-1.398 2.036-2.125 3.013a30.207 30.207 0 00-3.678 5.857 23.648 23.648 0 00-1.833 12.275c.288 2.656.816 5.28 1.576 7.84.411 1.346.93 2.655 1.552 3.916.285.563.608 1.106.968 1.625l.084.125-28.352.085a19.933 19.933 0 00-4.402-7.983l1.125-.39c.84-.295 1.474-.516 1.802-.626 5.352-1.706 8.03-4.144 7.956-7.25a1.227 1.227 0 00-1.276-1.214 1.25 1.25 0 00-1.22 1.28c.03 1.278-1.024 3.15-6.22 4.805-.34.11-1 .338-1.864.642-.929.323-2.106.736-3.406 1.177h-.01a97.36 97.36 0 01-10.742 3.25 2.226 2.226 0 01-2.575-1.664 5.001 5.001 0 01-.308-2.215c.036-.25.095-.512.152-.767a5.455 5.455 0 00.125-2.691A4.143 4.143 0 008.5 56.967l-.27-.153a4.6 4.6 0 01.483-.775 1.25 1.25 0 00-.24-1.78c-.3-.22-1-.75-1.526-1.168.06-.109.125-.229.189-.336.196-.345.421-.75.639-1.209a4.666 4.666 0 00.332-2.796c-.299-1.525-1.76-2.273-2.826-2.818a7.226 7.226 0 01-1.03-.598 5.325 5.325 0 01-.75-.608c0-.19.204-.649 1.155-1.807a50.432 50.432 0 005.719-9.294 3.72 3.72 0 00.482-1.69 4.375 4.375 0 00-1.834-3.125c-.506-.465-.985-.903-1.038-1.271.011-.307.08-.608.202-.89.204-.534.44-1.06.675-1.585a18.333 18.333 0 001.25-3.39c.287-1.4.662-2.781 1.125-4.134a21.43 21.43 0 014.485-7.326c2.39-2.532 6.153-4.322 11.203-5.324A81.227 81.227 0 0138.65 3.2a27.36 27.36 0 013.981.085A1.253 1.253 0 0042.865.79 30.407 30.407 0 0038.52.704a83.439 83.439 0 00-12.09 1.735c-5.636 1.125-9.733 3.1-12.528 6.056a23.91 23.91 0 00-5.015 8.179 36.539 36.539 0 00-1.23 4.517 16.189 16.189 0 01-1.073 2.85c-.25.569-.508 1.138-.733 1.729a4.368 4.368 0 00-.34 2.099A4.807 4.807 0 007.34 30.65c.612.561 1.016.956 1.021 1.301-.045.19-.117.373-.212.543a48.25 48.25 0 01-5.47 8.889c-.905 1.103-1.855 2.39-1.657 3.677a3.83 3.83 0 001.815 2.343z" fill="#202020"/><path d="M15.922 19.276c.753-2.087 1.92-4 3.43-5.625 1.667-1.763 4.548-3.062 8.565-3.86a1.25 1.25 0 00-.486-2.453c-4.536.902-7.865 2.447-9.895 4.592a18.949 18.949 0 00-3.96 6.485 31.784 31.784 0 00-1.026 3.814l2.441.541c.24-1.182.55-2.349.931-3.494zM42.074 7.665l-.75 3.74c-.723.238-1.427.53-2.105.875l-3.174-2.125a2.5 2.5 0 00-3.14.326l-2.075 2.074a2.5 2.5 0 00-.33 3.169l2.115 3.159a14.867 14.867 0 00-.875 2.105l-3.735.75A2.5 2.5 0 0026 24.19v2.95a2.5 2.5 0 002 2.451l3.74.75c.237.723.53 1.427.875 2.105L30.49 35.62a2.5 2.5 0 00.326 3.14l2.075 2.075c.842.852 2.169.99 3.168.329l3.159-2.115c.678.345 1.381.637 2.104.875l.75 3.735a2.5 2.5 0 002.453 2.006h2.95a2.5 2.5 0 002.451-2l.75-3.74a14.9 14.9 0 002.105-.875l3.174 2.125a2.5 2.5 0 003.14-.326l2.074-2.074a2.5 2.5 0 00.33-3.169l-2.115-3.158a14.9 14.9 0 00.875-2.105l3.735-.75a2.49 2.49 0 001.721-1.303l1.884 1.263c.363.229.784.35 1.213.35.6 0 1.174-.238 1.597-.663l1.662-1.662a2.27 2.27 0 00.291-2.843l-1.612-2.412c.234-.47.436-.956.605-1.453l2.829-.564A2.25 2.25 0 0076 18.09v-2.35a2.25 2.25 0 00-1.806-2.214l-2.841-.566a11.577 11.577 0 00-.603-1.452l1.638-2.442a2.259 2.259 0 00-.313-2.81l-1.663-1.662a2.269 2.269 0 00-2.842-.291l-2.412 1.612c-.47-.234-.956-.436-1.453-.605l-.565-2.829A2.25 2.25 0 0060.925.665h-2.35a2.25 2.25 0 00-2.214 1.806l-.566 2.842c-.497.168-.983.371-1.453.606l-2.44-1.638a2.261 2.261 0 00-2.81.313l-1.126 1.125a2.562 2.562 0 00-.491-.054h-2.95a2.5 2.5 0 00-2.451 2zm19.11 4.9l-.584-.584a4.974 4.974 0 011.554 9.384l-1.898-.375a14.89 14.89 0 00-.875-2.105l2.125-3.174a2.5 2.5 0 00-.322-3.142v-.004zM50.72 6.495l2.858 1.92c.4.269.92.283 1.335.036a9.143 9.143 0 012.287-.956 1.25 1.25 0 00.9-.962l.672-3.368h1.954L61.4 6.54c.093.466.441.839.9.963a9.146 9.146 0 012.287.956 1.25 1.25 0 001.335-.044l2.858-1.917 1.387 1.387-1.916 2.859c-.269.4-.283.92-.036 1.335.42.715.743 1.485.956 2.287.124.459.497.808.962.9l3.375.672v1.955l-3.368.67a1.25 1.25 0 00-.963.9 9.147 9.147 0 01-.956 2.288 1.25 1.25 0 00.036 1.335l1.918 2.858-1.388 1.387L66 25.468V24.19a2.51 2.51 0 00-.875-1.904 7.483 7.483 0 00-5.212-12.871 7.233 7.233 0 00-2.224.365 2.535 2.535 0 00-1.75.385l-3.157 2.115a14.877 14.877 0 00-2.104-.875l-.75-3.735a2.32 2.32 0 00-.087-.295l.88-.88zm-7.096 6.141l.9-4.47h2.95l.899 4.474c.093.464.441.836.898.96a12.34 12.34 0 012.952 1.225c.413.24.926.223 1.322-.042l3.783-2.53 2.095 2.083-2.538 3.787a1.25 1.25 0 00-.042 1.322c.535.926.946 1.918 1.225 2.951.124.458.495.806.96.9l4.471.893v2.951l-4.475.899a1.25 1.25 0 00-.96.899 12.314 12.314 0 01-1.225 2.95 1.25 1.25 0 00.042 1.323l2.53 3.783-2.083 2.095-3.787-2.538a1.25 1.25 0 00-1.322-.042c-.926.535-1.919.946-2.951 1.225a1.25 1.25 0 00-.899.96l-.895 4.471h-2.95l-.899-4.475a1.25 1.25 0 00-.898-.96 12.319 12.319 0 01-2.952-1.225 1.25 1.25 0 00-1.322.043l-3.783 2.53-2.095-2.084 2.538-3.786a1.25 1.25 0 00.042-1.323 12.313 12.313 0 01-1.225-2.951 1.25 1.25 0 00-.96-.899l-4.47-.895v-2.95l4.475-.899a1.25 1.25 0 00.96-.898 12.3 12.3 0 011.225-2.952 1.25 1.25 0 00-.042-1.322l-2.53-3.783 2.083-2.095 3.787 2.538c.396.265.91.282 1.322.042a12.313 12.313 0 012.951-1.225 1.25 1.25 0 00.894-.96z" fill="#202020"/><path d="M46 34.416a8.75 8.75 0 10-8.75-8.75 8.76 8.76 0 008.75 8.75zm0-15a6.25 6.25 0 11-6.25 6.25 6.258 6.258 0 016.25-6.25z" fill="#202020"/><path d="M46 26.916a1.25 1.25 0 100-2.5 1.25 1.25 0 000 2.5zm-33.75 1.25a1.25 1.25 0 100-2.5 1.25 1.25 0 000 2.5z" fill="#202020"/></svg>