<svg width="75" height="76" fill="none" xmlns="http://www.w3.org/2000/svg"><g clip-path="url(#clip0)" fill="#202020"><path d="M33.767 14.361h7.466a1.099 1.099 0 100-2.197h-7.466a1.099 1.099 0 100 2.197z"/><path d="M56.177 45.68H45.935a.124.124 0 01-.077-.117v-4.361c3.142-2.29 5.698-5.597 5.985-9.498l.02-.268 1.149-.128a3.417 3.417 0 003.043-3.4v-16.34a3.217 3.217 0 00-3.213-3.213h-1.254A13.859 13.859 0 0038.933.126h-2.866c-5.608 0-10.494 3.363-12.656 8.23h-1.253a3.217 3.217 0 00-3.214 3.213v16.339a3.418 3.418 0 003.044 3.4l1.149.128.02.267c.287 3.903 2.84 7.206 5.985 9.499v4.361a.126.126 0 01-.078.116H18.823c-5.322 0-9.653 4.33-9.653 9.653v18.195c0 .882.718 1.6 1.6 1.6h53.46c.882 0 1.6-.718 1.6-1.6V55.332c0-5.323-4.33-9.653-9.653-9.653zm-9.515 7.026a11.05 11.05 0 01-3.63 3.49l-.661-1.316a9.444 9.444 0 004.495-7.004h1.476a10.77 10.77 0 01-1.68 4.83zm-12.03 3.083a9.493 9.493 0 005.736 0l.666 1.326a11.02 11.02 0 01-7.068 0l.666-1.326zM52.77 29.124l-.743.083.16-2.169c.48.079.752.04 1.671.05v.82c0 .624-.468 1.147-1.088 1.216zm1.088-4.234H52.8c-.872 0-1.58-.709-1.58-1.58v-3.768c0-.4-.072-.783-.201-1.138h1.604c.681 0 1.235.554 1.235 1.235v5.251zM36.068 2.324h2.865c.868 0 1.727.096 2.568.286l-.478.717a1.27 1.27 0 01-1.059.566h-4.928a1.27 1.27 0 01-1.059-.566L33.5 2.61c.84-.19 1.7-.286 2.568-.286zm-13.91 8.229h19.318a1.099 1.099 0 100-2.198H25.863a11.708 11.708 0 015.474-5.028l.812 1.218a3.462 3.462 0 002.887 1.545h4.928a3.462 3.462 0 002.887-1.545l.812-1.218a11.707 11.707 0 015.474 5.028h-2.534a1.099 1.099 0 100 2.198h6.239c.56 0 1.016.455 1.016 1.016v4.867c-.383-.148-.8-.23-1.235-.23H22.377c-.435 0-.852.082-1.235.23V11.57c0-.56.456-1.016 1.016-1.016zm1.623 8.99v3.767c0 .871-.71 1.58-1.58 1.58h-1.06v-5.25c0-.681.555-1.235 1.236-1.235h1.604c-.13.355-.2.739-.2 1.138zm-1.55 9.581a1.223 1.223 0 01-1.09-1.216v-.82c.93-.011 1.194.028 1.672-.05l.16 2.169-.743-.083zm3.129 2.559l9.6 1.066a23.07 23.07 0 005.08 0l2.2-.245a1.099 1.099 0 10-.243-2.183l-2.199.244a20.86 20.86 0 01-4.596 0l-10.008-1.112-.26-3.538a3.764 3.764 0 001.044-2.605v-3.768a1.14 1.14 0 011.139-1.139h20.766a1.14 1.14 0 011.139 1.14v3.767c0 1.009.398 1.927 1.044 2.605l-.26 3.538-2.627.292a1.098 1.098 0 10.243 2.184l2.218-.247c-.558 6.086-8.347 10.59-12.14 10.59-4.038 0-11.6-4.695-12.14-10.59zM37.5 44.469c1.764 0 4.005-.701 6.161-1.877v2.971c0 .798.408 1.514 1.036 1.933-.37 3.859-3.633 6.547-7.203 6.547-4.005 0-6.863-3.139-7.19-6.547a2.326 2.326 0 001.035-1.933v-2.97c2.156 1.175 4.397 1.876 6.161 1.876zm-9.366 3.407a9.445 9.445 0 004.495 7.004l-.66 1.316a11.05 11.05 0 01-3.625-3.48 10.766 10.766 0 01-1.686-4.84h1.476zm-8.675 21.391h-8.091v-1.465h8.091v1.465zm0-3.662h-8.091V64.14h8.091v1.465zm-8.091 5.86h8.091v1.464h-8.091v-1.465zm18.445-1.812c0-1.904 3.157-4.026 7.687-4.026s7.686 2.122 7.686 4.026c0 1.26-1.26 2.504-3.302 3.276h-8.768c-2.042-.772-3.303-2.017-3.303-3.276zm23.53 3.276h-7.389c.925-.957 1.43-2.08 1.43-3.276 0-3.49-4.342-6.224-9.884-6.224-5.542 0-9.884 2.734-9.884 6.224 0 1.195.505 2.319 1.43 3.276h-7.39V59.836a1.099 1.099 0 10-2.197 0v2.107h-8.091V58.79l6.763-1.813a1.099 1.099 0 00-.568-2.122l-6.195 1.66v-1.184c0-4.11 3.344-7.455 7.455-7.455h5.63a12.96 12.96 0 001.327 4.777l-3.216.862a1.099 1.099 0 00.57 2.122l3.85-1.031c5.24 7.032 15.76 7.074 21.032 0l15.616 4.184v3.153H55.54v-2.107a1.099 1.099 0 10-2.197 0V72.93zm10.29-7.324H55.54V64.14h8.092v1.465zm-8.093 2.197h8.092v1.465h-8.091v-1.465zm8.092 5.127h-8.091v-1.465h8.091v1.465zm0-16.414L49.22 52.653a12.96 12.96 0 001.327-4.777h5.63c4.11 0 7.455 3.345 7.455 7.456v1.183z"/><path d="M42.279 69.278c0-.607-.492-1.099-1.099-1.099h-7.36a1.098 1.098 0 100 2.197h7.36c.607 0 1.099-.491 1.099-1.098z"/></g><defs><clipPath id="clip0"><path fill="#fff" transform="translate(0 .126)" d="M0 0h75v75H0z"/></clipPath></defs></svg>