<svg width="129" height="118" fill="none" xmlns="http://www.w3.org/2000/svg"><path d="M15.048 18h-3.6v-5.7h-5V18h-3.6V4h3.6v5.5h5V4h3.6v14zm13.01-3c0 1-.287 1.787-.86 2.36-.56.56-1.34.84-2.34.84h-4.6c-1 0-1.787-.28-2.36-.84-.56-.573-.84-1.36-.84-2.36v-4.6c0-1 .28-1.78.84-2.34.573-.573 1.36-.86 2.36-.86h4.6c1 0 1.78.287 2.34.86.573.56.86 1.34.86 2.34V15zm-3.5-4.3c0-.533-.267-.8-.8-.8h-2.4c-.534 0-.8.267-.8.8v4c0 .533.267.8.8.8h2.4c.533 0 .8-.267.8-.8v-4zm14.697 7.1c-2.493.267-4.693.4-6.6.4-.906 0-1.633-.273-2.18-.82-.546-.547-.82-1.273-.82-2.18v-4.6c0-1 .28-1.78.84-2.34.574-.573 1.36-.86 2.36-.86h6.4v2.7h-5.3c-.533 0-.8.267-.8.8v3.9a.68.68 0 00.7.7c1.2 0 3-.1 5.4-.3v2.6zm5.097-4V18h-3.5V4h3.5v7.1h1.6l2.2-3.7h3.7l-3 5.1 3 5.5h-3.7l-2.3-4.2h-1.5zm12.396-4.1c-.533 0-.8.267-.8.8v1.1h3.4v-1.1c0-.533-.266-.8-.8-.8h-1.8zm5.7 8.1c-2.573.267-4.906.4-7 .4-.906 0-1.633-.273-2.18-.82-.546-.547-.82-1.273-.82-2.18v-4.8c0-1 .28-1.78.84-2.34.574-.573 1.36-.86 2.36-.86h4c1 0 1.78.287 2.34.86.574.56.86 1.34.86 2.34v3.7h-6.9v.8a.68.68 0 00.7.7c1.32 0 3.254-.1 5.8-.3v2.5zm4.797 3.8c-.706 0-1.573-.067-2.6-.2v-2.6h1.8c.507 0 .834-.14.98-.42.16-.28.134-.673-.08-1.18l-4.1-9.8h3.7l2.5 6.8 2.1-6.8h3.7l-4 11c-.386 1.053-.886 1.847-1.5 2.38-.613.547-1.446.82-2.5.82zM93.148 18h-11.1V4h11.1v2.8h-7.5v2.7h5.9v2.8h-5.9v2.9h7.5V18zm6.795 0c-.893.133-1.747.2-2.56.2-.8 0-1.473-.273-2.02-.82-.547-.547-.82-1.273-.82-2.18V4h3.5v10.7c0 .2.067.367.2.5s.3.2.5.2h1.2V18zm5.797-10.2V18h-3.5v-7.5h-1.5V7.8h5zm-3.5-4h3.5v2.8h-3.5V3.8zM115.146 18c-1.293.133-2.56.2-3.8.2-.907 0-1.633-.273-2.18-.82-.547-.547-.82-1.273-.82-2.18v-5.1h-1.2V7.4h1.2l.4-2.4h3.1v2.4h2.5v2.7h-2.5v4.6a.68.68 0 00.7.7h2.6V18zm5.313-8.3c-.533 0-.8.267-.8.8v1.1h3.4v-1.1c0-.533-.266-.8-.8-.8h-1.8zm5.7 8.1c-2.573.267-4.906.4-7 .4-.906 0-1.633-.273-2.18-.82-.546-.547-.82-1.273-.82-2.18v-4.8c0-1 .28-1.78.84-2.34.574-.573 1.36-.86 2.36-.86h4c1 0 1.78.287 2.34.86.574.56.86 1.34.86 2.34v3.7h-6.9v.8a.68.68 0 00.7.7c1.32 0 3.254-.1 5.8-.3v2.5zM45.605 42h-3.6V30.8h-4.2V28h12v2.8h-4.2V42zm8.507-8.3c-.534 0-.8.267-.8.8v1.1h3.4v-1.1c0-.533-.267-.8-.8-.8h-1.8zm5.7 8.1c-2.574.267-4.907.4-7 .4-.907 0-1.634-.273-2.18-.82-.547-.547-.82-1.273-.82-2.18v-4.8c0-1 .28-1.78.84-2.34.573-.573 1.36-.86 2.36-.86h4c1 0 1.78.287 2.34.86.573.56.86 1.34.86 2.34v3.7h-6.9v.8c0 .2.066.367.2.5.133.133.3.2.5.2 1.32 0 3.253-.1 5.8-.3v2.5zm6.392-2.4c.707 0 1.507-.133 2.4-.4v-1.2h-2.9c-.2 0-.367.067-.5.2s-.2.3-.2.5v.2c0 .2.067.367.2.5s.3.2.5.2h.5zm-3.7-7.8c2.44-.267 4.64-.4 6.6-.4.907 0 1.633.273 2.18.82.547.547.82 1.273.82 2.18V42h-3.1l-.2-1a7.359 7.359 0 01-1.94.92c-.653.187-1.207.28-1.66.28h-.7c-.907 0-1.633-.273-2.18-.82-.547-.547-.82-1.273-.82-2.18v-.9c0-.907.273-1.633.82-2.18.547-.547 1.273-.82 2.18-.82h4.1v-.8a.68.68 0 00-.2-.5.678.678 0 00-.5-.2 38.3 38.3 0 00-2.88.12c-1.04.08-1.88.14-2.52.18v-2.5zm18.494-.4c1.08 0 1.914.4 2.5 1.2a6.486 6.486 0 011.98-.9c.72-.2 1.36-.3 1.92-.3h.2c.907 0 1.634.273 2.18.82.547.547.82 1.273.82 2.18V42h-3.5v-7.2c0-.2-.066-.367-.2-.5a.678.678 0 00-.5-.2h-.1c-.6 0-1.366.133-2.3.4V42h-3.5v-7.2c0-.2-.066-.367-.2-.5a.678.678 0 00-.5-.2h-.1c-.6 0-1.366.133-2.3.4V42h-3.5V31.4h3.1l.2 1a6.96 6.96 0 011.92-.9c.667-.2 1.227-.3 1.68-.3h.2z" fill="#fff"/><path d="M65.356 118c-.352 0-.732-.008-1.16-.025h-.038l-.029-.003a29.748 29.748 0 01-1.782-.126l-.05-.005a23.15 23.15 0 01-.627-.072s-.208-.024-.266-.032a31.651 31.651 0 01-1.012-.153h-.034l-.11-.025a32.595 32.595 0 01-.767-.144l-.168-.034a30.474 30.474 0 01-2.117-.516l-.383-.111-.317-.096c-.194-.06-.388-.12-.58-.184-.104-.034-.207-.07-.31-.106l-.14-.049c-.124-.043-.249-.086-.372-.131a29.55 29.55 0 01-1.02-.393l-.242-.097-.29-.124-.045-.019c-.138-.059-.276-.118-.413-.179a30.544 30.544 0 01-1.52-.73c-.172-.088-.343-.18-.514-.271a30.703 30.703 0 01-2.45-1.475l-.15-.1a29.284 29.284 0 01-1.349-.966l-.218-.166a30.657 30.657 0 01-2.502-2.158h-.01l-.536-.538-.002-.003a20.63 20.63 0 01-.327-.337l-.023-.002.004.027-1.709-.178-.432-.049a27.096 27.096 0 01-.863-.095l-.011.013-.745-.112-.13-.015.01.053-.857-.153-.16-.019-.002-.01-.866-.155-.415-.078-.194-.038a80.303 80.303 0 01-.672-.118s-.18-.037-.413-.088l-.007.009-.405-.087-2.155-.393.043-.059-.46-.114-.724-.161-.003-.018-3.332-1.146a4.007 4.007 0 01-1.977-3.658c.038-.546.323-3.213 2.247-4.013a3.76 3.76 0 011.315-.31l2.124.382.556.189c.283.094.608.204.978.33 0 0 .77.263 1.106.376l.928.31c.343.114.668.22.972.317l.324.1-.015-.043a30.412 30.412 0 01-.96-2.54c-.036-.063-.608-2.01-.612-2.117-.08-.322-.16-.668-.241-1.052l-.048-.235h-4.718l5.053-15.654h.529c.014-.042.151-.459.174-.525.069-.198.14-.398.214-.598l.041-.115c.113-.304.23-.608.353-.91l.07-.163a30.283 30.283 0 011.767-3.58l.074-.123a28.825 28.825 0 01.54-.884l.014-.023c.117-.185.24-.375.364-.562l.195-.287a27.044 27.044 0 01.843-1.174l.204-.268c.081-.105.16-.205.239-.305a2.13 2.13 0 01-.269-.12l-.053-.03a5.943 5.943 0 01-.209-.129l-.795-.514a2.235 2.235 0 01-.519-.459 2.145 2.145 0 01-.463-1.72 2.122 2.122 0 01.582-1.131l.372-.4.638-.68.663-.7.178-.184a2.12 2.12 0 011.521-.653c.54 0 1.059.205 1.463.579.108.102.202.208.287.323l.602.83c.064.085.21.284.315.559l.01-.009c.216-.18.43-.355.648-.526l.215-.17c.142-.11.283-.219.425-.325l.206-.151c.34-.25.68-.49 1.01-.714l.25-.165a30.92 30.92 0 011.464-.91l.244-.14c.525-.3 1.056-.583 1.574-.839.1-.05.333-.162.333-.162l.268-.128h.004l.182-.085a30.049 30.049 0 013.112-1.228 30.407 30.407 0 011.629-.49l.139-.039c.27-.072.541-.138.813-.202l.027-.006c.288-.068.59-.134.892-.195l.227-.046c.28-.055.562-.106.844-.152l.1-.016c.278-.045.545-.084.812-.12l.235-.03c.291-.037.582-.07.874-.098l.143-.013c.304-.027.61-.05.916-.068l.09-.006A27.564 27.564 0 0165.294 57l.395.002c.246.003.49.01.735.018l.189.006c.34.015.68.036 1.019.062l.062.005c.24.02.474.04.708.064l.26.028c.244.027.486.056.727.09h.112l.086.026c.61.088 1.224.197 1.842.324l.14.029c.278.059.557.122.835.19l.214.053a29.943 29.943 0 011.43.395l.19.058c.35.109.707.227 1.063.352l.17.06c.19.068.379.138.568.21l.12.046c.367.141.712.282 1.05.426l.107.047c.188.081.374.164.558.248l.138.064c.263.122.525.248.784.377l.165.08c.483.245.985.518 1.492.811l.093.055c.553.323 1.092.66 1.608 1.005.077.051.155.105.232.158.572.39 1.135.804 1.678 1.232a2.33 2.33 0 01.298-.515l.596-.822c.093-.126.187-.232.288-.326.41-.381.93-.587 1.47-.587a2.128 2.128 0 011.525.657l.168.176.664.7.639.68.38.408c.045.05.097.106.154.178.225.292.367.615.424.951a2.16 2.16 0 01-.986 2.18l-.791.511c-.07.045-.138.088-.208.13l-.055.03-.06.03c.301.36.59.72.86 1.076l.095.128c.148.196.302.405.453.617.07.097.138.196.207.295.115.165.228.332.34.5l.076.113a29.565 29.565 0 011.1 1.795l.101.186c.134.24.263.476.387.714.028.053.053.105.079.157l.042.084c.113.223.227.448.336.675.143.3.287.614.427.933l.025.05.011.034c.128.294.249.583.364.874l.074.194c.096.248.192.495.281.743.033.091.064.183.095.275l.098.286c.045.129.09.258.132.388l.002.009h7.873l-6.535 12.539a31.41 31.41 0 01-.193 1.53l-.035.231a36.4 36.4 0 01-.148.866v.013l-.026.123c-.019.097-.038.193-.059.29l-.016.08c-.033.157-.066.319-.102.48-.044.199-.09.397-.137.595l-.057.226c-.122.489-.258.978-.403 1.455l-.042.14-.093.293c-.063.196-.128.391-.194.586l-.048.14a26.32 26.32 0 01-.143.4l-.066.18a30.09 30.09 0 01-.486 1.228l-.048.114c-.069.16-.138.32-.209.48.235-.076.488-.158.753-.246l.929-.31 1.1-.374c.371-.127.697-.238.985-.334l2.69-.567c.428.02.846.119 1.3.308 1.876.78 2.194 3.259 2.247 4.013a4.004 4.004 0 01-1.996 3.669l-3.369 1.115-.004.015-.599.134-.146.036-1.959.463-.496.097c-.424.093-.716.155-.793.172l-.048.01c-.062.011-.317.057-.695.122l-.178.036-2.348.436.014-.068-.1.012-.942.149-.014-.027a23.57 23.57 0 01-.662.071l-1.997.227-.167.165c-.157.153-.313.303-.472.451l-.199.186c-.2.183-.403.367-.608.546l-.093.08c-.21.181-.422.359-.636.534l-.18.146c-.396.318-.795.625-1.189.912l-.627.444-.313.212-.002.003-.611.401h-.006l-.443.278a30.9 30.9 0 01-3.386 1.795l-.112.049c-.24.108-.482.211-.726.312l-.223.091a29.492 29.492 0 01-2.54.903l-.15.046c-.239.071-.488.143-.738.211l-.257.07c-.271.071-.543.14-.817.204l-.05.011c-.968.224-1.957.402-2.94.529l-.085.011c-.275.034-.55.064-.826.091l-.252.022c-.224.02-.448.038-.672.052l-.266.018a30.333 30.333 0 01-1.72.051z" fill="#0C1423"/><path d="M101.688 102.605c-.017-.234-.199-2.378-1.442-2.895-.762-.316-1.284-.276-2.524.113l.002-.009-.556.189c-.286.095-.609.205-.975.33l-.037.012-1.073.365-.932.311c-.35.116-.68.223-.987.322l-1.697.523-.239.069-.782.189c.136-.238.272-.477.403-.719.158-.295.31-.593.458-.892l.066-.136c.09-.182.176-.365.262-.549.043-.094.087-.188.129-.283.086-.19.168-.382.25-.573l.027-.063c.13-.31.256-.62.375-.933.044-.114.084-.228.126-.342.056-.151.11-.301.163-.452l.046-.137c.074-.217.146-.436.216-.654l.1-.32c.14-.461.268-.925.384-1.39v-.002c.019-.073.038-.145.055-.217a28.657 28.657 0 00.229-1.033c.024-.117.05-.233.072-.35l.002-.008v-.001a28.79 28.79 0 00.198-1.17c.085-.571.157-1.143.209-1.717l5.648-10.839H93.19a28.767 28.767 0 00-.281-.918c-.056-.172-.116-.342-.175-.512-.045-.132-.088-.264-.135-.395a28.472 28.472 0 00-.27-.711l-.07-.186c-.117-.295-.24-.587-.366-.878l-.003-.007-.001-.003a29.314 29.314 0 00-.421-.921 29.38 29.38 0 00-.322-.646c-.04-.076-.076-.154-.115-.23a28.622 28.622 0 00-.384-.707c-.028-.05-.054-.103-.083-.153a28.521 28.521 0 00-1.124-1.825v-.001a29.538 29.538 0 00-.965-1.36l-.083-.113a29.13 29.13 0 00-1.002-1.241l-.162-.187a30.73 30.73 0 00-.741-.827l.826-.799a.786.786 0 00.706-.017l.01-.005c.053-.031.105-.064.159-.1l.084-.053.55-.356.154-.1a.937.937 0 00.22-.19.82.82 0 00.185-.66.792.792 0 00-.156-.35 1.417 1.417 0 00-.088-.102l-.376-.403-.634-.676-.658-.694-.172-.179a.807.807 0 00-.356-.218.828.828 0 00-.8.198.965.965 0 00-.125.141l-.415.572-.186.258a.93.93 0 00-.165.306.898.898 0 00.07.68l.017.03-.825.796a29 29 0 00-1.251-1.042 28.79 28.79 0 00-1.606-1.18l-.225-.153a29.09 29.09 0 00-1.533-.96l-.096-.055a29.061 29.061 0 00-1.428-.775 28.965 28.965 0 00-.908-.438l-.131-.061a27.54 27.54 0 00-.534-.238l-.103-.045a29.4 29.4 0 00-.981-.4l-.14-.052c-.18-.069-.362-.136-.544-.201l-.162-.058c-.336-.118-.675-.23-1.016-.336h-.001a27.43 27.43 0 00-.663-.197l-.268-.074c-.205-.056-.41-.11-.617-.162l-.206-.052a29.569 29.569 0 00-.802-.182l-.132-.026a28.73 28.73 0 00-1.816-.318l-.047-.006H69.3c-.26-.037-.52-.068-.781-.098l-.25-.026a28.237 28.237 0 00-.673-.061l-.063-.005a31.74 31.74 0 00-.976-.06l-.18-.005a28.277 28.277 0 00-.702-.017l-.242-.002c-.288-.001-.576 0-.864.008a29.48 29.48 0 00-.86.038l-.086.005c-.293.018-.585.04-.876.066-.045.005-.09.008-.136.012-.28.027-.558.059-.836.093l-.225.03c-.256.034-.51.072-.765.113-.036.006-.072.01-.108.017-.27.044-.539.093-.807.145l-.217.044a28.994 28.994 0 00-1.656.386l-.134.037a28.949 28.949 0 00-1.86.57l-.001.001a26.831 26.831 0 00-.93.339 29.29 29.29 0 00-1.438.594c-.117.052-.233.106-.348.159-.131.06-.262.123-.393.185l-.32.155c-.511.253-1.015.522-1.51.805l-.23.13a29.54 29.54 0 00-1.402.873c-.08.053-.16.105-.238.158-.327.22-.648.448-.966.682-.066.05-.133.097-.198.146a31.407 31.407 0 00-.613.473 29.28 29.28 0 00-.617.502l-.063.053a29.546 29.546 0 00-.793.691c-.131.119-.262.237-.39.358l-.891-.86.016-.03a.898.898 0 00.07-.68.925.925 0 00-.164-.306l-.186-.257-.416-.573a1.03 1.03 0 00-.124-.14.829.829 0 00-.8-.199.807.807 0 00-.356.218l-.172.18-.658.694-.634.675-.376.404c-.028.03-.057.061-.089.101a.792.792 0 00-.156.351.82.82 0 00.186.66.94.94 0 00.22.19l.153.1.55.355.085.054c.054.035.106.068.16.099l.009.006a.79.79 0 00.706.017l.949.917c-.296.336-.583.68-.864 1.03l-.001.002c-.113.14-.224.282-.335.424l-.175.23c-.084.111-.168.222-.251.335-.09.121-.177.244-.264.367-.107.15-.212.301-.316.453-.062.092-.125.183-.186.275-.12.18-.237.361-.352.544-.045.069-.09.138-.132.207-.137.22-.27.441-.4.664l-.065.108a28.744 28.744 0 00-1.692 3.426l-.065.153c-.117.289-.23.58-.338.871l-.04.11c-.069.19-.138.382-.204.574-.032.093-.061.186-.092.28a18.5 18.5 0 00-.138.417c-.075.237-.146.474-.215.713h-.544l-4.203 13.02h4.003c.063.38.135.76.213 1.137l.029.139c.082.385.17.77.267 1.152v.01c0 .12.008.24.021.356 0 .009.002.017.003.025a3.2 3.2 0 00.307 1.037l.028.058c.045.087.092.173.145.257a29.198 29.198 0 00.436 1.252c.172.46.355.917.551 1.37l.001.002.005.013.078.175a29.55 29.55 0 001.176 2.372l-1.255-.303-.239-.07-1.697-.523a73.52 73.52 0 01-.987-.322l-.932-.311-1.074-.364-.036-.013c-.367-.125-.69-.235-.975-.33l-.556-.188.002.008c-1.24-.389-1.763-.429-2.524-.112-1.243.517-1.426 2.661-1.442 2.894 0 .011-.098 1.076.731 1.945.347.363.806.639 1.363.82.192.063.412.129.657.2l-.007.01.095.025-.039.053 2.173.536.024-.035.11.028v.001l.037.009.006.037 2.026.449.004-.005.26.05-.01.013.152.028.19.036.19.035.387.084.012.002c.038.007.295.053.675.118l.196.039.415.077-.002-.012.053.008c.602.1 1.167.188 1.677.262l.055.008v.006l.157.018.029.005v-.001l.074.008c.582.081 1.081.141 1.478.177l.072.008.373.043-.003-.018.105.003.119.013-.002-.009a7.971 7.971 0 001.688-.103 29.826 29.826 0 001.018 1.074l.018.019.044.043a29.006 29.006 0 002.767 2.431c.07.053.14.105.208.158.144.109.288.218.433.324.285.207.573.407.864.604l.138.092a29.186 29.186 0 004.688 2.542h.001l.322.137.229.092a27.354 27.354 0 001.369.514c.131.046.262.092.394.136.2.066.4.129.602.191l.004.001a28.664 28.664 0 002.643.675v.001l.162.032c.256.051.512.099.77.143v.001c.081.013.161.029.242.042.275.045.552.086.83.123l.252.031c.201.024.402.048.604.069l.044.004c.576.058 1.155.098 1.736.122h.008a28.518 28.518 0 001.908.014c.291-.008.58-.021.87-.038l.255-.017a27.2 27.2 0 00.641-.049l.241-.022c.292-.029.582-.06.871-.097h.001a29.06 29.06 0 002.814-.506l.003-.001c.277-.064.552-.133.826-.206l.246-.066c.24-.066.478-.134.715-.205l.134-.04c.27-.083.54-.168.808-.259h.001l.007-.003a28.557 28.557 0 001.614-.602l.215-.088c.267-.111.534-.225.798-.344l.003-.002a29.028 29.028 0 002.526-1.292l.001-.001c.24-.137.477-.28.712-.424l.218-.135v-.001c.176-.11.35-.221.523-.334v-.001l.122-.079c.264-.176.527-.353.785-.537l.02-.014v-.001h.001a29.47 29.47 0 001.389-1.054l.17-.138c.223-.182.445-.367.662-.556l.001-.001a29.42 29.42 0 00.808-.732c.151-.141.301-.285.45-.43l.112-.111c.226-.222.448-.447.667-.677.051.007.106.012.159.018.059.007.116.016.177.022l.11.01h.001l.123.007c.13.01.264.015.4.018h.001c.08.002.157.004.239.003.165 0 .334-.005.508-.015l-.003.018.373-.042.072-.009c.397-.036.896-.095 1.477-.176l.074-.009v.001l.03-.004.156-.019v-.005l.056-.009c.51-.073 1.075-.162 1.676-.261l.054-.008-.003.012.416-.077.196-.039.675-.119.012-.002c.012-.003.328-.07.82-.178l.514-.1-.01-.013.01-.002c.56-.126 1.108-.253 1.626-.377l.109-.025.03-.007.001.001.046-.011.095-.021v-.003l.128-.033.042-.01.004.006 2.134-.526-.019-.025.075-.019-.008-.01c.245-.071.465-.138.658-.201.557-.18 1.016-.456 1.363-.82a2.675 2.675 0 00.731-1.944z" fill="#F04941"/><path d="M96.709 106.154l.004.02.004-.004-.008-.016zm-51.705 1.899l.024.024a29.268 29.268 0 002.75 2.416l.207.157c.149.112.289.218.43.322.284.206.57.405.86.601l.137.091c.755.504 1.54.977 2.333 1.404.163.087.325.175.49.259a29.38 29.38 0 001.84.865l.047.021.273.115.227.092a28.452 28.452 0 00.971.374l.39.138.108.037a25.205 25.205 0 001.333.42c.718.208 1.452.39 2.183.54l.162.033c.253.051.508.098.764.142l.24.042c.275.045.55.086.825.122l.252.031c.2.025.4.048.6.069l.028.167.016-.163c.563.057 1.144.098 1.726.121a27.578 27.578 0 002.77-.023l.255-.017c.213-.014.425-.031.637-.05l.24-.021a28.383 28.383 0 004.489-.805l.244-.067h.002c.238-.065.474-.132.709-.203l.134-.04a27.7 27.7 0 00.803-.257 28.846 28.846 0 001.612-.602l.006-.002.209-.085a29.064 29.064 0 003.309-1.629l.006-.004c.237-.136.47-.276.703-.419l.216-.135c.175-.109.349-.22.52-.333l.123-.08c.261-.173.521-.349.778-.532l.003-.002.01-.007.009-.007c.451-.321.916-.673 1.38-1.048l.17-.137a28.494 28.494 0 001.274-1.105l.17-.158c.17-.16.319-.302.466-.446l.112-.11c.224-.222.446-.445.663-.675a.167.167 0 01.142-.048l.09.011.467.045c.128.009.259.015.393.018h.058l.177.003a9.59 9.59 0 00.5-.015.156.156 0 01.064.01l.368-.043c.398-.035.893-.094 1.474-.175l.077-.01h.013a.116.116 0 01.017-.003l.118-.014a.174.174 0 01.033-.009l.055-.009a88.18 88.18 0 001.675-.261l.056-.008a.157.157 0 01.057.001l.544-.104.659-.115.074.152-.034-.16c.066-.014.365-.078.806-.175l.451-.088a.141.141 0 01.052-.025 109.78 109.78 0 001.634-.378l.109-.026.033-.007.016-.003.1-.023a.146.146 0 01.02-.007l.128-.033a.237.237 0 01.056-.006l2.04-.503a.126.126 0 01.065-.046l.016-.004a.133.133 0 01.046-.024c.244-.07.462-.137.653-.199.531-.172.967-.434 1.295-.777a2.535 2.535 0 00.686-1.816v-.004c-.006-.092-.17-2.267-1.342-2.754-.703-.293-1.177-.27-2.413.117a.178.178 0 01-.044.008l-.506.171c-.286.095-.609.205-.975.33l-.037.012-1.073.365-.933.312c-.35.116-.68.223-.988.322l-1.941.594-.79.19a.161.161 0 01-.168-.061.165.165 0 01-.01-.18 27.475 27.475 0 00.856-1.602l.066-.135c.089-.182.175-.364.26-.546l.13-.282c.084-.189.166-.379.247-.57l.02-.046c.136-.324.262-.633.38-.944.029-.074.056-.149.083-.224l.042-.116c.056-.15.11-.3.162-.45l.046-.135c.074-.217.146-.434.214-.65l.1-.32c.138-.453.266-.918.382-1.382v-.001l.055-.217a28.123 28.123 0 00.228-1.026l.02-.098.051-.25v-.004l.003-.011c.06-.312.113-.625.162-.939l.034-.218c.088-.587.158-1.16.208-1.708a.157.157 0 01.018-.061l5.522-10.6H93.19a.163.163 0 01-.157-.117 29.98 29.98 0 00-.279-.913 14.654 14.654 0 00-.12-.353l-.107-.311a9.152 9.152 0 00-.082-.239 26.786 26.786 0 00-.268-.706l-.07-.185a28.603 28.603 0 00-.786-1.8 24.59 24.59 0 00-.32-.641l-.05-.1c-.021-.042-.042-.085-.065-.128a25.97 25.97 0 00-.377-.697l-.086-.16a27.97 27.97 0 00-1.043-1.701l-.076-.114a28.56 28.56 0 00-.959-1.352l-.082-.112a29.138 29.138 0 00-.997-1.234l-.16-.186a29.28 29.28 0 00-.738-.822.165.165 0 01.006-.23l.826-.8a.162.162 0 01.179-.031.627.627 0 00.564-.012c.055-.033.105-.065.157-.098l.787-.51a.794.794 0 00.183-.155.656.656 0 00.15-.528.623.623 0 00-.123-.279 1.342 1.342 0 00-.079-.088l-1.838-1.952a.645.645 0 00-.282-.174.669.669 0 00-.647.16.966.966 0 00-.104.12l-.6.827a.796.796 0 00-.14.254.738.738 0 00.057.558c.035.064.039.174-.014.225l-.825.798a.163.163 0 01-.22.005 29.03 29.03 0 00-2.841-2.21l-.224-.152a28.964 28.964 0 00-1.524-.954l-.096-.055a28.97 28.97 0 00-1.42-.772l-.154-.076a29.993 29.993 0 00-.75-.36l-.13-.06a31.57 31.57 0 00-.53-.236l-.104-.045c-.322-.138-.647-.27-.975-.397l-.138-.053c-.18-.068-.36-.135-.541-.2l-.162-.057a28.892 28.892 0 00-1.67-.53l-.267-.074a28.373 28.373 0 00-.61-.16l-.008-.002-.2-.05c-.265-.065-.53-.125-.797-.181l-.103-.021a28.934 28.934 0 00-1.834-.322 33.735 33.735 0 00-.824-.103l-.25-.026a25.992 25.992 0 00-.669-.06l-.064-.006a28.848 28.848 0 00-.969-.059l-.178-.006a29.57 29.57 0 00-.699-.016l-.24-.002a24.658 24.658 0 00-1.714.046l-.086.005c-.292.018-.582.04-.871.066l-.136.011c-.278.027-.554.058-.83.093l-.225.03a27.26 27.26 0 00-.76.112l-.107.017c-.269.044-.536.092-.803.144l-.216.044a29.372 29.372 0 00-1.646.383l-.132.037a29.04 29.04 0 00-4.208 1.496l-.285.13-.06.028c-.13.06-.26.122-.39.184l-.32.154c-.494.245-1 .514-1.5.801l-.229.13a28.698 28.698 0 00-1.395.868l-.236.156c-.312.21-.635.439-.96.678l-.198.145c-.136.102-.27.205-.403.309l-.207.162c-.207.163-.41.33-.613.5l-.038.031c-.227.192-.428.364-.626.54l-.187.168a43.1 43.1 0 00-.389.356.162.162 0 01-.223-.002l-.891-.86a.164.164 0 01-.028-.202.746.746 0 00.071-.578.775.775 0 00-.138-.254l-.603-.833a.902.902 0 00-.104-.118.666.666 0 00-.642-.16.64.64 0 00-.285.174l-1.839 1.951a1.284 1.284 0 00-.08.091.62.62 0 00-.123.277c-.03.182.025.38.15.526a.79.79 0 00.183.158l.776.502c.064.04.114.072.165.102a.633.633 0 00.568.015.162.162 0 01.179.032l.949.917a.165.165 0 01.009.227 28.747 28.747 0 00-1.193 1.448l-.202.264-.222.297a22.28 22.28 0 00-.262.365c-.107.15-.211.3-.314.452a29.821 29.821 0 00-.535.813l-.019.028-.113.179c-.136.218-.268.438-.398.66l-.064.107a28.832 28.832 0 00-1.682 3.406l-.065.152a30.3 30.3 0 00-.336.867l-.039.108c-.07.19-.138.38-.204.571l-.12.362a25.492 25.492 0 00-.323 1.04.164.164 0 01-.156.118h-.425L32.989 92.2h3.778c.08 0 .147.058.16.137.063.373.135.753.213 1.13l.028.14c.09.423.177.798.266 1.144a.16.16 0 01.005.04 3.094 3.094 0 00.314 1.356l.028.057c.042.082.087.164.137.243a.153.153 0 01.017.037 28.043 28.043 0 00.434 1.245c.172.463.356.921.547 1.363l.084.188a29.168 29.168 0 001.169 2.358l.003.006c.02.039.024.086.008.131a.161.161 0 01-.19.103l-1.502-.374-1.7-.524a96.18 96.18 0 01-.99-.323l-.933-.311-.952-.323-.16-.055-.972-.33-.51-.172a.133.133 0 01-.041-.006c-1.236-.388-1.71-.41-2.414-.118-1.174.489-1.335 2.662-1.341 2.755a2.536 2.536 0 00.685 1.819c.328.344.764.606 1.296.778.19.062.41.129.653.199a.16.16 0 01.05.025l.033.008a.164.164 0 01.106.089l1.938.478a.164.164 0 01.114-.012l.11.028.014.004.019.004a.17.17 0 01.09.056l1.901.421a.126.126 0 01.039.003l.26.05a.185.185 0 01.062.026l.849.17c.071.013.321.058.682.12l.553.105a.133.133 0 01.053-.002l.054.009c.6.099 1.165.187 1.674.261l.057.008a.136.136 0 01.034.01l.117.014.017.002.012.001.074.009c.585.081 1.08.14 1.474.176l.379.043a.172.172 0 01.058-.011l.177.011a.14.14 0 01.04-.004 7.856 7.856 0 001.654-.1.16.16 0 01.15.051 32.855 32.855 0 001.013 1.068l-.076.156.114-.117zm20.352 8.793c-.342 0-.715-.008-1.14-.025a28.798 28.798 0 01-1.754-.123l-.045-.004a30.7 30.7 0 01-.607-.07l-.254-.031c-.28-.037-.557-.078-.835-.123l-.241-.043a24.62 24.62 0 01-.775-.144l-.164-.033a29.449 29.449 0 01-3.563-.974l-.1-.035a25.492 25.492 0 01-.395-.138l-.42-.158a26.155 26.155 0 01-.562-.221l-.23-.093a14.424 14.424 0 01-.276-.117l-.048-.02c-.134-.058-.267-.115-.4-.174a28.847 28.847 0 01-4.315-2.382l-.139-.093a30.787 30.787 0 01-.868-.607 26.503 26.503 0 01-.428-.321l-.217-.164a29.201 29.201 0 01-2.782-2.444l-.046-.045a33.614 33.614 0 01-.98-1.031 8.228 8.228 0 01-1.582.091.145.145 0 01-.062.007l-.145-.013a.133.133 0 01-.077.015l-.445-.051a33.512 33.512 0 01-1.48-.177l-.054-.006a.19.19 0 01-.023-.002l-.18-.023a.141.141 0 01-.045-.012l-.017-.002a82.84 82.84 0 01-1.672-.261.125.125 0 01-.06.003l-.613-.117c-.358-.061-.609-.106-.666-.116l-.938-.187a.152.152 0 01-.065-.027l-.15-.029a.176.176 0 01-.045-.003l-2.025-.449a.164.164 0 01-.084-.047.168.168 0 01-.097.006l-2.174-.536a.163.163 0 01-.114-.104l-.001-.002-.002-.001a24.216 24.216 0 01-.6-.184c-.583-.189-1.064-.479-1.43-.863a2.84 2.84 0 01-.776-2.072c.017-.249.206-2.476 1.542-3.032.825-.343 1.402-.276 2.587.093.02.003.033.002.049.008l.556.188c.286.095.608.205.975.33l.158.054.951.323.932.311c.35.116.678.222.985.321l1.932.591.89.215a25.391 25.391 0 01-.449-.872 29.144 29.144 0 01-.555-1.188l-.079-.175-.006-.015a29.15 29.15 0 01-.987-2.618 3.56 3.56 0 01-.14-.252l-.03-.06a3.381 3.381 0 01-.348-1.49 25.598 25.598 0 01-.263-1.129l-.029-.14a29.54 29.54 0 01-.191-1.006h-3.866a.163.163 0 01-.154-.214l4.202-13.02a.163.163 0 01.156-.114h.42c.06-.2.12-.4.183-.598.035-.113.073-.225.11-.338l.12-.364c.067-.193.136-.385.207-.577l.04-.11a29.3 29.3 0 01.34-.876l.065-.155a29.005 29.005 0 011.702-3.444l.055-.093c.14-.24.274-.463.412-.683l.117-.186c.132-.207.25-.39.37-.57.061-.093.124-.184.187-.276a27.272 27.272 0 01.583-.826l.221-.295.207-.271a36.053 36.053 0 01.338-.43c.272-.338.524-.64.766-.917l-.763-.737a.954.954 0 01-.743-.062 3.757 3.757 0 01-.18-.112l-.79-.51a1.112 1.112 0 01-.257-.222.988.988 0 01-.22-.793.963.963 0 01.188-.423c.036-.046.068-.081.1-.114l1.84-1.953a.96.96 0 01.43-.263.993.993 0 01.953.235c.052.049.1.103.145.165l.603.831c.065.086.148.209.19.36.07.231.053.49-.045.717l.694.67c.092-.085.185-.17.279-.254l.19-.17c.2-.179.403-.353.608-.526l.063-.053c.204-.17.41-.34.62-.505l.208-.163c.136-.105.271-.21.408-.312l.2-.147c.328-.241.654-.472.97-.686l.24-.158a29.522 29.522 0 011.41-.878l.232-.132a29.774 29.774 0 011.518-.809l.322-.156c.131-.063.263-.125.394-.186l.06-.027.29-.133a28.977 28.977 0 012.687-1.04c.516-.172 1.043-.33 1.567-.472l.135-.038a28.143 28.143 0 011.664-.387l.22-.045c.268-.052.54-.101.81-.146l.11-.017c.255-.041.511-.079.768-.113l.227-.03c.28-.035.56-.067.84-.094l.137-.012c.293-.027.587-.049.88-.066l.088-.005a30.3 30.3 0 01.864-.039c.29-.007.578-.01.87-.008l.242.002c.236.003.472.008.706.017l.182.006c.328.014.655.034.98.06l.064.005c.227.017.453.038.678.06l.251.027c.263.03.524.062.785.098h.001l.048.007a28.78 28.78 0 011.826.32l.133.026c.27.057.538.118.806.183l.206.052c.209.052.415.106.621.163l.27.075a27.805 27.805 0 011.69.536l.163.057c.183.066.365.134.547.203l.139.053c.332.128.661.262.987.401l.104.046c.18.078.36.157.537.239l.132.06c.254.118.506.239.756.364l.157.077c.47.238.94.493 1.436.78l.096.056a29.43 29.43 0 011.542.965l.216.146a29.662 29.662 0 012.77 2.143l.632-.61a1.062 1.062 0 01-.044-.721c.041-.147.124-.269.191-.358l.6-.828c.046-.063.094-.116.144-.163a.994.994 0 01.96-.236.96.96 0 01.426.262l1.84 1.954a.968.968 0 01.286.537.989.989 0 01-.221.793 1.078 1.078 0 01-.256.22l-.788.51c-.056.037-.11.071-.166.104a.964.964 0 01-.758.07l-.637.615c.216.234.427.473.636.713l.162.188c.356.417.695.838 1.008 1.248l.085.115a30.286 30.286 0 01.968 1.367l.077.114a28.779 28.779 0 011.055 1.722l.084.154c.133.24.262.474.385.711l.068.135.047.096c.11.216.22.431.325.649a30.135 30.135 0 01.795 1.82l.071.188c.093.237.185.474.27.714.03.081.057.163.085.244l.106.309c.041.12.083.239.122.36.087.266.169.535.248.804h6.552c.057 0 .11.03.139.08a.16.16 0 01.005.16l-5.633 10.81a30.11 30.11 0 01-.207 1.694l-.034.221c-.05.32-.104.638-.165.955l-.003.012-.051.254-.02.096a30.81 30.81 0 01-.23 1.038l-.055.22a29.632 29.632 0 01-.388 1.4l-.1.32c-.07.22-.142.44-.217.659l-.046.136c-.054.153-.108.304-.164.455l-.041.115c-.028.076-.056.153-.086.23-.12.314-.246.627-.377.938l-.028.063a26.44 26.44 0 01-.25.577l-.13.284a46.75 46.75 0 01-.263.552l-.067.137a29.203 29.203 0 01-.678 1.29l.646-.167 1.695-.523c.306-.098.635-.205.984-.321l.932-.311c.39-.131.744-.252 1.072-.364l.037-.012c.367-.126.69-.236.975-.331l.556-.188a.16.16 0 01.052-.009c1.183-.367 1.76-.434 2.584-.09 1.331.553 1.524 2.775 1.542 3.032a2.843 2.843 0 01-.776 2.071c-.366.383-.847.673-1.43.863-.18.057-.382.12-.606.185a.134.134 0 01-.043.024.126.126 0 01-.069.048l-2.133.526a.154.154 0 01-.048.005l-.098.025a.17.17 0 01-.032.011l-.136.031a.197.197 0 01-.024.005l-.119.027c-.501.12-1.031.243-1.573.365a.134.134 0 01-.06.028l-.513.1c-.438.097-.738.16-.804.175l-.05.009c-.075.014-.317.057-.657.116l-.609.115a.186.186 0 01-.066-.001c-.597.099-1.16.186-1.668.26l-.016.002a.16.16 0 01-.044.012l-.156.019-.03.001v.002l-.074.009c-.583.081-1.082.14-1.481.177l-.442.05a.15.15 0 01-.084-.013c-.15.007-.295.011-.439.011-.065 0-.124 0-.185-.002l-.056-.001a8.823 8.823 0 01-.41-.018l-.24-.018a4.417 4.417 0 01-.117-.014l-.123-.014a1.743 1.743 0 01-.018-.003c-.202.211-.407.418-.613.623l-.113.11c-.15.147-.3.291-.453.433l-.19.178c-.206.189-.413.376-.622.558l-.002.002c-.219.19-.44.375-.664.558l-.173.139a29.848 29.848 0 01-1.418 1.073c-.258.187-.522.365-.788.541l-.123.081c-.174.114-.349.226-.525.336l-.22.137a29.686 29.686 0 01-4.063 2.075l-.216.087a30.929 30.929 0 01-2.443.87l-.106.031c-.268.081-.508.149-.748.215l-.248.067a28.663 28.663 0 01-4.54.814l-.241.022c-.216.019-.43.036-.646.05l-.257.017a28.242 28.242 0 01-1.653.049z" fill="#0C1423"/><path d="M77.53 79.976a14.27 14.27 0 00-12.564-6.852 14.281 14.281 0 00-12.18 7.523 14.458 14.458 0 00.384 14.375 14.27 14.27 0 0012.565 6.852 14.28 14.28 0 0012.18-7.522 14.458 14.458 0 00-.385-14.376zm12.949 21.228c-4.866 9.033-14.152 14.769-24.36 15.045-10.208.277-19.787-4.948-25.129-13.705a28.915 28.915 0 01-.769-28.75c4.866-9.034 14.152-14.769 24.36-15.045 10.208-.277 19.787 4.947 25.129 13.705a28.916 28.916 0 01.769 28.75z" fill="#0C1423"/><path d="M65.347 73.542c-.123 0-.246.001-.37.005-4.938.133-9.468 2.931-11.822 7.301a14.072 14.072 0 00.373 13.953c2.585 4.236 7.259 6.782 12.195 6.65 4.938-.133 9.468-2.931 11.822-7.301a14.072 14.072 0 00-.373-13.953c-2.52-4.13-7.025-6.655-11.825-6.655zm.006 28.76c-5.091 0-9.869-2.678-12.541-7.06a14.926 14.926 0 01-.396-14.797c2.497-4.635 7.301-7.602 12.538-7.744 5.24-.14 10.194 2.56 12.934 7.054a14.925 14.925 0 01.396 14.798c-2.497 4.635-7.3 7.602-12.538 7.744-.131.004-.262.005-.393.005zm-.008-43.14c-.251 0-.501.003-.752.01-10.026.271-19.223 5.951-24.002 14.824-4.78 8.872-4.489 19.726.758 28.327 5.246 8.6 14.735 13.771 24.759 13.503 10.025-.271 19.222-5.952 24.001-14.824l.37.202-.37-.202c4.78-8.872 4.49-19.726-.757-28.327-5.115-8.385-14.262-13.514-24.007-13.514zm.011 57.52c-10.037 0-19.456-5.281-24.724-13.917-5.403-8.857-5.702-20.035-.78-29.173 4.921-9.137 14.393-14.986 24.718-15.266 10.329-.278 20.095 5.049 25.498 13.906 5.403 8.858 5.702 20.036.78 29.173-4.921 9.138-14.392 14.987-24.718 15.267-.258.007-.517.01-.774.01z" fill="#fff"/><path d="M65.348 74.357c-.117 0-.233.002-.35.005-4.649.126-8.914 2.76-11.13 6.875a13.25 13.25 0 00.351 13.137c2.433 3.989 6.836 6.387 11.483 6.262 4.65-.126 8.914-2.76 11.13-6.875a13.25 13.25 0 00-.351-13.137c-2.372-3.889-6.613-6.267-11.133-6.267zm.005 27.13c-4.811 0-9.326-2.531-11.85-6.67a14.104 14.104 0 01-.374-13.984c2.358-4.379 6.898-7.183 11.847-7.317 4.95-.134 9.632 2.42 12.222 6.666a14.103 14.103 0 01.374 13.982c-2.36 4.38-6.899 7.184-11.848 7.318a15.36 15.36 0 01-.371.005zm-.008-40.695c-.236 0-.472.003-.709.01-9.449.256-18.116 5.61-22.62 13.97-4.505 8.362-4.23 18.592.714 26.698 4.82 7.902 13.44 12.736 22.625 12.736.237 0 .472-.003.71-.01 9.448-.256 18.115-5.609 22.62-13.971l.37.202-.37-.202c4.503-8.361 4.23-18.591-.715-26.697-4.82-7.903-13.44-12.736-22.625-12.736zm.011 54.26c-9.477 0-18.37-4.987-23.343-13.14-5.1-8.362-5.383-18.916-.737-27.542 4.647-8.627 13.59-14.15 23.337-14.414 9.755-.262 18.973 4.767 24.074 13.13 5.101 8.362 5.383 18.916.737 27.542-4.647 8.627-13.59 14.15-23.337 14.414-.244.006-.488.01-.731.01z" fill="#fff"/><path d="M69.918 76.328a.538.538 0 00.03-.416 1.203 1.203 0 00-.393-.537c-.177-.127-.4-.2-.656-.226a.97.97 0 00-.556.093.764.764 0 00-.341.36c-.044.094-.088.282-.134.563-.012.072.02.12.099.142.128.037.252.068.373.092.059.013.1.016.129.001.025-.013.047-.046.066-.099l.044-.132.038-.134a.324.324 0 01.43-.209c.088.033.15.092.181.177a.323.323 0 01.014.18 1.295 1.295 0 01-.051.193l-.482 1.396c-.02.06-.04.11-.06.149a.348.348 0 01-.145.16.24.24 0 01-.199.03.238.238 0 01-.146-.137.372.372 0 01-.022-.255l.058-.232c.013-.071-.014-.12-.082-.146a4.266 4.266 0 00-.322-.08c-.062-.013-.107-.012-.133.002-.026.015-.047.053-.061.11-.02.073-.045.19-.078.351a.611.611 0 00.027.39c.11.235.211.374.309.453a.414.414 0 00.113.062c.057.02.15.049.278.086.046.016.102.016.162.017a.81.81 0 00.458-.165.8.8 0 00.291-.373c.016-.048.138-.35.368-.905l.393-.961zm-2.37-1.148a3.51 3.51 0 00.025-.157c.006-.063 0-.107-.022-.132-.02-.024-.066-.044-.14-.06l-.227-.04c-.153-.028-.25-.016-.287.005-.036.02-.061.093-.075.215l-.057.457-.054.458a1.553 1.553 0 01-.025.16c-.02.08-.073.118-.156.115a2.748 2.748 0 01-.312-.03.157.157 0 01-.135-.12.734.734 0 01-.011-.22l.054-.881a2.14 2.14 0 000-.162c-.006-.062-.05-.097-.129-.105a2.92 2.92 0 00-.252-.016c-.172-.006-.276.004-.312.029-.036.027-.054.107-.054.238l-.008 3.033c0 .065.002.112.005.14.007.073.041.114.102.121.044.005.111.01.203.013.115.004.185-.006.209-.028.023-.024.039-.098.048-.22l.028-.453.028-.45c.004-.074.011-.133.021-.18.017-.077.067-.12.148-.12.069-.003.14 0 .21.011.092.013.15.034.177.066.027.03.036.089.03.173l-.016.139-.099.84a1.895 1.895 0 00-.014.158c0 .071.029.114.089.126.042.005.108.02.199.036.114.02.184.02.21 0 .028-.02.052-.09.073-.212l.268-1.501.258-1.445zm-3.581 1.003l.005.067c.006.215-.005.372-.033.475a.068.068 0 01-.043.042c-.025.01-.05.003-.073-.023a.206.206 0 01-.04-.07 142.618 142.618 0 00-.126-.36.268.268 0 01-.017-.086c.001-.037.052-.064.152-.08.111-.022.17-.003.175.035zm.114 2.15c.066-.014.133-.019.2-.025.076-.007.126-.024.151-.05.026-.027.042-.085.046-.172.007-.047.032-.656.175-1.829.028-.212.084-.65.194-1.318.012-.073.019-.12.02-.14.001-.078-.043-.118-.134-.118a3.335 3.335 0 00-.507.036c-.088.01-.137.052-.149.125a5.438 5.438 0 00-.046.423c-.004.132-.03.216-.08.25-.037.027-.135.042-.293.069l-.047.005c-.103.014-.172-.018-.207-.095a3.032 3.032 0 01-.07-.167l-.06-.172a31.449 31.449 0 01-.06-.172c-.019-.046-.042-.076-.07-.09a.24.24 0 00-.134-.013c-.027.004-.12.014-.276.05-.16.035-.255.069-.282.099-.04.045-.025.136.042.274.157.339.369.809.615 1.415.273.67.446 1.16.545 1.44.013.04.025.072.036.095.024.054.046.087.067.1.02.014.056.018.106.013l.217-.036v.002zm-2.083-2.917a1.558 1.558 0 00-.055-.17c-.025-.06-.075-.083-.15-.067-.16.034-.314.082-.46.143-.075.028-.105.08-.095.14.01.048.026.106.049.173l.138.411.14.408c.028.083.04.142.033.176a.06.06 0 01-.023.036c-.023.017-.043.016-.061-.001a.84.84 0 01-.097-.103l-.33-.458-.164-.22-.168-.22c-.03-.039-.061-.062-.09-.069a.3.3 0 00-.136.02c-.088.03-.172.07-.258.11-.068.035-.11.067-.127.096-.019.029-.024.074-.014.135.013.095.034.228.064.4l.052.267.055.267c.017.075.019.128.007.161a.04.04 0 01-.027.029c-.017.009-.03.01-.04.002a.658.658 0 01-.182-.237 134.29 134.29 0 00-.147-.296l-.15-.295a1.176 1.176 0 00-.08-.138c-.03-.05-.077-.062-.137-.037a2.549 2.549 0 00-.449.24c-.063.042-.08.095-.056.156.018.044.046.098.083.163l1.485 2.59c.038.067.066.112.083.136.043.063.092.08.148.052.128-.063.284-.148.47-.25.063-.03.084-.084.065-.163l-.058-.211-.053-.213-.158-.653c-.07-.303-.116-.523-.145-.66a.225.225 0 01-.005-.04c.002-.046.02-.074.05-.086a.064.064 0 01.076.017.834.834 0 01.091.107c.097.141.225.33.38.57.182.285.301.479.363.58l.19.306c.034.056.077.075.128.055.205-.082.391-.123.541-.177.054-.016.076-.057.065-.124a1.863 1.863 0 00-.041-.174l-.403-1.453-.397-1.43zM59.285 79.1l.2.277c.07.11.05.198-.06.265-.152.105-.298.098-.439-.02a1.455 1.455 0 01-.307-.37.339.339 0 01-.03-.28.373.373 0 01.19-.226c.087-.044.156-.034.208.029l.236.326h.002zm-.893.734c.163.178.248.273.257.283a.86.86 0 00.354.207c.12.032.248.034.384.006a.898.898 0 00.381-.183c.017-.017.091-.064.218-.154l.215-.157c.095-.072.152-.112.157-.145.005-.03-.025-.098-.092-.203l-1.649-2.599a.806.806 0 00-.084-.115c-.043-.047-.098-.053-.165-.017-.095.05-.19.12-.297.197-.097.07-.15.124-.159.159-.011.034.01.09.062.166l.472.654c.046.065.076.108.088.132.04.075.025.146-.045.21l-.192.163a.88.88 0 00-.17.183.818.818 0 00-.146.505c.01.175.07.326.18.457l.23.252.001-.001zm-.127 1.284c.062.057.108.096.136.117.057.043.11.044.159.002.031-.03.079-.077.141-.143.08-.086.12-.145.117-.177 0-.033-.044-.094-.131-.183l-2.123-2.154c-.05-.05-.09-.087-.12-.108-.056-.043-.117-.036-.182.022a4.245 4.245 0 00-.198.2c-.109.116-.165.193-.17.232 0 .038.045.1.139.183l1.13 1.017 1.102.992zm-2.917-.601c.081-.111.178-.155.29-.132a.51.51 0 01.195.102l1.333.983c.063.046.104.079.124.1.095.092.108.194.04.306-.07.113-.163.154-.284.121a.7.7 0 01-.16-.076l-1.434-.945a.42.42 0 01-.143-.14c-.057-.103-.045-.21.039-.32zm1.589 2.1a.84.84 0 00.385-.006.649.649 0 00.323-.162c.097-.108.202-.234.285-.405a.392.392 0 00.034-.184c-.006-.344-.106-.612-.344-.802l-.723-.602-.737-.614a.708.708 0 00-.383-.175.898.898 0 00-.514.09 1.329 1.329 0 00-.435.39 1.123 1.123 0 00-.15 1.108.391.391 0 00.08.12c.163.144.267.227.312.252l1.46.835c.117.066.253.117.407.154zm-1.327-.211c-.678-.354-1.114-.583-1.308-.683a1.142 1.142 0 00-.163-.075c-.072-.026-.135.003-.19.087a1.5 1.5 0 00-.102.204c-.075.163-.107.264-.098.3.008.039.074.085.197.14l.5.225.5.225a.59.59 0 01.188.115c.022.024.029.049.022.076-.008.03-.029.047-.062.048a1.719 1.719 0 01-.185 0 20.054 20.054 0 00-.614-.02c-.363-.002-.57.005-.62.006-.017 0-.044 0-.082.002l-.08.003c-.088.003-.15.053-.189.15-.047.117-.08.215-.1.29-.052.166-.069.27-.054.31.016.04.088.079.216.117l2.883.86c.057.018.109.03.154.04.056.01.093-.008.112-.053.026-.063.05-.133.073-.21.032-.112.05-.179.035-.207-.014-.03-.079-.066-.195-.108l-1.03-.376a2.856 2.856 0 01-.148-.057.925.925 0 01-.1-.063c-.027-.019-.036-.043-.028-.073.007-.03.027-.047.06-.05a12.9 12.9 0 01.636.041c.232.02.412.038.554.054l.198.024.196.024c.074.01.123-.01.149-.063.075-.15.126-.29.187-.4.024-.05.008-.093-.05-.13a1.797 1.797 0 00-.154-.088l-1.308-.685zm-2.906 3.06c-.026.222-.041.338-.038.352a.87.87 0 00.18.518.7.7 0 00.409.283c.362.09.702-.01 1.017-.262a4.77 4.77 0 00.414-.377c.074-.076.158-.146.252-.208.196-.126.384-.152.568-.093.133.045.201.124.202.237.002.114-.068.188-.209.227a7.04 7.04 0 01-.134.032c-.058.016-.09.054-.093.115-.01.12.001.254.032.398.01.05.042.075.1.072a.921.921 0 00.535-.175.76.76 0 00.265-.34.89.89 0 00.06-.461.763.763 0 00-.17-.422.924.924 0 00-.442-.3 1.063 1.063 0 00-.953.129 5.78 5.78 0 00-.5.378l-.297.244a.519.519 0 01-.399.115.264.264 0 01-.177-.105.336.336 0 01-.075-.201c-.005-.157.071-.273.225-.342a.25.25 0 01.077-.023l.069-.01.07-.008c.054-.008.093-.022.114-.043a.232.232 0 00.05-.122c.013-.065.029-.195.048-.391.007-.063-.016-.102-.07-.12a.47.47 0 00-.115-.027 1.122 1.122 0 00-.571.135.769.769 0 00-.221.198c-.129.153-.192.357-.223.597zm.216 1.633a2.04 2.04 0 00-.16-.002c-.062.002-.105.015-.127.04-.02.022-.034.072-.04.148-.001.044-.01.121-.006.231.005.157.022.252.05.285.025.033.1.048.221.044l.458-.01.459-.012a1.56 1.56 0 01.16.001c.082.01.126.056.133.14.012.082.008.187.018.314.003.071-.03.121-.096.151a.731.731 0 01-.215.044l-.874.074a1.893 1.893 0 00-.16.023c-.06.015-.088.063-.086.144.001.057.006.141.017.253.014.173.049.274.08.306.032.032.114.038.243.02l2.984-.434c.063-.009.109-.017.136-.024.07-.018.104-.058.099-.119-.006-.043-.008-.111-.017-.203-.01-.115-.028-.183-.054-.204-.026-.02-.1-.025-.223-.016-.1.008-.25.02-.449.038l-.447.037a1.292 1.292 0 01-.178.005c-.079-.006-.127-.05-.144-.13a.724.724 0 01-.022-.211c0-.093.015-.154.042-.185.027-.031.083-.05.167-.055l.138-.004.84-.023a1.87 1.87 0 00.158-.01c.071-.01.109-.044.114-.106.002-.042 0-.11 0-.204.004-.116-.005-.185-.027-.209-.024-.024-.097-.038-.219-.042l-1.516-.049-1.458-.046zm3.203 2.701c.082-.02.14-.036.172-.047.068-.023.098-.067.09-.131a2.857 2.857 0 00-.04-.198c-.026-.114-.054-.18-.078-.197-.026-.018-.1-.016-.222.007l-2.964.552a1.04 1.04 0 00-.157.038c-.067.023-.101.08-.088.165.01.065.028.157.055.277.034.155.067.245.096.27.031.024.107.02.23-.01l1.47-.368 1.436-.358zm-.489 1.192l.32-.115c.125-.038.206.005.24.13.05.18 0 .32-.15.421a1.433 1.433 0 01-.437.193.327.327 0 01-.276-.049.4.4 0 01-.157-.251c-.019-.095.009-.158.083-.19l.378-.137v-.002zm.444 1.07l.342-.168c.265-.16.403-.383.417-.655a.942.942 0 00-.015-.215.962.962 0 00-.05-.206l-.09-.251a2.94 2.94 0 01-.088-.253c-.033-.114-.064-.178-.092-.192-.028-.014-.102-.003-.221.032l-2.942.86a.809.809 0 00-.133.05c-.058.027-.078.078-.06.153.023.105.055.22.095.346.042.112.08.178.11.196.031.02.09.016.178-.013l.756-.272c.075-.027.125-.043.151-.048.083-.018.147.016.19.1.017.03.05.109.098.234.038.1.084.17.126.215a.88.88 0 00.444.282.718.718 0 00.48-.042l.305-.15-.002-.002zm4.704 6.608a.537.537 0 00-.03.416c.085.223.218.403.393.537.177.127.4.2.656.226a.971.971 0 00.556-.092.765.765 0 00.342-.362c.043-.093.087-.281.134-.562.012-.072-.022-.12-.1-.142a4.352 4.352 0 00-.373-.092c-.059-.013-.1-.016-.129-.002-.025.014-.047.047-.066.1l-.044.132-.038.135a.325.325 0 01-.43.209.295.295 0 01-.181-.178.325.325 0 01-.014-.18c.01-.061.028-.126.051-.193l.483-1.397c.02-.06.04-.108.059-.148a.35.35 0 01.145-.16.241.241 0 01.199-.03c.065.02.113.066.146.138a.372.372 0 01.022.254l-.058.232c-.013.071.014.12.082.146.106.03.213.057.322.08.062.013.107.013.133-.002.026-.016.047-.052.061-.11.02-.072.045-.19.078-.35a.61.61 0 00-.027-.392c-.11-.233-.211-.373-.31-.452a.416.416 0 00-.112-.062 7.306 7.306 0 00-.278-.086c-.046-.016-.101-.016-.162-.017a.813.813 0 00-.458.165.805.805 0 00-.292.374c-.015.047-.138.348-.367.904l-.393.961zm2.371 1.147a2.181 2.181 0 00-.025.157c-.007.063 0 .107.02.133.02.024.067.044.141.059l.227.041c.154.027.25.016.287-.005.036-.021.061-.093.076-.215l.057-.458.053-.458c.01-.074.017-.127.025-.16.02-.08.073-.118.157-.114.082.002.186.011.311.03.07.01.115.05.135.12a.727.727 0 01.012.22l-.055.881c-.002.07-.002.123 0 .162.006.061.05.097.13.105.056.007.14.012.25.016.174.006.278-.004.314-.029.035-.028.053-.107.054-.238l.007-3.033c0-.066-.001-.112-.005-.14-.007-.074-.041-.114-.102-.122a2.776 2.776 0 00-.202-.012c-.116-.004-.185.005-.21.028-.022.024-.038.097-.047.22l-.029.453-.027.45a1.22 1.22 0 01-.022.18c-.017.077-.066.12-.148.12a1.108 1.108 0 01-.21-.011c-.091-.013-.15-.035-.177-.066-.026-.031-.036-.089-.03-.174l.016-.138.099-.84a1.82 1.82 0 00.014-.158c0-.072-.029-.114-.088-.126-.042-.006-.109-.02-.2-.036-.114-.02-.184-.02-.21-.001-.027.02-.051.091-.073.212l-.268 1.502-.257 1.445zm3.58-1.002c0-.016-.003-.038-.005-.067a1.77 1.77 0 01.033-.474.068.068 0 01.043-.043c.025-.01.05-.003.073.023.02.024.033.047.04.07l.057.167.068.193c.015.047.02.075.019.086-.002.037-.053.064-.153.08-.11.023-.17.003-.175-.035zm-.114-2.149c-.066.013-.133.018-.2.025-.076.007-.126.023-.15.049-.027.028-.042.085-.047.172-.007.047-.031.656-.175 1.829-.028.212-.083.65-.194 1.318-.012.073-.018.12-.02.14 0 .078.044.118.134.118.14.004.308-.01.507-.036.087-.01.137-.052.149-.125a5.37 5.37 0 00.046-.423c.004-.132.03-.216.08-.25.037-.027.135-.041.293-.069l.047-.005c.103-.014.173.018.207.095a3.25 3.25 0 01.13.34l.06.171c.02.046.042.076.07.09a.24.24 0 00.134.013c.027-.004.12-.013.276-.05.16-.035.255-.068.282-.099.04-.045.024-.136-.041-.274a31.48 31.48 0 01-.616-1.415c-.273-.67-.445-1.16-.544-1.44a1.222 1.222 0 00-.037-.095c-.023-.054-.046-.087-.066-.1-.021-.014-.056-.018-.107-.013l-.217.036v-.002zm2.084 2.916c.022.08.04.137.054.17.025.06.075.083.149.067a2.69 2.69 0 00.461-.143c.075-.029.105-.08.096-.14a1.414 1.414 0 00-.05-.173l-.137-.411-.14-.408a.414.414 0 01-.034-.176c.002-.013.01-.025.024-.036.022-.017.042-.017.06.002a.832.832 0 01.097.102l.33.458.165.22.167.219c.03.04.061.063.09.07a.311.311 0 00.136-.02c.088-.029.172-.07.258-.11.068-.035.11-.067.127-.096.02-.029.024-.074.015-.135a12.281 12.281 0 00-.065-.4l-.052-.267-.055-.267a.326.326 0 01-.007-.161.04.04 0 01.027-.03c.017-.008.03-.008.041 0 .067.05.128.128.181.235l.147.297.15.295a.997.997 0 00.08.138c.03.05.077.062.138.037a2.52 2.52 0 00.448-.24c.063-.042.081-.095.056-.156a1.41 1.41 0 00-.083-.163l-1.485-2.59a1.877 1.877 0 00-.083-.136c-.043-.063-.092-.079-.148-.052a13.7 13.7 0 00-.47.25c-.062.03-.084.084-.064.162l.057.212.054.214.157.653c.07.301.116.522.145.658a.225.225 0 01.006.041c-.003.045-.02.074-.051.086a.064.064 0 01-.076-.017.848.848 0 01-.091-.107c-.097-.141-.225-.33-.38-.57-.182-.285-.3-.479-.363-.58l-.19-.306c-.034-.056-.076-.075-.127-.055-.206.081-.392.123-.542.176-.054.017-.075.058-.065.124.007.043.02.102.041.175l.403 1.453.398 1.43zm2.712-3.685l-.2-.276c-.07-.11-.05-.199.06-.265.152-.105.298-.098.439.02.114.095.217.218.308.368.05.088.06.18.03.28a.374.374 0 01-.191.228c-.087.043-.156.033-.208-.03l-.236-.326-.002.001zm.893-.733l-.257-.284a.863.863 0 00-.354-.207.84.84 0 00-.384-.006.896.896 0 00-.381.183c-.016.017-.091.065-.218.154l-.215.157c-.094.072-.152.112-.156.145-.006.03.025.098.091.203l1.649 2.6c.033.051.06.09.084.114.043.048.098.054.165.018.095-.05.19-.122.297-.198.097-.07.15-.124.16-.158.01-.035-.01-.09-.063-.167l-.472-.654a1.343 1.343 0 01-.088-.132c-.04-.075-.025-.145.045-.21l.192-.163c.08-.07.137-.13.17-.183a.819.819 0 00.146-.505.757.757 0 00-.18-.457l-.229-.252-.002.002zm.128-1.284a2.527 2.527 0 00-.136-.117c-.058-.043-.11-.044-.16-.001a2.615 2.615 0 00-.14.142c-.081.086-.12.145-.118.177 0 .034.044.094.131.183l2.123 2.154c.05.05.09.087.12.108.057.044.118.036.182-.022.048-.044.114-.11.199-.2.108-.116.164-.193.169-.231.001-.039-.045-.1-.138-.184l-1.13-1.017-1.102-.992zm2.916.6c-.081.111-.178.156-.29.133a.52.52 0 01-.195-.103l-1.333-.982a1.077 1.077 0 01-.124-.1c-.094-.093-.108-.195-.04-.307.07-.112.163-.153.284-.12a.67.67 0 01.16.075l1.434.946a.419.419 0 01.143.14c.057.103.045.21-.039.319zm-1.589-2.099a.832.832 0 00-.385.006.642.642 0 00-.323.162 1.658 1.658 0 00-.285.405.39.39 0 00-.034.184c.007.344.107.612.344.801l.723.603.737.613a.71.71 0 00.383.176.899.899 0 00.514-.09c.157-.082.303-.213.435-.39a1.125 1.125 0 00.15-1.108.39.39 0 00-.08-.12 2.785 2.785 0 00-.312-.253l-1.46-.834a1.548 1.548 0 00-.407-.155zm1.327.211l1.308.684c.073.038.127.063.163.074.072.026.135-.003.189-.087.024-.035.06-.103.103-.204.075-.163.108-.263.099-.3-.008-.039-.075-.085-.198-.14l-.5-.225-.5-.225a.582.582 0 01-.188-.114c-.022-.025-.03-.05-.022-.077.008-.03.029-.047.062-.048.073-.004.134-.004.185 0 .164.008.365.014.614.019.363.003.571-.004.62-.005l.082-.002.08-.003c.088-.003.151-.053.189-.15.047-.118.08-.215.101-.29.05-.166.068-.27.053-.31-.016-.04-.088-.079-.216-.117l-2.883-.86a1.622 1.622 0 00-.154-.04c-.056-.01-.093.008-.112.053-.026.063-.05.133-.073.21-.032.112-.05.178-.034.207.013.03.078.066.194.108l1.03.376c.076.028.125.047.148.057.026.013.06.034.1.063.027.019.037.043.029.073-.008.03-.028.047-.061.05a13.048 13.048 0 01-.636-.04 25.996 25.996 0 01-.554-.055l-.198-.024-.197-.024c-.073-.01-.123.01-.148.063-.075.15-.126.29-.186.4-.025.05-.009.093.049.13.033.022.084.052.154.089.194.1.63.329 1.308.684zm2.906-3.06c.026-.222.041-.339.038-.352a.868.868 0 00-.181-.518.7.7 0 00-.407-.283c-.363-.09-.703.01-1.017.262a4.418 4.418 0 00-.414.377 1.565 1.565 0 01-.253.208c-.195.126-.384.152-.568.093-.133-.045-.2-.124-.202-.237-.001-.114.068-.188.209-.227.016-.004.038-.01.068-.016l.066-.016a.118.118 0 00.094-.115 1.445 1.445 0 00-.032-.398c-.01-.05-.043-.075-.1-.073a.922.922 0 00-.536.175.76.76 0 00-.265.34.895.895 0 00-.06.462.763.763 0 00.17.422c.11.136.256.238.442.3.32.106.635.074.954-.13.014-.008.189-.122.5-.377l.296-.244a.518.518 0 01.399-.116c.069.01.13.045.177.106.048.06.073.127.075.201.004.157-.07.273-.225.342a.276.276 0 01-.076.023l-.07.01-.07.008c-.054.008-.092.022-.114.043a.228.228 0 00-.05.122 4.57 4.57 0 00-.047.391c-.008.063.015.102.068.12a.471.471 0 00.116.026c.169.013.358-.03.571-.134a.779.779 0 00.221-.198c.13-.153.192-.357.223-.597zM77.78 87.9c.088.002.141.003.16.002.063-.002.105-.016.127-.04.02-.023.034-.072.04-.149.002-.044.01-.121.007-.231-.006-.157-.023-.252-.05-.285-.026-.033-.1-.048-.222-.044l-.458.01-.458.012a1.536 1.536 0 01-.162-.001c-.08-.01-.125-.056-.132-.14-.012-.082-.008-.187-.017-.314-.003-.07.028-.12.095-.151a.736.736 0 01.215-.044l.874-.073c.069-.008.122-.016.16-.023.06-.016.088-.064.085-.145 0-.057-.005-.141-.016-.253-.014-.173-.049-.274-.08-.306-.032-.032-.113-.038-.243-.02l-2.983.433c-.065.01-.11.018-.137.025-.07.018-.104.058-.099.119.006.043.009.112.017.203.01.116.029.183.054.204.027.02.1.025.223.016l.45-.037.446-.038c.072-.006.132-.007.179-.004.078.005.126.049.144.129a.739.739 0 01.021.211c0 .093-.014.154-.042.185-.027.031-.082.05-.167.055l-.139.004-.839.023a1.885 1.885 0 00-.158.01c-.07.01-.109.045-.113.106-.003.043 0 .11 0 .204-.005.116.004.185.026.21.024.023.097.037.22.04l1.515.05 1.458.047zm-3.203-2.703a2.26 2.26 0 00-.172.048c-.068.023-.098.067-.09.13.006.043.02.11.04.198.026.115.054.18.078.198.026.018.1.016.222-.007l2.964-.552a1.01 1.01 0 00.157-.039c.067-.023.101-.079.088-.165a3.905 3.905 0 00-.055-.277c-.034-.155-.067-.245-.096-.27-.03-.023-.107-.02-.229.011l-1.472.367-1.435.358zm.489-1.192l-.32.116c-.125.037-.205-.006-.24-.131-.05-.18.001-.319.15-.42.122-.083.268-.148.438-.194a.327.327 0 01.276.05.403.403 0 01.156.25c.02.095-.009.159-.083.191l-.378.136.001.002zm-.443-1.07l-.343.169c-.265.16-.403.382-.417.655a.945.945 0 00.016.215c.01.07.024.139.049.205a58.618 58.618 0 01.178.504c.033.114.064.178.093.192.028.014.102.004.22-.03l2.943-.862a.803.803 0 00.133-.049c.057-.028.077-.079.06-.153a4.552 4.552 0 00-.096-.346c-.042-.113-.08-.178-.11-.196-.031-.02-.09-.016-.178.013l-.756.272a1.375 1.375 0 01-.15.048c-.084.018-.148-.016-.191-.101a2.764 2.764 0 01-.097-.234.676.676 0 00-.127-.215.885.885 0 00-.443-.282.718.718 0 00-.48.042l-.306.15.002.003z" fill="#fff"/><path d="M81.015 90.728l-.005-4.738h-.005c.003-.107.009-.213.009-.321 0-7.387-7.182-13.4-16.012-13.4s-16.011 6.013-16.011 13.4v.001h-.002v5.058h.002c0 7.39 7.182 13.402 16.011 13.402 8.83 0 16.012-6.012 16.012-13.402z" fill="#0C1423"/><path d="M89.195 65.905a.82.82 0 00.186-.66.792.792 0 00-.156-.35 1.417 1.417 0 00-.088-.102l-.376-.404-.634-.675-.658-.694-.172-.18a.808.808 0 00-.355-.218.83.83 0 00-.801.198 1.05 1.05 0 00-.125.142l-.415.572-.186.258a.93.93 0 00-.165.306.898.898 0 00.07.68l.017.029-9.454 9.136a.766.766 0 00-.852.549.781.781 0 00.011.468L48.78 100.014l-.01.012c-.018.02-1.734 2.038-3.948 2.26-.763.076-1.518.075-2.244-.003l-1.537-.31-.012-.005-.047-.01-.006-.001-.001-.008-2.203-.532a23.741 23.741 0 01-.239-.069l-1.697-.523c-.308-.099-.637-.206-.987-.322l-.932-.311c-.392-.132-.746-.253-1.074-.365l-.036-.012c-.367-.125-.69-.235-.975-.33l-.556-.188.002.008c-1.24-.39-1.763-.43-2.524-.113-1.243.517-1.426 2.661-1.442 2.895 0 .01-.098 1.076.731 1.944.347.364.806.64 1.363.821.192.062.412.129.657.2l-.007.01.495.127c.504.138 1.09.289 1.74.447l.128.033v.001l.052.012.09.022v-.001l.14.032c.518.124 1.066.251 1.626.377l.01.002-.01.013.514.1c.492.109.808.176.82.178l.012.003c.038.006.295.053.675.118l.196.039.415.077-.002-.013.053.009c.602.1 1.167.187 1.677.261l.055.009v.005l.157.019.029.004v-.001l.074.009c.582.081 1.081.14 1.478.176l.072.009.373.042-.003-.017c1.557.086 2.782-.168 3.475-.728.626-.505 11.343-10.503 11.454-10.607l19.868-19.108a.724.724 0 00.751-.003.745.745 0 00.338-.796l9.505-9.186a.786.786 0 00.706-.017l.01-.006c.053-.03.105-.064.158-.099l.085-.054.55-.355.154-.1a.933.933 0 00.22-.19z" fill="#0C1423"/><path d="M88.168 65.238l-1.023.984-1.082 1.041-.029.029-.925.888-.03.029-.922.888-.031.03-.922.886-.031.03-.922.886-.032.031-.922.887-.033.032-.92.885-.033.032-.92.884-.034.033-.92.884-.034.033-.919.885-.035.033-.147.141v.001l-.625.6-20.054 19.29s-10.816 10.089-11.433 10.588c-.617.498-1.835.783-3.606.629-1.77-.155-4.857-.717-4.857-.717s-4.181-.883-6.22-1.545c-2.038-.66-1.866-2.414-1.866-2.414s.099-1.419.713-2.2c.106-.119.796-.798 2.353-.237 1.703.615 8.901 3.594 12.017 3.55 1.13-.017 2.874-.21 4.847-2.084l27.191-25.817-.3-.315.617-.59.01-.009.514-.49.08-.077.876-.835.084-.082.872-.83.09-.086.867-.827.094-.089.862-.823.098-.094.859-.819.102-.097.854-.815.107-.102.85-.81.11-.106.846-.807.115-.11.841-.802.12-.115.64-.61.178-.17.49-.468.413-.394c1.076.508 1.117 1.278 1.117 1.278z" fill="#0C1423"/><path d="M88.168 65.239l-4.822 4.676L70.619 82.23l-8.511 8.22-4.65 4.486c-.787.77-1.61 1.524-2.43 2.293l-2.489 2.323-5.109 4.748-1.304 1.202-.66.6c-.113.099-.227.204-.363.29a2.726 2.726 0 01-.414.219c-.574.237-1.186.324-1.79.353a11.286 11.286 0 01-1.812-.081 66.106 66.106 0 01-3.578-.527c-.3-.053-.593-.099-.897-.161l-.888-.193c-.592-.131-1.183-.266-1.774-.406-1.182-.286-2.364-.567-3.534-.947-.146-.06-.3-.102-.438-.181l-.212-.11-.2-.132a2.59 2.59 0 01-.674-.689 2.46 2.46 0 01-.393-1.389c.01-.166.032-.316.056-.472.107-.614.262-1.235.642-1.776.1-.15.245-.25.386-.333.145-.082.3-.143.46-.18.318-.081.646-.074.96-.029.314.044.62.142.905.25l.855.325 1.702.648c1.135.425 2.274.835 3.419 1.211 1.145.374 2.296.72 3.459.983.58.135 1.166.231 1.75.296.293.009.583.038.877.02.293-.011.584-.038.87-.088 1.151-.19 2.212-.745 3.107-1.481.447-.366.863-.784 1.29-1.184l1.27-1.204 2.514-2.382 18.186-17.207c1.849-1.744 3.59-3.386 4.467-4.215l-.298-.315 8.075-7.658 2.073-1.96c.605-.567 1.109-1.068 1.537-1.44.529.25.83.594.967.857.07.131.104.24.121.313a.664.664 0 01.02.112s-.003-.04-.02-.112a1.301 1.301 0 00-.124-.311c-.136-.26-.45-.606-.963-.842-.051.02-.1.089-.156.136l-.169.162-.363.349-.829.798-2.056 1.978-7.942 7.622.303.315-4.532 4.33-18.127 17.27-2.509 2.386-1.269 1.206c-.426.4-.839.818-1.303 1.199-.917.759-2.023 1.342-3.225 1.541a6.702 6.702 0 01-.904.094c-.3.019-.607-.01-.91-.02a15.54 15.54 0 01-1.787-.298c-1.177-.265-2.335-.613-3.485-.988a87.694 87.694 0 01-3.43-1.213l-1.705-.647-.852-.322a3.945 3.945 0 00-.85-.236 2.176 2.176 0 00-.852.024 1.45 1.45 0 00-.389.152c-.118.07-.233.15-.3.258-.33.464-.49 1.066-.588 1.651-.023.147-.044.3-.053.44a2.176 2.176 0 00.348 1.222c.313.485.824.812 1.377 1 1.146.373 2.332.657 3.508.942.59.14 1.18.276 1.77.407l.885.193c.288.058.592.107.887.159a65.64 65.64 0 003.562.527c.593.069 1.182.109 1.77.083.584-.026 1.172-.112 1.7-.33.129-.057.257-.118.372-.195.116-.073.223-.17.333-.267l.658-.596 1.305-1.198 5.116-4.739 2.495-2.317c.823-.768 1.645-1.517 2.435-2.285l4.662-4.47 8.545-8.184 12.8-12.238 4.86-4.636z" fill="#fff"/><path d="M87.257 66.34l-1.547-1.62a.525.525 0 01-.049-.653l.657-.89c.184-.247.507-.288.708-.077l1.892 1.983c.202.211.149.534-.105.708l-.91.625a.517.517 0 01-.646-.075z" fill="#0C1423"/><path d="M87.257 66.34l-.317-.306-.826-.814-.264-.265-.14-.14a.736.736 0 01-.139-.172.612.612 0 01-.048-.467.659.659 0 01.117-.213l.13-.181.27-.37c.044-.063.09-.125.136-.188l.069-.096a.793.793 0 01.09-.1.552.552 0 01.524-.134.527.527 0 01.24.15l.166.173.657.693.633.674.302.323c.05.057.094.099.148.165a.49.49 0 01.097.22.532.532 0 01-.122.428.667.667 0 01-.157.134 81.596 81.596 0 01-.704.456c-.083.052-.156.102-.232.146a.508.508 0 01-.233.058.54.54 0 01-.31-.097c-.062-.045-.087-.077-.087-.077s.028.03.091.069c.063.038.17.079.305.07a.46.46 0 00.209-.067c.066-.045.14-.103.219-.16l.528-.386c.095-.074.209-.135.276-.224.07-.09.105-.21.081-.324a.361.361 0 00-.075-.156c-.037-.043-.096-.099-.144-.149l-.309-.316-.644-.663-.662-.689-.165-.174a.346.346 0 00-.159-.102.374.374 0 00-.355.09.634.634 0 00-.067.075l-.07.094c-.048.062-.094.124-.14.186l-.276.365-.134.178a.515.515 0 00-.1.165.47.47 0 00.026.356c.052.1.165.195.246.291l.252.277.776.864.29.33z" fill="#fff"/><path d="M77.376 76.395a.427.427 0 01-.308.12.429.429 0 01-.304-.133l-1.307-1.37a.438.438 0 01.012-.614.43.43 0 01.611.012l1.313 1.375a.439.439 0 01-.017.61z" fill="#0C1423"/><path d="M77.376 76.395c-.001-.006-.064.094-.247.128a.45.45 0 01-.317-.07c-.105-.082-.193-.184-.304-.291l-.733-.742c-.133-.142-.269-.266-.41-.433a.499.499 0 01.063-.632.482.482 0 01.628-.037l.066.054.05.054.102.108.199.212.707.767c.101.116.2.208.275.317a.458.458 0 01.058.322c-.04.183-.144.24-.137.243-.007-.001.09-.07.114-.247a.417.417 0 00-.072-.294c-.071-.09-.183-.186-.287-.295l-.733-.741-.202-.209-.103-.106-.052-.053-.051-.04a.368.368 0 00-.48.03.381.381 0 00-.052.483c.115.14.266.288.391.426l.707.766c.104.11.195.225.281.301a.415.415 0 00.29.085c.176-.018.249-.112.249-.106z" fill="#fff"/><path d="M75.762 75.332l-27.191 25.816c-1.973 1.874-3.718 2.068-4.847 2.084-3.116.045-10.314-2.934-12.016-3.55-1.558-.56-2.248.12-2.354.238.145-.185.319-.335.526-.421 1.089-.453 1.6-.095 5.807 1.3 4.209 1.395 5.247 1.487 5.247 1.487s1.528.569 3.92.329c2.394-.239 4.169-2.376 4.169-2.376L75.46 75.017l.301.315z" fill="#fff"/><path d="M31.915 99.649c.242.09.557.21.93.354 2.677 1.026 8.257 3.166 10.877 3.125 1.235-.017 2.895-.267 4.778-2.055l27.116-25.745-.158-.165-26.364 25.151c-.066.08-1.822 2.163-4.23 2.403-2.301.232-3.792-.271-3.953-.329-.141-.016-1.291-.177-5.256-1.491-.769-.255-1.414-.475-1.962-.662-.758-.258-1.327-.453-1.778-.586zm11.739 3.688c-2.697 0-8.217-2.118-10.882-3.14-.468-.18-.845-.325-1.1-.417-1.483-.534-2.127.08-2.24.21l-.159-.134c.166-.213.357-.366.568-.453.925-.385 1.44-.21 3.918.636.548.186 1.193.406 1.96.661 4.134 1.37 5.214 1.482 5.224 1.483l.026.005c.016.006 1.538.558 3.875.323 2.324-.232 4.082-2.318 4.1-2.339l26.52-25.302.444.465-.075.072S50.614 99.35 48.642 101.224c-1.936 1.837-3.644 2.094-4.917 2.112l-.071.001z" fill="#fff"/><path d="M29.43 99.99l-.171-.117.02-.022.151.14z" fill="#fff"/><path d="M32.55 99.573l1.004 6.054 1.89.419 3.324-4.503-1.887-.562-1.99 2.829-.656-3.681-1.686-.556z" fill="#F04941"/><path d="M33.646 105.54l1.754.388 3.194-4.326-1.67-.498-2.093 2.974-.688-3.868-1.462-.481.965 5.811zm1.842.624l-2.025-.449-1.046-6.296 1.91.629.622 3.496 1.89-2.686 2.103.627-3.454 4.679z" fill="#0C1423"/><path d="M37.7 106.481l-1.093-5.58-1.804-.586-3.512 4.758 1.95.482 2.059-2.927.626 3.52 1.773.333z" fill="#F04941"/><path d="M36.017 106.058l1.55.292-1.051-5.367-1.674-.543-3.373 4.569 1.727.426 2.163-3.073.658 3.696zm1.815.557l-1.996-.376-.595-3.344-1.956 2.78-2.173-.536 3.651-4.947 1.935.628 1.134 5.795z" fill="#0C1423"/><path d="M36.776 101.023l1.323 5.48 1.85.269 3.003-4.245-1.75-.335-1.912 2.774-.728-3.408-1.786-.535z" fill="#F04941"/><path d="M38.182 106.41l1.72.25 2.872-4.062-1.525-.292-2.01 2.915-.765-3.581-1.555-.466 1.264 5.236zm1.814.473l-1.981-.288-1.381-5.723 2.016.604.691 3.234 1.815-2.633 1.973.378-3.133 4.428z" fill="#0C1423"/><path d="M42.019 107.049l-.86-4.962-1.965-.425-3.268 4.486 1.913.35 2.012-2.684.544 3.058 1.624.177z" fill="#F04941"/><path d="M40.485 106.775l1.406.153-.824-4.754-1.829-.395-3.128 4.295 1.684.308 2.119-2.825.572 3.218zm1.66.393l-1.839-.2-.515-2.898-1.907 2.543-2.142-.392 3.407-4.677 2.1.454.897 5.17zm43.658-42.352l-9.831 9.5 1.454 1.503 9.82-9.49-1.443-1.513z" fill="#0C1423"/><path d="M76.118 74.32l1.31 1.353 9.672-9.347-1.3-1.363-9.682 9.356zm1.306 1.645l-1.598-1.65 9.98-9.645 1.586 1.662-9.968 9.633z" fill="#fff"/><path d="M85.097 65.499l.576.255.433 1.676-1.01-1.931z" fill="#0C1423"/><path d="M85.097 65.499l.1.022c.063.018.155.037.26.071l.118.037c.044.015.07.023.17.063l.046.15.063.204.059.213.052.214.044.21c.028.135.05.263.064.374.016.11.02.204.028.27l.005.103-.045-.093c-.025-.06-.067-.145-.106-.25a5.7 5.7 0 01-.127-.358l-.062-.204-.059-.212-.051-.215-.045-.209-.011-.06v-.013c.009 0-.05-.03-.085-.05l-.107-.062c-.096-.056-.172-.11-.227-.145l-.084-.06z" fill="#fff"/><path d="M84.144 66.42l.576.255.434 1.676-1.01-1.931z" fill="#0C1423"/><path d="M84.144 66.42l.101.022c.063.018.154.037.26.071l.117.037c.045.016.07.023.17.063l.047.15.063.204.058.213.052.214.045.209c.028.136.049.264.064.375.016.11.02.205.027.27l.006.103-.045-.093c-.025-.06-.067-.145-.106-.25a5.492 5.492 0 01-.127-.357l-.062-.205-.059-.212a40.475 40.475 0 00-.051-.215l-.045-.209-.012-.06.001-.013c.008 0-.05-.03-.085-.05l-.107-.062c-.096-.056-.172-.11-.228-.145l-.084-.06z" fill="#fff"/><path d="M83.192 67.34l.576.255.434 1.675-1.01-1.93z" fill="#0C1423"/><path d="M83.192 67.34l.1.022c.063.017.155.037.26.07l.118.038c.044.015.071.023.17.063l.047.15.062.204.06.213.051.214.045.209c.027.136.049.264.063.374.016.11.02.205.028.27l.006.103-.046-.092c-.025-.06-.067-.145-.106-.25a5.428 5.428 0 01-.126-.358l-.062-.204-.06-.213-.05-.214-.045-.21-.012-.06v-.012c.01 0-.05-.03-.085-.05l-.106-.063c-.096-.055-.173-.11-.228-.144l-.084-.06z" fill="#fff"/><path d="M82.24 68.26l.576.255.433 1.676-1.01-1.931z" fill="#0C1423"/><path d="M82.24 68.26l.1.022c.063.017.155.037.26.07l.118.038c.044.015.07.023.17.063l.047.15.062.204.059.212.052.215.044.209c.028.136.05.264.064.375.016.11.02.204.028.27l.005.103-.045-.094c-.025-.06-.067-.144-.106-.248a5.308 5.308 0 01-.126-.359l-.063-.204-.058-.213-.052-.214-.045-.21-.011-.06v-.012c.009 0-.05-.03-.085-.05l-.106-.063c-.096-.055-.173-.11-.228-.144l-.084-.06z" fill="#fff"/><path d="M81.287 69.18l.576.255.434 1.676-1.01-1.931z" fill="#0C1423"/><path d="M81.287 69.18l.101.022c.063.018.154.037.26.07l.117.038c.045.015.071.023.17.063l.048.15.062.204.059.213.051.214.045.209c.028.136.05.264.064.375.016.11.02.204.028.27l.005.103-.045-.093c-.025-.06-.067-.145-.107-.25a5.583 5.583 0 01-.188-.562l-.059-.213-.051-.214-.045-.21-.012-.06.001-.012c.008 0-.05-.03-.085-.05l-.107-.062c-.096-.056-.172-.11-.228-.145l-.084-.06z" fill="#fff"/><path d="M80.335 70.1l.576.256.434 1.675-1.01-1.93z" fill="#0C1423"/><path d="M80.335 70.1l.1.023c.063.017.155.037.26.07l.118.038c.044.015.071.023.17.063.014.041.03.095.047.15l.062.204.06.212.051.215.045.209c.027.136.049.264.063.374.016.11.021.205.028.27l.006.103-.046-.093c-.025-.06-.067-.145-.106-.249a5.392 5.392 0 01-.126-.358l-.062-.204-.059-.213-.052-.214-.044-.21-.012-.06v-.013c.01 0-.05-.03-.084-.05l-.107-.062c-.096-.055-.173-.11-.228-.145l-.084-.06z" fill="#fff"/><path d="M79.383 71.02l.576.255.433 1.676-1.01-1.93z" fill="#0C1423"/><path d="M79.383 71.02l.1.023c.063.017.155.037.26.07.037.013.076.025.118.038.044.015.07.022.17.063l.047.15.062.204.06.212.05.215.046.209c.027.136.048.264.063.375.016.11.02.204.028.269l.005.103-.045-.093c-.025-.06-.067-.144-.106-.249a5.625 5.625 0 01-.126-.358l-.063-.204-.058-.213-.052-.214-.044-.21-.012-.06v-.013c.009 0-.05-.03-.085-.05l-.106-.062c-.097-.055-.173-.11-.228-.144l-.084-.06z" fill="#fff"/><path d="M78.43 71.941l.576.255.434 1.676-1.01-1.93z" fill="#0C1423"/><path d="M78.43 71.941l.101.022c.063.018.154.038.26.071l.117.037c.045.016.071.023.17.064l.048.15.062.204.059.212.052.215.044.209c.028.135.05.263.064.374.016.11.02.205.028.27l.005.103-.045-.093c-.025-.06-.067-.145-.106-.25a5.573 5.573 0 01-.127-.357l-.062-.205-.058-.212-.052-.214-.045-.21-.012-.06c0-.007.001-.008.002-.013.007 0-.05-.03-.086-.05l-.107-.062c-.096-.055-.172-.11-.228-.145l-.083-.06z" fill="#fff"/><path d="M77.478 72.861l.576.255.434 1.676-1.01-1.93z" fill="#0C1423"/><path d="M77.478 72.861l.1.022c.063.018.155.038.26.071l.118.038c.044.015.071.022.17.063.014.041.03.095.047.15l.063.204.058.212.052.214.045.21c.027.135.049.263.063.374.017.11.02.205.028.27l.006.103-.046-.093c-.025-.06-.066-.145-.106-.249a5.622 5.622 0 01-.188-.563l-.059-.212-.052-.215-.044-.209-.012-.06.001-.013c.008 0-.05-.03-.085-.05a16.052 16.052 0 01-.107-.062c-.096-.056-.173-.11-.228-.145l-.084-.06z" fill="#fff"/><path d="M76.526 73.781l.576.255.433 1.676-1.009-1.93z" fill="#0C1423"/><path d="M76.526 73.781l.1.022c.063.018.155.038.26.072l.118.037c.044.015.07.022.17.062l.047.15.063.205.058.212.052.214.045.21c.027.135.049.264.063.374.016.11.02.205.028.27l.005.103-.045-.093c-.025-.06-.067-.145-.106-.249a5.653 5.653 0 01-.189-.563l-.058-.212-.052-.215-.044-.209-.012-.06.001-.013c.008 0-.05-.03-.086-.05a16.65 16.65 0 00-.106-.062c-.096-.056-.173-.11-.228-.145l-.084-.06z" fill="#fff"/><path d="M76.385 74.73l.406-.425c.261-.268.63-.655 1.08-1.11.45-.456.978-.984 1.547-1.547l.88-.865.913-.888.918-.882.894-.85c.582-.55 1.128-1.059 1.6-1.492.47-.435.868-.79 1.144-1.041l.439-.39-.406.424c-.261.268-.63.655-1.08 1.11-.449.456-.977.984-1.546 1.546l-.88.866-.913.888-.919.881-.895.85c-.581.55-1.127 1.06-1.598 1.493-.47.434-.87.79-1.145 1.041l-.439.39zm10.273-9.352c-.548-.574-.671-.75-.696-.804-.1-.215-.071-.286.116-.552.092-.132.315-.423.47-.623.022.476.108 1.496.42 2.3l-.31-.321z" fill="#fff"/><path d="M40.804 66.424a.82.82 0 01-.186-.66.792.792 0 01.156-.351 1.41 1.41 0 01.09-.102l.375-.403.634-.676.658-.694.172-.179a.807.807 0 01.355-.218.828.828 0 01.801.198c.044.04.085.087.124.141l.416.572.186.258c.059.078.13.183.164.306a.898.898 0 01-.086.71l9.454 9.136a.766.766 0 01.851.549.781.781 0 01-.01.467l26.262 25.055.01.012c.017.02 1.734 2.038 3.948 2.259.763.076 1.518.076 2.244-.002l1.537-.311.012-.004.047-.01.005-.001.002-.009 2.203-.531.239-.07 1.697-.523c.308-.098.637-.205.987-.321l.932-.312c.391-.131.746-.252 1.073-.364l.037-.013c.366-.125.689-.235.975-.33l.556-.188-.002.008c1.24-.389 1.762-.429 2.524-.112 1.243.517 1.426 2.661 1.442 2.894.001.011.098 1.076-.731 1.945-.347.364-.806.639-1.363.82-.193.062-.413.13-.658.201l.008.009-.495.128a67.04 67.04 0 01-1.74.447l-.129.032v.001l-.05.012-.09.023-.001-.002-.14.033c-.518.124-1.066.251-1.626.377l-.01.002.01.013-.513.099c-.493.109-.809.176-.82.179l-.013.002-.675.119-.196.039-.416.077.003-.013-.054.009c-.6.099-1.166.187-1.676.261l-.055.009-.001.005-.156.018-.03.005v-.001l-.073.009c-.582.08-1.082.14-1.478.176l-.072.008-.373.043.003-.018c-1.557.087-2.782-.167-3.475-.727-.626-.506-11.343-10.503-11.454-10.607L53.28 77.229a.724.724 0 01-.751-.003.745.745 0 01-.338-.796l-9.505-9.186a.79.79 0 01-.706-.017l-.01-.005a3.657 3.657 0 01-.159-.1l-.084-.053-.55-.356-.154-.1a.941.941 0 01-.22-.189z" fill="#0C1423"/><path d="M41.832 65.758l1.023.984 1.082 1.04.029.03.925.888.03.028.922.888.03.03.923.887.032.03.921.886.032.031.922.887.033.031.92.886.033.032.92.884.034.032.92.885.033.033.92.884.035.034.147.141.625.601 20.054 19.288s10.816 10.089 11.433 10.588c.617.499 1.835.784 3.606.629 1.77-.154 4.857-.717 4.857-.717s4.181-.882 6.22-1.544c2.038-.661 1.866-2.415 1.866-2.415s-.099-1.418-.713-2.199c-.106-.119-.796-.799-2.354-.237-1.702.614-8.9 3.594-12.016 3.549-1.13-.016-2.874-.21-4.847-2.084L54.238 75.851l.3-.315-.617-.589-.01-.009-.514-.49-.08-.077-.876-.835-.084-.082-.872-.83-.09-.087-.867-.827-.093-.088-.864-.824-.097-.093-.859-.82-.102-.097-.854-.814-.107-.102-.85-.811-.11-.106-.846-.807-.115-.11-.841-.802-.12-.114-.64-.61v-.001l-.178-.17-.49-.468-.413-.394c-1.077.508-1.117 1.279-1.117 1.279z" fill="#0C1423"/><path d="M41.832 65.757l4.86 4.637 12.8 12.237 8.545 8.184 4.662 4.47c.79.769 1.612 1.518 2.435 2.286l2.495 2.317 5.116 4.739 1.305 1.198.658.596c.11.096.217.194.332.266.116.078.244.139.374.196.528.218 1.115.304 1.7.329a10.95 10.95 0 001.769-.082 66.595 66.595 0 003.562-.527c.295-.052.599-.101.887-.159l.885-.194c.59-.131 1.18-.266 1.77-.406 1.176-.285 2.362-.569 3.508-.942.553-.188 1.064-.515 1.378-1a2.175 2.175 0 00.347-1.222 4.968 4.968 0 00-.053-.44c-.098-.586-.259-1.187-.587-1.651-.068-.109-.183-.188-.301-.258a1.44 1.44 0 00-.389-.152 2.16 2.16 0 00-.852-.024c-.29.04-.567.128-.85.235l-.852.323-1.704.647c-1.138.426-2.28.836-3.43 1.213-1.152.375-2.31.722-3.486.987-.588.136-1.185.233-1.786.299-.304.009-.61.038-.911.02a6.693 6.693 0 01-.904-.094c-1.202-.2-2.308-.782-3.225-1.541-.464-.381-.877-.799-1.304-1.199l-1.268-1.207-2.51-2.386-18.126-17.27-4.532-4.329.303-.315-7.942-7.623-2.056-1.977-.83-.799-.362-.348-.169-.162c-.056-.048-.105-.116-.157-.137-.513.237-.827.583-.962.843-.07.13-.105.238-.123.31a.658.658 0 00-.02.112s.001-.039.018-.112c.018-.073.052-.181.122-.312.137-.263.438-.608.967-.857.428.372.932.873 1.538 1.439l2.072 1.96 8.075 7.659-.299.314 4.468 4.216L76.98 97.27l2.513 2.382 1.27 1.204c.428.4.844.818 1.291 1.184.895.736 1.956 1.291 3.107 1.48.286.05.577.078.87.089.294.018.584-.012.876-.02.585-.066 1.17-.162 1.751-.297 1.163-.262 2.314-.608 3.46-.982a87.2 87.2 0 003.418-1.212l1.702-.647.855-.325c.285-.108.591-.207.905-.25.314-.046.642-.052.96.029.159.037.314.097.46.18.141.083.287.182.386.333.38.541.535 1.162.642 1.776.024.156.046.306.056.472a2.457 2.457 0 01-.393 1.389 2.596 2.596 0 01-.673.689l-.201.132-.212.109c-.139.08-.292.122-.438.182-1.17.379-2.352.661-3.534.946-.59.141-1.182.276-1.774.407l-.888.193c-.305.061-.598.108-.897.161a67.067 67.067 0 01-3.579.527 11.4 11.4 0 01-1.81.08c-.605-.028-1.217-.116-1.79-.353a2.618 2.618 0 01-.415-.218c-.137-.087-.25-.191-.363-.291l-.66-.6-1.304-1.201-5.11-4.748-2.489-2.323c-.82-.77-1.642-1.523-2.43-2.294l-4.649-4.485-8.51-8.22-12.728-12.316-4.822-4.676z" fill="#fff"/><path d="M42.743 66.86l1.547-1.62a.525.525 0 00.048-.654l-.656-.889c-.184-.248-.507-.289-.708-.077l-1.893 1.983c-.201.21-.148.534.106.708l.91.624a.516.516 0 00.646-.075z" fill="#0C1423"/><path d="M42.743 66.86l.29-.331.776-.863.253-.277c.081-.097.194-.192.245-.291a.47.47 0 00.027-.356.51.51 0 00-.1-.165 362.162 362.162 0 00-.55-.73l-.07-.093a.634.634 0 00-.068-.075.373.373 0 00-.354-.09.35.35 0 00-.16.101l-.164.175-.662.688-.644.664-.31.316c-.047.05-.107.105-.143.149a.364.364 0 00-.076.156.403.403 0 00.082.323c.067.09.18.151.276.225l.529.386c.078.056.152.114.218.16a.456.456 0 00.209.066.52.52 0 00.396-.138s-.025.032-.086.076a.517.517 0 01-.543.04c-.077-.045-.15-.095-.233-.147l-.55-.355-.154-.1a.672.672 0 01-.157-.135.532.532 0 01-.122-.427.501.501 0 01.097-.22c.053-.067.098-.109.149-.165l.3-.323.634-.675.657-.693.166-.173a.532.532 0 01.24-.15.553.553 0 01.525.134.791.791 0 01.089.1l.069.096.137.189.268.37.131.18a.69.69 0 01.117.213.61.61 0 01-.048.468.736.736 0 01-.14.171 2367.25 2367.25 0 00-.404.405l-.825.815-.317.306z" fill="#fff"/><path d="M52.624 76.913a.427.427 0 00.308.12.427.427 0 00.304-.133l1.307-1.369a.437.437 0 00-.012-.615.43.43 0 00-.611.013l-1.313 1.375a.439.439 0 00.017.61z" fill="#0C1423"/><path d="M52.624 76.913c0-.005.073.088.25.106a.415.415 0 00.288-.084c.087-.076.178-.192.282-.3l.706-.767c.126-.138.277-.286.392-.426a.382.382 0 00-.052-.483.368.368 0 00-.48-.03l-.051.04-.052.053-.103.107-.202.208-.733.741c-.104.11-.216.205-.288.295a.42.42 0 00-.072.294c.025.176.121.245.115.246.007-.001-.096-.06-.137-.242a.458.458 0 01.057-.322c.076-.109.175-.2.276-.317l.707-.767.199-.212.101-.107.051-.055.066-.054a.482.482 0 01.627.037.497.497 0 01.064.632c-.141.167-.277.291-.41.433l-.733.742c-.111.107-.2.209-.304.29a.451.451 0 01-.317.071c-.183-.034-.246-.135-.247-.129z" fill="#fff"/><path d="M54.238 75.851l27.191 25.817c1.973 1.874 3.718 2.068 4.847 2.084 3.116.045 10.314-2.935 12.016-3.549 1.558-.562 2.248.118 2.354.237a1.317 1.317 0 00-.527-.422c-1.088-.452-1.599-.094-5.806 1.3-4.209 1.395-5.247 1.487-5.247 1.487s-1.528.569-3.92.329c-2.393-.238-4.169-2.375-4.169-2.375L54.539 75.536l-.301.315z" fill="#fff"/><path d="M54.384 75.848c1.511 1.434 25.206 23.93 27.116 25.745 1.883 1.789 3.543 2.038 4.778 2.056h.07c2.656 0 8.153-2.108 10.806-3.126.373-.143.689-.264.93-.354-.45.134-1.02.328-1.778.586-.548.187-1.193.408-1.961.662-3.965 1.314-5.114 1.475-5.256 1.491-.161.058-1.651.561-3.954.33-2.407-.24-4.163-2.324-4.237-2.412L54.542 75.683l-.158.165zm31.962 28.008h-.071c-1.273-.018-2.982-.274-4.917-2.112l-27.19-25.817-.076-.072.443-.464.075.07 26.438 25.223c.026.03 1.786 2.116 4.107 2.347 2.342.236 3.86-.317 3.875-.323l.027-.006c.01-.001 1.09-.112 5.223-1.482.768-.254 1.412-.474 1.96-.661 2.478-.845 2.993-1.021 3.919-.636.21.087.402.24.568.454l-.158.133c-.114-.129-.759-.744-2.242-.21-.254.092-.631.237-1.1.417-2.664 1.022-8.184 3.139-10.88 3.139z" fill="#fff"/><path d="M100.581 100.523l-.011-.012.152-.141.019.022-.16.131z" fill="#fff"/><path d="M97.476 100.161l-.986 5.944-1.856.411-3.263-4.421 1.853-.552 1.954 2.778.643-3.614 1.655-.546z" fill="#F04941"/><path d="M91.542 102.152l3.135 4.248 1.722-.382.948-5.706-1.435.474-.675 3.797-2.055-2.92-1.64.489zm3.05 4.479l-3.392-4.593 2.065-.616 1.855 2.636.61-3.431 1.876-.618-1.026 6.182-1.989.44z" fill="#0C1423"/><path d="M92.42 106.943l1.072-5.479 1.772-.574 3.448 4.671-1.914.473-2.022-2.874-.615 3.456-1.74.327z" fill="#F04941"/><path d="M93.582 101.544l-1.031 5.269 1.521-.286.646-3.63 2.123 3.018 1.697-.418-3.313-4.486-1.643.533zm-1.292 5.529l1.113-5.689 1.9-.616 3.585 4.856-2.134.527-1.92-2.73-.584 3.284-1.96.368z" fill="#0C1423"/><path d="M93.224 101.542l-1.323 5.479-1.85.269-3.003-4.244 1.75-.335 1.912 2.773.728-3.407 1.786-.535z" fill="#F04941"/><path d="M87.225 103.118l2.874 4.061 1.718-.25 1.264-5.236-1.555.467-.766 3.58-2.01-2.914-1.525.292zm2.779 4.284l-3.133-4.427 1.973-.378 1.815 2.632.691-3.233 2.016-.604-1.381 5.722-1.981.288z" fill="#0C1423"/><path d="M88.18 107.5l.843-4.872 1.93-.417 3.208 4.405-1.878.344-1.976-2.636-.534 3.003-1.594.173z" fill="#F04941"/><path d="M89.113 102.715l-.808 4.667 1.38-.15.562-3.16 2.08 2.775 1.654-.303-3.072-4.217-1.796.388zm-1.059 4.903l.88-5.076 2.063-.446 3.344 4.592-2.102.385-1.872-2.497-.507 2.846-1.806.196zM44.197 65.336l9.83 9.5-1.453 1.503-9.82-9.49 1.443-1.513z" fill="#0C1423"/><path d="M42.9 66.845l9.672 9.347 1.31-1.353-9.682-9.356-1.3 1.362zm9.676 9.64l-9.968-9.633 1.586-1.663 9.98 9.645-1.598 1.65z" fill="#fff"/><path d="M44.903 66.019l-.576.255-.433 1.675 1.01-1.93z" fill="#0C1423"/><path d="M44.903 66.019l-.084.06c-.055.034-.131.089-.228.144l-.106.062c-.035.02-.094.05-.086.05 0 .005.002.006.001.013l-.011.06-.045.21-.052.214-.058.213-.063.204a5.43 5.43 0 01-.126.358c-.04.105-.08.189-.106.25l-.045.092.005-.103c.008-.065.012-.16.028-.27.015-.11.036-.238.064-.374l.044-.21.052-.214.059-.212.062-.205.047-.15c.1-.04.126-.047.17-.062l.117-.037c.106-.034.198-.054.26-.072l.101-.021z" fill="#fff"/><path d="M45.856 66.939l-.577.255-.433 1.675 1.01-1.93z" fill="#0C1423"/><path d="M45.856 66.939l-.085.06c-.055.034-.131.089-.227.144l-.107.062c-.035.02-.093.05-.085.05v.013l-.011.06-.045.21-.051.214-.06.213-.061.204a5.604 5.604 0 01-.126.358c-.04.105-.081.189-.106.25l-.046.093.006-.104c.007-.065.011-.16.028-.27a5.04 5.04 0 01.063-.374c.015-.068.03-.138.044-.21l.052-.214.06-.212c.02-.07.041-.138.062-.205l.046-.149c.1-.04.126-.048.17-.063l.118-.038c.106-.033.197-.053.26-.07l.1-.022z" fill="#fff"/><path d="M46.808 67.86l-.576.254-.434 1.676 1.01-1.93z" fill="#0C1423"/><path d="M46.808 67.86l-.084.059c-.055.035-.132.09-.228.145l-.107.062c-.035.02-.093.05-.085.05l.001.013-.012.06-.044.21-.052.214-.059.212-.062.205a5.618 5.618 0 01-.126.358c-.04.104-.081.189-.106.25l-.046.092.006-.103c.007-.065.012-.16.028-.27.014-.11.036-.239.063-.374l.045-.21.052-.214.059-.213.062-.204.047-.15c.1-.04.125-.047.17-.062l.117-.038c.106-.033.198-.053.26-.07l.1-.023z" fill="#fff"/><path d="M47.76 68.78l-.576.254-.433 1.676 1.01-1.93z" fill="#0C1423"/><path d="M47.76 68.78l-.084.06c-.055.034-.132.088-.228.144l-.106.062c-.036.02-.094.05-.086.05 0 .005.002.007.001.013l-.011.06-.045.21-.052.214-.059.212c-.02.07-.042.138-.062.205a5.596 5.596 0 01-.126.358c-.04.104-.08.189-.106.25l-.045.092.005-.103c.007-.065.012-.16.028-.27.015-.11.036-.239.063-.375l.045-.209.052-.214.059-.213.062-.204.047-.15c.1-.04.126-.047.17-.062l.117-.038c.106-.033.198-.053.26-.07l.101-.023z" fill="#fff"/><path d="M48.712 69.7l-.576.255-.433 1.675 1.01-1.93z" fill="#0C1423"/><path d="M48.712 69.7l-.084.06c-.055.034-.131.088-.227.144l-.107.062c-.035.02-.094.05-.085.05v.013l-.011.06-.045.21-.052.214-.058.212-.062.205a5.54 5.54 0 01-.127.358c-.039.104-.08.189-.106.249l-.045.093.005-.103c.008-.065.012-.16.028-.27.015-.11.036-.239.064-.374.014-.068.03-.138.044-.21l.052-.214.06-.212a98.1 98.1 0 01.108-.354c.1-.04.126-.048.17-.063l.118-.037c.105-.034.197-.054.26-.072l.1-.022z" fill="#fff"/><path d="M49.665 70.62l-.576.255-.434 1.676 1.01-1.93z" fill="#0C1423"/><path d="M49.665 70.62l-.084.06c-.056.034-.132.09-.228.145l-.107.062c-.035.02-.093.05-.085.05v.013l-.01.06-.046.21-.051.214-.059.212-.062.204a5.64 5.64 0 01-.126.359c-.04.104-.081.189-.107.249l-.045.093.005-.104c.008-.065.012-.159.029-.27a5.04 5.04 0 01.063-.374l.045-.209.051-.214.06-.213.061-.204a4.46 4.46 0 00.047-.15c.1-.04.126-.048.17-.063l.118-.037c.106-.034.197-.053.26-.071l.1-.022z" fill="#fff"/><path d="M50.617 71.54l-.576.255-.433 1.676 1.01-1.931z" fill="#0C1423"/><path d="M50.617 71.54l-.084.06c-.055.034-.132.09-.228.145l-.106.062c-.036.02-.094.05-.086.05 0 .005.002.006.001.013l-.011.06-.045.21-.052.214-.059.212a5.59 5.59 0 01-.189.563c-.038.104-.08.188-.105.249l-.045.093.005-.104c.007-.064.012-.159.028-.269.014-.11.036-.239.063-.375l.045-.209.052-.214.059-.212a98.1 98.1 0 01.062-.205l.047-.15c.1-.04.126-.047.17-.063l.117-.037c.106-.034.198-.053.26-.07l.101-.023z" fill="#fff"/><path d="M51.57 72.46l-.577.256-.433 1.676 1.01-1.931z" fill="#0C1423"/><path d="M51.57 72.46l-.085.06c-.055.035-.131.09-.227.145l-.107.062c-.035.02-.094.05-.085.05v.013l-.012.06-.044.21-.052.214-.058.213-.062.204a5.666 5.666 0 01-.127.359c-.039.104-.08.188-.106.249l-.045.093.005-.104c.008-.065.012-.159.028-.27.015-.11.036-.238.064-.374l.044-.209.052-.214.059-.213.062-.204.047-.15c.1-.04.126-.048.17-.063l.118-.037c.105-.034.197-.053.26-.071l.1-.022z" fill="#fff"/><path d="M52.522 73.38l-.576.256-.434 1.676 1.01-1.931z" fill="#0C1423"/><path d="M52.522 73.38l-.085.06c-.055.035-.131.09-.227.145-.034.02-.07.04-.107.063-.035.02-.093.05-.085.05v.012l-.011.061-.045.209-.051.214-.059.213-.062.204a5.54 5.54 0 01-.127.359c-.039.104-.08.188-.105.249l-.046.093.005-.104c.008-.065.012-.16.028-.27a5.61 5.61 0 01.064-.374l.045-.21.051-.213.06-.213c.02-.07.041-.138.062-.204l.047-.15c.099-.04.125-.048.17-.063l.117-.037c.106-.034.197-.053.26-.071l.1-.022z" fill="#fff"/><path d="M53.474 74.3l-.576.256-.434 1.676 1.01-1.931z" fill="#0C1423"/><path d="M53.474 74.3s-.03.023-.084.06c-.055.035-.132.09-.228.146l-.106.061c-.036.02-.094.05-.086.05 0 .006.002.007.001.014l-.012.06-.044.209-.052.214-.059.213c-.02.07-.042.138-.062.204a5.573 5.573 0 01-.126.359c-.04.104-.081.188-.106.248l-.046.094.006-.104c.007-.065.011-.159.028-.27.014-.11.036-.238.063-.374l.045-.209.052-.214c.02-.072.04-.143.058-.213l.063-.204.047-.15c.1-.04.126-.048.17-.063l.117-.037c.106-.034.198-.053.26-.071l.1-.022z" fill="#fff"/><path d="M53.614 75.248l-.438-.39c-.276-.252-.675-.607-1.145-1.042-.471-.433-1.017-.943-1.599-1.492l-.894-.85-.919-.882-.913-.888-.88-.865c-.569-.562-1.097-1.09-1.547-1.547-.45-.455-.818-.842-1.08-1.109l-.405-.425.439.39c.276.252.675.606 1.145 1.041.47.434 1.017.943 1.598 1.493l.895.85.918.882.913.888.88.865a159 159 0 011.547 1.547c.45.455.819.842 1.08 1.109l.405.425zm-10.273-9.352c.548-.573.672-.75.697-.804.1-.215.071-.285-.116-.551a23.305 23.305 0 00-.47-.623c-.023.476-.108 1.495-.42 2.299l.31-.32z" fill="#fff"/><path d="M65.002 103.353c-8.404 0-15.24-5.663-15.24-12.625 0-.288.014-.573.037-.855 2.11 5.338 8.13 9.198 15.203 9.198 7.074 0 13.093-3.86 15.204-9.198.023.282.036.567.036.855 0 6.962-6.835 12.625-15.24 12.625zM80.5 89.049c-.043-.285-.1-.57-.167-.85a9.748 9.748 0 00-.23-.828c-1.778-5.559-7.864-9.654-15.1-9.654s-13.321 4.095-15.1 9.654c-.088.272-.165.549-.23.828a11.01 11.01 0 00-.296 2.528c0 7.189 6.995 13.014 15.626 13.014 8.632 0 15.626-5.825 15.626-13.013 0-.568-.044-1.13-.129-1.679z" fill="#0C1423"/><path d="M65.002 103.353c-8.405 0-15.24-5.663-15.24-12.625a10.526 10.526 0 01.14-1.702c.043-.277.1-.554.17-.827 1.415-5.752 7.57-10.093 14.93-10.093 7.36 0 13.515 4.34 14.93 10.093.07.273.127.55.17.827a10.392 10.392 0 01.14 1.702c0 6.962-6.835 12.625-15.24 12.625zm15.724-15.156a10.57 10.57 0 00-.227-.85v-.002a11.61 11.61 0 00-.293-.824c-2.111-5.333-8.13-9.193-15.204-9.193S51.91 81.188 49.8 86.521a11.61 11.61 0 00-.294.824v.002c-.087.28-.162.562-.226.85-.19.819-.288 1.666-.288 2.53 0 7.39 7.182 13.403 16.011 13.403 8.83 0 16.012-6.012 16.012-13.402 0-.865-.098-1.712-.288-2.531z" fill="#FCF2DD"/><path d="M65.002 102.576c-6.875 0-12.647-3.948-14.109-9.222 3.037 3.987 8.304 6.494 14.11 6.494 5.804 0 11.07-2.507 14.109-6.494-1.465 5.274-7.234 9.222-14.11 9.222zm15.204-12.703c-2.111 5.339-8.13 9.198-15.204 9.198S51.91 95.21 49.8 89.873c-.023.282-.036.567-.036.855 0 6.962 6.834 12.625 15.24 12.625 8.404 0 15.239-5.663 15.239-12.625 0-.288-.013-.573-.036-.855z" fill="#0C1423"/><path d="M79.112 93.355c-1.465 5.273-7.234 9.221-14.11 9.221-6.875 0-12.647-3.948-14.109-9.221 3.037 3.986 8.304 6.493 14.11 6.493 5.804 0 11.07-2.507 14.109-6.493z" fill="#FCF2DD"/><path d="M80.629 85.67c0 7.186-6.997 13.012-15.627 13.012S49.376 92.856 49.376 85.67c0-7.187 6.996-13.013 15.626-13.013 8.63 0 15.627 5.826 15.627 13.013z" fill="#0C1423"/><path d="M80.103 87.37c-.044.28-.1.558-.17.83-1.416 5.752-7.571 10.094-14.93 10.094-7.36 0-13.516-4.342-14.931-10.094a8.734 8.734 0 01-.17-.83 9.404 9.404 0 01-.103-.849 9.302 9.302 0 01-.036-.852c0-6.96 6.834-12.622 15.24-12.622 8.404 0 15.239 5.662 15.239 12.622 0 .288-.01.57-.036.852-.02.285-.057.57-.103.85zm-15.1-15.1c-8.83 0-16.012 6.012-16.012 13.399 0 .865.097 1.71.288 2.528a10.689 10.689 0 00.52 1.676c2.11 5.338 8.13 9.198 15.203 9.198 7.074 0 13.093-3.86 15.204-9.198a10.646 10.646 0 00.52-1.676c.19-.818.288-1.663.288-2.528 0-7.387-7.182-13.4-16.012-13.4z" fill="#FCF2DD"/><path d="M65.135 95.897c-7.847 0-14.23-4.965-14.23-11.069 0-6.103 6.383-11.068 14.23-11.068 7.846 0 14.23 4.965 14.23 11.068 0 6.104-6.384 11.069-14.23 11.069zm-15.373-5.169h-.773V85.67h.773v5.058zm30.481.001l-.005-4.738h.772l.005 4.737h-.772z" fill="#FCF2DD"/><path d="M86.347 84.022l-.74 6.004c-.014.091-.047.191-.237.31-.249.155-.55.23-.923.23h-.178l1.38-4.309h-1.71l.732-2.236h1.676z" fill="#0C1423"/><path d="M84.135 86.115h1.708l-1.38 4.309c.338-.002.61-.07.832-.21.155-.096.164-.159.171-.209l.72-5.842h-1.412l-.64 1.952zm.312 4.593h-.373l1.38-4.309h-1.71l.825-2.52h1.937l-.76 6.164c-.017.124-.067.267-.302.413-.27.17-.597.252-.997.252zm-38.7-.143h-.173c-.135 0-.228-.01-.288-.022l.001-.033.12-.366c.091.15.206.29.34.421z" fill="#0C1423"/><path d="M46.096 90.707h-.522c-.127 0-.234-.008-.317-.025l-.113-.023v-.116c0-.02.001-.037.003-.05l.006-.026.213-.66.16.262c.085.138.192.27.319.394l.25.245z" fill="#0C1423"/><path d="M85.985 78.736l-2.241-1.185-2.241 1.185.428-2.51-1.813-1.778 2.505-.367 1.12-2.284 1.121 2.284 2.505.366-1.812 1.778.428 2.511z" fill="#fff"/><path d="M80.468 74.563l1.576 1.546a.165.165 0 01.048.145l-.373 2.183 1.95-1.03a.161.161 0 01.15 0l1.95 1.03-.373-2.183a.164.164 0 01.047-.145l1.576-1.547-2.178-.318a.162.162 0 01-.123-.09l-.974-1.986-.975 1.986a.163.163 0 01-.122.09l-2.179.319zm1.035 4.338a.164.164 0 01-.16-.192l.413-2.426-1.752-1.718a.165.165 0 01-.04-.168.162.162 0 01.13-.111l2.421-.354 1.082-2.207c.055-.112.238-.112.293 0l1.082 2.207 2.42.353a.164.164 0 01.09.28l-1.75 1.718.413 2.426a.163.163 0 01-.236.173l-2.165-1.145-2.165 1.145a.16.16 0 01-.076.019z" fill="#0C1423"/><path d="M82.503 76.039l-1.242-1.217 1.716-.251.766-1.564.768 1.563 1.715.251-1.241 1.218.293 1.718-1.534-.81-1.534.81.293-1.718z" fill="#F04941"/><path d="M81.612 74.936l1.004.986a.164.164 0 01.047.145l-.237 1.391 1.242-.657a.161.161 0 01.151 0l1.242.657-.237-1.391a.165.165 0 01.047-.145l1.004-.986-1.388-.203a.162.162 0 01-.122-.09l-.621-1.266-.621 1.267a.163.163 0 01-.123.09l-1.388.202zm.598 2.986a.163.163 0 01-.16-.192l.277-1.633-1.18-1.158a.164.164 0 01.09-.28l1.632-.238.728-1.486c.055-.112.238-.112.293 0l.729 1.486 1.63.238a.164.164 0 01.09.28l-1.18 1.157.28 1.634a.163.163 0 01-.237.173l-1.458-.772-1.458.772a.16.16 0 01-.076.019z" fill="#0C1423"/><path d="M48.544 79.006l-2.24-1.186-2.241 1.186.427-2.51-1.813-1.779 2.506-.366 1.12-2.285 1.12 2.285 2.506.366-1.813 1.778.428 2.51z" fill="#fff"/><path d="M43.027 74.831l1.577 1.546a.166.166 0 01.047.145l-.372 2.184 1.948-1.031a.16.16 0 01.152 0l1.949 1.03-.373-2.183a.165.165 0 01.047-.145l1.577-1.546-2.18-.319a.162.162 0 01-.122-.09l-.974-1.986-.974 1.987a.163.163 0 01-.123.09l-2.179.318zm1.036 4.338a.165.165 0 01-.16-.192l.412-2.425-1.751-1.718a.164.164 0 01.09-.28l2.42-.354 1.083-2.207c.055-.112.237-.112.292 0l1.083 2.207 2.42.354a.164.164 0 01.09.28l-1.751 1.718.414 2.426a.164.164 0 01-.065.16.162.162 0 01-.172.012l-2.165-1.145-2.165 1.145a.16.16 0 01-.075.02z" fill="#0C1423"/><path d="M45.062 76.308l-1.241-1.217 1.715-.25.767-1.565.767 1.564 1.715.25-1.24 1.218.292 1.719-1.534-.811-1.534.811.293-1.719z" fill="#F04941"/><path d="M44.17 75.206l1.005.985a.164.164 0 01.048.145l-.237 1.392 1.241-.657a.163.163 0 01.152 0l1.242.656-.237-1.39a.165.165 0 01.047-.146l1.004-.985-1.388-.204a.162.162 0 01-.123-.089l-.621-1.266-.62 1.266a.163.163 0 01-.124.09l-1.388.203zm.6 2.985a.163.163 0 01-.161-.191l.278-1.634-1.18-1.157a.164.164 0 01.09-.28l1.63-.238.73-1.487c.055-.112.237-.112.292 0l.73 1.487 1.63.238a.163.163 0 01.131.111.165.165 0 01-.041.168l-1.18 1.158.279 1.634a.164.164 0 01-.065.16.16.16 0 01-.172.012l-1.458-.771-1.458.772a.163.163 0 01-.076.018z" fill="#0C1423"/></svg>