<svg width="129" height="112" fill="none" xmlns="http://www.w3.org/2000/svg"><path d="M15.048 86h-3.6v-5.7h-5V86h-3.6V72h3.6v5.5h5V72h3.6v14zm13.01-3c0 1-.287 1.787-.86 2.36-.56.56-1.34.84-2.34.84h-4.6c-1 0-1.787-.28-2.36-.84-.56-.573-.84-1.36-.84-2.36v-4.6c0-1 .28-1.78.84-2.34.573-.573 1.36-.86 2.36-.86h4.6c1 0 1.78.287 2.34.86.573.56.86 1.34.86 2.34V83zm-3.5-4.3c0-.533-.267-.8-.8-.8h-2.4c-.534 0-.8.267-.8.8v4c0 .533.267.8.8.8h2.4c.533 0 .8-.267.8-.8v-4zm14.697 7.1c-2.493.267-4.693.4-6.6.4-.906 0-1.633-.273-2.18-.82-.546-.547-.82-1.273-.82-2.18v-4.6c0-1 .28-1.78.84-2.34.574-.573 1.36-.86 2.36-.86h6.4v2.7h-5.3c-.533 0-.8.267-.8.8v3.9a.68.68 0 00.7.7c1.2 0 3-.1 5.4-.3v2.6zm5.097-4V86h-3.5V72h3.5v7.1h1.6l2.2-3.7h3.7l-3 5.1 3 5.5h-3.7l-2.3-4.2h-1.5zm12.396-4.1c-.533 0-.8.267-.8.8v1.1h3.4v-1.1c0-.533-.266-.8-.8-.8h-1.8zm5.7 8.1c-2.573.267-4.906.4-7 .4-.906 0-1.633-.273-2.18-.82-.546-.547-.82-1.273-.82-2.18v-4.8c0-1 .28-1.78.84-2.34.574-.573 1.36-.86 2.36-.86h4c1 0 1.78.287 2.34.86.574.56.86 1.34.86 2.34v3.7h-6.9v.8a.68.68 0 00.7.7c1.32 0 3.254-.1 5.8-.3v2.5zm4.797 3.8c-.706 0-1.573-.067-2.6-.2v-2.6h1.8c.507 0 .834-.14.98-.42.16-.28.134-.673-.08-1.18l-4.1-9.8h3.7l2.5 6.8 2.1-6.8h3.7l-4 11c-.386 1.053-.886 1.847-1.5 2.38-.613.547-1.446.82-2.5.82zM93.148 86h-11.1V72h11.1v2.8h-7.5v2.7h5.9v2.8h-5.9v2.9h7.5V86zm6.795 0c-.893.133-1.747.2-2.56.2-.8 0-1.473-.273-2.02-.82-.547-.547-.82-1.273-.82-2.18V72h3.5v10.7c0 .2.067.367.2.5s.3.2.5.2h1.2V86zm5.797-10.2V86h-3.5v-7.5h-1.5v-2.7h5zm-3.5-4h3.5v2.8h-3.5v-2.8zM115.146 86c-1.293.133-2.56.2-3.8.2-.907 0-1.633-.273-2.18-.82-.547-.547-.82-1.273-.82-2.18v-5.1h-1.2v-2.7h1.2l.4-2.4h3.1v2.4h2.5v2.7h-2.5v4.6a.68.68 0 00.7.7h2.6V86zm5.313-8.3c-.533 0-.8.267-.8.8v1.1h3.4v-1.1c0-.533-.266-.8-.8-.8h-1.8zm5.7 8.1c-2.573.267-4.906.4-7 .4-.906 0-1.633-.273-2.18-.82-.546-.547-.82-1.273-.82-2.18v-4.8c0-1 .28-1.78.84-2.34.574-.573 1.36-.86 2.36-.86h4c1 0 1.78.287 2.34.86.574.56.86 1.34.86 2.34v3.7h-6.9v.8a.68.68 0 00.7.7c1.32 0 3.254-.1 5.8-.3v2.5zM45.605 110h-3.6V98.8h-4.2V96h12v2.8h-4.2V110zm8.507-8.3c-.534 0-.8.267-.8.8v1.1h3.4v-1.1c0-.533-.267-.8-.8-.8h-1.8zm5.7 8.1c-2.574.267-4.907.4-7 .4-.907 0-1.634-.273-2.18-.82-.547-.547-.82-1.273-.82-2.18v-4.8c0-1 .28-1.78.84-2.34.573-.573 1.36-.86 2.36-.86h4c1 0 1.78.287 2.34.86.573.56.86 1.34.86 2.34v3.7h-6.9v.8a.68.68 0 00.7.7c1.32 0 3.253-.1 5.8-.3v2.5zm6.392-2.4c.707 0 1.507-.133 2.4-.4v-1.2h-2.9a.68.68 0 00-.7.7v.2a.68.68 0 00.7.7h.5zm-3.7-7.8c2.44-.267 4.64-.4 6.6-.4.907 0 1.633.273 2.18.82.547.547.82 1.273.82 2.18v7.8h-3.1l-.2-1a7.368 7.368 0 01-1.94.92c-.653.187-1.207.28-1.66.28h-.7c-.907 0-1.633-.273-2.18-.82-.547-.547-.82-1.273-.82-2.18v-.9c0-.907.273-1.633.82-2.18.547-.547 1.273-.82 2.18-.82h4.1v-.8a.68.68 0 00-.7-.7 38.3 38.3 0 00-2.88.12c-1.04.08-1.88.14-2.52.18v-2.5zm18.494-.4c1.08 0 1.914.4 2.5 1.2a6.486 6.486 0 011.98-.9c.72-.2 1.36-.3 1.92-.3h.2c.907 0 1.634.273 2.18.82.547.547.82 1.273.82 2.18v7.8h-3.5v-7.2a.68.68 0 00-.7-.7h-.1c-.6 0-1.366.133-2.3.4v7.5h-3.5v-7.2a.68.68 0 00-.7-.7h-.1c-.6 0-1.366.133-2.3.4v7.5h-3.5V99.4h3.1l.2 1a6.96 6.96 0 011.92-.9c.667-.2 1.227-.3 1.68-.3h.2zM64.356 61c-.352 0-.732-.008-1.16-.025h-.038l-.029-.003a30.168 30.168 0 01-1.782-.126l-.05-.005a27.421 27.421 0 01-.627-.072s-.208-.024-.266-.032a32.444 32.444 0 01-1.012-.153h-.034l-.11-.025a30.662 30.662 0 01-.767-.144l-.168-.034a30.307 30.307 0 01-2.117-.516l-.383-.111a29.553 29.553 0 01-1.207-.386l-.14-.049c-.124-.043-.249-.086-.372-.131a28.535 28.535 0 01-1.02-.393l-.242-.097a25.02 25.02 0 01-.29-.124l-.045-.02a30.182 30.182 0 01-4.898-2.655l-.15-.1a29.49 29.49 0 01-.897-.627c-.152-.11-.302-.224-.452-.338l-.218-.166a30.72 30.72 0 01-2.502-2.158h-.01l-.536-.538-.002-.003a30.887 30.887 0 01-.327-.337l-.023-.002.004.027-1.709-.177-.432-.05a27.096 27.096 0 01-.863-.095l-.011.013-.745-.112-.13-.015.01.054-.857-.154-.16-.02-.002-.009-.866-.155-.415-.078-.194-.038a88.27 88.27 0 01-.672-.118s-.18-.037-.413-.088l-.007.009-.405-.087-2.155-.393.043-.06-.46-.113-.724-.16-.003-.02-3.332-1.145a4.005 4.005 0 01-1.977-3.657c.038-.547.323-3.214 2.247-4.014a3.76 3.76 0 011.315-.31l2.124.382.556.189c.283.094.608.205.978.33 0 0 .77.263 1.106.376l.928.31c.343.114.668.22.972.317l.324.1-.015-.043a30.412 30.412 0 01-.96-2.54c-.036-.063-.608-2.01-.612-2.117-.08-.322-.16-.668-.241-1.052l-.048-.235h-4.718l5.053-15.654h.529c.014-.042.151-.458.174-.524.069-.2.14-.4.214-.6l.041-.114c.113-.304.23-.608.353-.91l.07-.163a30.283 30.283 0 011.767-3.58l.074-.123a28.825 28.825 0 01.54-.884l.014-.023c.117-.185.24-.375.364-.562l.195-.287a27.044 27.044 0 01.843-1.174l.204-.268c.081-.105.16-.205.239-.305a2.13 2.13 0 01-.269-.12l-.053-.03a5.943 5.943 0 01-.209-.129l-.795-.514a2.235 2.235 0 01-.519-.459 2.145 2.145 0 01-.463-1.72 2.122 2.122 0 01.582-1.131l.372-.4.638-.68.663-.7.178-.184a2.121 2.121 0 011.521-.653c.54 0 1.059.205 1.463.579.108.102.202.208.287.323l.602.83a2.3 2.3 0 01.315.559l.01-.009c.216-.18.43-.355.648-.527l.215-.169c.142-.11.283-.219.425-.325l.206-.151c.34-.25.68-.49 1.01-.713l.25-.166a30.59 30.59 0 011.464-.91l.244-.14c.525-.3 1.056-.583 1.574-.839.1-.05.333-.162.333-.162l.268-.128h.004l.182-.085a30.125 30.125 0 013.112-1.228 30.38 30.38 0 011.629-.49l.139-.04c.27-.072.541-.138.813-.202l.027-.006c.288-.068.59-.134.892-.195l.227-.046c.28-.055.562-.106.844-.152l.1-.016c.278-.045.545-.084.812-.12l.235-.03c.291-.037.582-.07.874-.098l.143-.013c.304-.027.61-.05.916-.068l.09-.006A27.641 27.641 0 0164.294 0l.395.003c.246.002.49.008.735.017l.189.006c.34.015.68.036 1.019.062l.062.005c.24.02.474.04.708.064l.26.028c.244.027.486.056.727.09h.112l.086.026c.61.088 1.224.197 1.842.324l.14.029c.278.059.557.122.835.19l.214.053a29.7 29.7 0 011.43.395l.19.058c.35.109.707.227 1.063.352l.17.06c.19.068.379.138.568.21l.12.046c.367.141.712.281 1.05.426l.107.047c.188.081.374.164.558.248l.138.064c.263.122.525.248.784.377l.165.08c.483.246.985.518 1.492.811l.093.055c.553.323 1.092.66 1.608 1.005.077.051.155.105.232.158.572.39 1.135.804 1.678 1.232a2.33 2.33 0 01.298-.515l.596-.822c.093-.126.187-.232.288-.326.41-.381.93-.587 1.47-.587a2.129 2.129 0 011.525.657l.168.176.664.7.639.68.38.408c.045.05.097.106.154.178.225.292.367.615.424.951a2.16 2.16 0 01-.986 2.18l-.791.511c-.07.045-.138.088-.208.13l-.055.03-.06.03c.301.36.59.72.86 1.076l.095.128c.148.196.302.405.453.617.07.097.138.196.207.295.115.165.228.332.34.5l.076.113a29.565 29.565 0 011.1 1.795l.101.186c.134.24.263.476.387.714.028.053.053.105.079.157l.042.084c.113.223.227.448.336.675.143.3.287.614.427.933l.025.05.011.034a29.191 29.191 0 01.72 1.811l.094.275.098.286c.045.129.09.258.132.388l.002.009h7.873l-6.535 12.539a31.41 31.41 0 01-.193 1.53l-.035.231a36.4 36.4 0 01-.148.866v.013l-.026.123c-.019.097-.038.193-.059.29l-.016.08c-.033.157-.066.319-.102.48-.044.199-.09.397-.137.595l-.057.226c-.122.489-.258.978-.403 1.455l-.042.14-.093.293c-.063.196-.128.391-.194.586l-.048.14a26.32 26.32 0 01-.143.4l-.066.18a30.09 30.09 0 01-.486 1.228l-.048.114c-.069.16-.138.32-.209.48l.753-.246.929-.31 1.1-.374c.371-.127.697-.238.985-.334l2.69-.567c.428.02.846.119 1.3.308 1.876.78 2.194 3.26 2.247 4.013a4.004 4.004 0 01-1.996 3.67l-3.369 1.114-.004.015-.599.134-.146.037-1.959.462-.496.097c-.424.093-.716.155-.793.172l-.048.01a65.63 65.63 0 01-.695.122l-.178.036-2.348.436.014-.068-.1.012-.942.15-.014-.028c-.242.03-.463.053-.662.07l-1.997.228-.167.165c-.157.153-.313.303-.472.45l-.199.187c-.2.183-.403.367-.608.546l-.093.08c-.21.181-.422.359-.636.534l-.18.146c-.396.318-.795.625-1.189.912l-.627.444a26.1 26.1 0 01-.313.212l-.002.003-.611.401h-.006l-.443.278a30.728 30.728 0 01-3.386 1.795l-.112.05c-.24.107-.482.21-.726.311l-.223.091a30.342 30.342 0 01-2.54.904l-.15.044c-.239.072-.488.144-.738.212l-.257.07c-.271.07-.543.14-.817.204l-.05.011c-.968.224-1.957.402-2.94.529l-.085.01c-.275.035-.55.065-.826.092l-.252.022c-.224.02-.448.038-.672.053l-.266.017a29.681 29.681 0 01-1.72.051z" fill="#0C1423"/><path d="M100.688 45.605c-.017-.233-.199-2.377-1.442-2.894-.762-.317-1.284-.277-2.524.112l.002-.008-.556.188c-.286.095-.609.205-.975.33l-.037.013c-.327.112-.682.232-1.073.364l-.932.312c-.35.116-.68.223-.987.321l-1.697.523-.239.07-.782.189a29.3 29.3 0 00.403-.72c.158-.294.31-.592.458-.891l.066-.136c.09-.183.176-.366.262-.55l.129-.282c.086-.19.168-.382.25-.574l.027-.063c.13-.309.256-.62.375-.933.044-.113.084-.228.126-.342.056-.15.11-.3.163-.452l.046-.137c.074-.217.146-.435.216-.653v-.001l.1-.32c.14-.46.268-.924.384-1.39v-.002a30.427 30.427 0 00.186-.787c.035-.154.067-.308.098-.463.024-.116.05-.233.072-.35l.002-.008v-.002a28.739 28.739 0 00.198-1.169c.085-.57.157-1.143.209-1.717l5.648-10.838H92.19a28.694 28.694 0 00-.281-.918c-.056-.172-.116-.342-.175-.513-.045-.132-.088-.264-.135-.395a28.472 28.472 0 00-.27-.71l-.07-.187a31.88 31.88 0 00-.366-.878l-.003-.007-.001-.002a29.424 29.424 0 00-.421-.922 29.611 29.611 0 00-.322-.646c-.04-.076-.076-.153-.115-.23a28.622 28.622 0 00-.384-.706c-.028-.051-.054-.103-.083-.154a28.641 28.641 0 00-1.124-1.825 29.538 29.538 0 00-.965-1.36l-.083-.113a29.067 29.067 0 00-1.002-1.242l-.162-.186c-.243-.28-.489-.557-.741-.828l.826-.798a.785.785 0 00.706-.017l.01-.006c.053-.03.105-.064.159-.099l.084-.054.55-.356.154-.1a.935.935 0 00.22-.189.82.82 0 00.185-.66.792.792 0 00-.156-.35 1.417 1.417 0 00-.088-.102l-.376-.404-.634-.675-.658-.694-.172-.18a.807.807 0 00-.356-.218.829.829 0 00-.8.198 1.082 1.082 0 00-.125.141l-.415.573-.186.258a.93.93 0 00-.165.306.898.898 0 00.07.679l.017.03-.825.797a29.001 29.001 0 00-1.235-1.03l-.016-.013a28.811 28.811 0 00-1.606-1.18l-.225-.153a29.057 29.057 0 00-1.533-.959l-.096-.055a29.01 29.01 0 00-1.428-.776 28.642 28.642 0 00-1.039-.498v-.001a27.48 27.48 0 00-.534-.237l-.103-.045a29.314 29.314 0 00-.981-.4l-.14-.053c-.18-.068-.362-.136-.544-.2v-.001l-.162-.057c-.336-.118-.675-.23-1.016-.336h-.001a25.965 25.965 0 00-.93-.271v-.001a32.05 32.05 0 00-.618-.161c-.07-.017-.138-.036-.206-.052a29.607 29.607 0 00-.802-.182l-.132-.027a28.73 28.73 0 00-1.816-.318l-.047-.006H68.3c-.26-.036-.52-.068-.781-.097-.083-.01-.167-.018-.25-.026a27.776 27.776 0 00-.673-.062l-.063-.005c-.325-.025-.65-.045-.976-.059l-.18-.006a28.722 28.722 0 00-.702-.017l-.242-.002c-.288 0-.576.001-.864.009-.288.008-.574.021-.86.037l-.086.006c-.293.018-.585.04-.876.066l-.136.012c-.28.026-.558.058-.836.093l-.225.03c-.256.034-.51.071-.765.112l-.108.017a29.8 29.8 0 00-.807.145l-.217.045a29.089 29.089 0 00-1.656.385l-.134.038a28.885 28.885 0 00-1.86.57h-.001v.001a26.98 26.98 0 00-.93.338 29.21 29.21 0 00-1.438.595 29.699 29.699 0 00-.74.344h-.001a29.172 29.172 0 00-1.83.96l-.23.13a29.593 29.593 0 00-1.402.873c-.08.053-.16.104-.238.158-.327.22-.648.448-.966.681-.066.05-.133.098-.198.146a33.94 33.94 0 00-.613.473c-.208.165-.414.333-.617.503l-.063.053c-.204.17-.406.344-.605.521l-.188.17a22.04 22.04 0 00-.39.358l-.891-.861a.898.898 0 00.087-.709.924.924 0 00-.165-.306l-.186-.258-.416-.572a1.03 1.03 0 00-.124-.141.828.828 0 00-.8-.198.807.807 0 00-.356.218l-.172.179-.658.694-.634.676-.376.403a1.71 1.71 0 00-.089.102.792.792 0 00-.156.35.82.82 0 00.186.66.94.94 0 00.22.19l.153.1.55.356.085.053c.054.035.106.069.16.1l.009.005a.79.79 0 00.706.017l.949.918c-.296.335-.583.68-.864 1.03l-.001.002c-.113.14-.224.281-.335.424l-.175.23a26.743 26.743 0 00-.515.701c-.107.15-.212.302-.316.454-.062.091-.125.182-.186.275-.12.18-.237.36-.352.543-.045.07-.09.138-.132.208-.137.22-.27.44-.4.664l-.065.107a28.744 28.744 0 00-1.692 3.426l-.065.153c-.117.29-.23.58-.338.872l-.04.11c-.069.19-.138.381-.204.573-.032.093-.061.186-.092.28-.047.139-.094.278-.138.418-.075.236-.146.474-.215.712h-.544l-4.203 13.02h4.003c.063.38.135.76.213 1.137l.029.14c.082.385.17.769.267 1.151v.011c0 .12.008.239.021.356l.003.025c.043.362.147.71.307 1.037l.028.058c.045.087.092.173.145.256a29.198 29.198 0 00.436 1.253c.172.46.355.917.551 1.37l.001.002.005.013.078.174a29.55 29.55 0 00.55 1.178l.002.004a28.272 28.272 0 00.624 1.19l-1.255-.303a27.023 27.023 0 01-.239-.07l-1.697-.522c-.308-.099-.637-.206-.987-.322l-.932-.311c-.392-.132-.746-.253-1.074-.365l-.036-.012c-.367-.125-.69-.235-.975-.33l-.556-.188.002.008c-1.24-.39-1.763-.43-2.524-.113-1.243.517-1.426 2.661-1.442 2.895 0 .01-.098 1.076.731 1.944.347.364.806.64 1.363.82.192.063.412.13.657.2l-.007.01.095.025-.039.053 2.173.536.024-.034.11.028.037.01.006.037 2.026.448.004-.005.26.05-.01.014.152.027.19.036.19.036.387.083.012.003c.038.006.295.053.675.118l.196.039.415.077-.002-.013.053.009c.602.1 1.167.187 1.677.261l.055.009v.005l.157.019.029.004.074.008c.582.08 1.081.14 1.478.176l.072.009.373.042-.003-.017.105.003.119.013-.002-.01a7.993 7.993 0 001.688-.102 28.695 28.695 0 001.018 1.074l.018.018.044.044a29.085 29.085 0 002.767 2.43l.208.158a28.783 28.783 0 001.297.928l.138.093a29.219 29.219 0 004.291 2.369l.397.172h.001l.322.137c.076.032.152.062.229.093a28.554 28.554 0 00.976.376c.13.047.262.092.393.138.131.045.262.092.394.135.2.067.4.13.602.191l.004.002c.149.045.298.09.448.132.723.21 1.455.39 2.195.543l.162.033c.256.051.512.099.77.143.081.014.161.03.242.043.275.044.552.085.83.122l.252.031c.201.025.402.048.604.07.015 0 .03.002.044.003a28.769 28.769 0 004.522.099l.255-.017c.215-.014.428-.03.641-.05l.241-.022a27.6 27.6 0 00.871-.097h.001c.95-.122 1.889-.291 2.814-.506h.003c.277-.064.552-.134.826-.206l.246-.067c.24-.065.478-.133.715-.204l.134-.04c.27-.084.54-.169.808-.26h.001l.007-.002a28.717 28.717 0 001.614-.603l.215-.088c.267-.11.534-.225.798-.344l.003-.001c.863-.39 1.706-.821 2.526-1.293h.001c.24-.138.477-.28.712-.425.073-.044.146-.09.218-.135.176-.11.35-.221.523-.335l.122-.08a29.9 29.9 0 00.785-.536.475.475 0 00.02-.014v-.001h.001c.473-.337.936-.69 1.389-1.055a29.066 29.066 0 00.832-.694h.001c.209-.182.414-.367.618-.555.064-.058.127-.118.19-.177.151-.142.301-.285.45-.43l.112-.111c.226-.223.448-.447.667-.678.051.008.106.013.159.019.059.007.116.015.177.021l.11.01h.001l.123.008c.13.01.264.015.4.018h.001c.08.001.157.004.239.003.165 0 .334-.005.508-.015l-.003.018.373-.043.072-.008c.397-.036.896-.096 1.477-.177l.074-.008.03-.004.156-.018v-.006l.056-.008c.51-.074 1.075-.162 1.676-.262l.054-.008-.003.012.416-.077.196-.039c.38-.065.637-.111.675-.118l.012-.003c.012-.002.328-.07.82-.178l.514-.1-.01-.012.01-.002c.56-.126 1.108-.253 1.626-.377l.109-.026.03-.006h.001l.046-.01.095-.022v-.003l.128-.032.042-.01.004.005 2.134-.526-.019-.025.075-.019-.008-.01c.245-.07.465-.138.658-.2.557-.18 1.016-.457 1.363-.82.829-.869.732-1.934.731-1.945z" fill="#F04941"/><path d="M95.709 49.154l.004.02.004-.004-.008-.016zm-51.705 1.899l.024.024a29.207 29.207 0 002.75 2.416l.207.157c.149.112.289.218.43.322.284.206.57.405.86.6l.137.092c.755.504 1.54.977 2.333 1.404.163.087.325.175.49.26a29.28 29.28 0 001.84.864l.047.02c.091.04.182.078.273.116l.227.092a32.05 32.05 0 00.971.374l.39.138.108.037a27.738 27.738 0 001.333.42c.718.208 1.452.39 2.183.54l.162.033c.253.05.508.098.764.142l.24.042c.275.045.55.086.825.122l.252.03c.2.026.4.05.6.07l.028.167.016-.163a28.6 28.6 0 001.726.12 27.143 27.143 0 002.77-.022l.255-.017c.213-.014.425-.03.637-.05l.24-.021a28.68 28.68 0 004.489-.805l.244-.067h.002c.238-.065.474-.132.709-.203l.134-.04a26.81 26.81 0 002.415-.859l.006-.002.209-.085a29.102 29.102 0 003.309-1.629l.006-.004c.237-.136.47-.276.703-.419l.216-.135c.175-.11.349-.22.52-.333l.123-.08c.261-.173.521-.35.778-.532l.003-.002.01-.007.009-.007c.451-.32.916-.673 1.38-1.048l.17-.137a27.898 27.898 0 001.274-1.105l.17-.158c.17-.16.319-.302.466-.447l.112-.11a28.1 28.1 0 00.663-.673.166.166 0 01.142-.05l.09.012.467.045c.128.009.259.015.393.017l.058.002.177.002a9.59 9.59 0 00.5-.015c.023 0 .044.002.064.01l.368-.043c.398-.035.893-.094 1.474-.175l.077-.01h.013a.325.325 0 01.017-.003l.118-.014a.182.182 0 01.033-.01l.055-.008c.51-.074 1.075-.162 1.675-.26l.056-.01a.166.166 0 01.057.002l.544-.104c.343-.059.584-.102.659-.116l.074.153-.034-.16c.066-.014.365-.078.806-.175l.451-.088a.14.14 0 01.052-.025c.569-.127 1.116-.254 1.634-.378l.109-.026.033-.007a.148.148 0 01.016-.003l.1-.023a.162.162 0 01.02-.007l.128-.033a.248.248 0 01.056-.006l2.04-.503a.125.125 0 01.065-.046l.016-.004a.136.136 0 01.046-.024c.244-.07.462-.137.653-.199.531-.172.967-.434 1.295-.777a2.536 2.536 0 00.686-1.816v-.004c-.006-.092-.17-2.267-1.342-2.754-.703-.293-1.177-.27-2.413.117a.178.178 0 01-.044.008l-.506.171c-.286.095-.609.205-.975.33l-.037.012-1.073.365-.933.312c-.35.116-.68.223-.988.322l-1.941.594-.79.19a.164.164 0 01-.178-.241 26.855 26.855 0 00.856-1.602l.066-.135c.089-.182.175-.364.26-.546l.13-.282c.084-.188.166-.379.247-.57l.02-.046c.136-.323.262-.633.38-.944.029-.074.056-.149.083-.224l.042-.116c.056-.15.11-.3.162-.45l.046-.135c.074-.216.146-.433.214-.65l.1-.32c.138-.453.266-.918.382-1.382v-.001l.055-.217a28.123 28.123 0 00.228-1.026l.02-.098.051-.25v-.004l.003-.011c.06-.312.113-.625.162-.939l.034-.218c.088-.587.158-1.16.208-1.708a.157.157 0 01.018-.061l5.522-10.6H92.19a.163.163 0 01-.157-.117 29.98 29.98 0 00-.279-.913 14.654 14.654 0 00-.12-.353l-.107-.311a9.152 9.152 0 00-.082-.238 26.786 26.786 0 00-.268-.707l-.07-.185a28.603 28.603 0 00-.786-1.8 24.59 24.59 0 00-.32-.641l-.05-.1c-.021-.042-.042-.085-.065-.128a25.97 25.97 0 00-.377-.697l-.086-.16a27.97 27.97 0 00-1.043-1.701l-.076-.114a28.56 28.56 0 00-.959-1.352l-.082-.112a29.138 29.138 0 00-.997-1.235l-.16-.185a29.28 29.28 0 00-.738-.822.165.165 0 01.006-.23l.826-.8a.162.162 0 01.179-.031.627.627 0 00.564-.012c.055-.033.105-.065.157-.098l.787-.51a.794.794 0 00.183-.155.656.656 0 00.15-.528.623.623 0 00-.123-.279 1.345 1.345 0 00-.079-.088L86.18 5.953a.645.645 0 00-.282-.174.669.669 0 00-.647.16.963.963 0 00-.104.12l-.6.827a.797.797 0 00-.14.254.738.738 0 00.057.558c.035.064.039.174-.014.225l-.825.798a.163.163 0 01-.22.005 29.038 29.038 0 00-2.841-2.21l-.224-.152a29.29 29.29 0 00-1.524-.954l-.096-.055a29.036 29.036 0 00-1.42-.772l-.154-.076a29.92 29.92 0 00-.75-.36l-.13-.06a31.57 31.57 0 00-.53-.236l-.104-.045c-.322-.138-.647-.27-.975-.397l-.138-.053c-.18-.068-.36-.135-.541-.2l-.162-.057a28.976 28.976 0 00-1.67-.53l-.267-.074a29.344 29.344 0 00-.61-.16l-.008-.002-.2-.05c-.265-.065-.53-.124-.797-.181l-.103-.021a28.985 28.985 0 00-2.659-.424l-.248-.027a25.948 25.948 0 00-.67-.06l-.064-.006a28.638 28.638 0 00-.969-.058l-.178-.007a30.174 30.174 0 00-.699-.016l-.24-.002a27.713 27.713 0 00-1.714.046l-.086.005c-.292.018-.582.04-.871.066l-.136.011c-.278.027-.554.058-.83.093l-.225.03a28.52 28.52 0 00-.76.112l-.107.017c-.269.044-.536.092-.803.144l-.216.044a29.536 29.536 0 00-1.646.383l-.132.037A29.067 29.067 0 0052.7 3.965l-.285.13-.06.028c-.13.06-.26.122-.39.184l-.32.154c-.494.245-1 .514-1.5.801l-.229.13a28.845 28.845 0 00-1.395.868l-.236.156c-.312.21-.635.439-.96.678l-.198.145c-.136.102-.27.205-.403.309l-.207.162c-.207.163-.41.33-.613.5l-.038.031c-.227.191-.428.364-.626.54l-.187.168a43.1 43.1 0 00-.389.356.162.162 0 01-.223-.002l-.891-.86a.164.164 0 01-.028-.202.746.746 0 00.071-.578.775.775 0 00-.138-.254l-.603-.833a.901.901 0 00-.104-.118.666.666 0 00-.642-.16.641.641 0 00-.285.174l-1.839 1.951a1.293 1.293 0 00-.08.091.619.619 0 00-.123.277c-.03.182.025.38.15.526a.79.79 0 00.183.157l.776.503c.064.04.114.072.165.102a.633.633 0 00.568.015.162.162 0 01.179.032l.949.917a.165.165 0 01.009.227 28.747 28.747 0 00-1.193 1.448l-.202.264-.222.297a22.28 22.28 0 00-.262.365c-.107.15-.211.3-.314.452a29.821 29.821 0 00-.535.814l-.019.027-.113.179c-.136.218-.268.438-.398.66l-.064.107a28.832 28.832 0 00-1.682 3.406l-.065.152a30.3 30.3 0 00-.336.867l-.039.108c-.07.19-.138.38-.204.571l-.12.362a25.492 25.492 0 00-.323 1.04.164.164 0 01-.156.119h-.425L31.989 35.2h3.778c.08 0 .147.058.16.137.063.373.135.753.213 1.13l.028.14c.09.423.177.798.266 1.144a.16.16 0 01.005.04 3.094 3.094 0 00.314 1.356l.028.057c.042.082.087.164.137.243a.153.153 0 01.017.037 28.043 28.043 0 00.434 1.245c.172.463.356.921.547 1.363l.084.188a29.157 29.157 0 001.169 2.358l.003.006c.02.04.024.086.008.13a.161.161 0 01-.19.104l-1.502-.374-1.7-.524c-.31-.1-.64-.206-.99-.323l-.933-.311-.952-.323-.16-.055-.972-.33-.51-.172a.133.133 0 01-.041-.006c-1.236-.388-1.71-.41-2.414-.118-1.174.489-1.335 2.662-1.341 2.755a2.537 2.537 0 00.685 1.82c.328.343.764.605 1.296.777.19.062.41.128.653.199a.159.159 0 01.05.025l.033.008a.164.164 0 01.106.089l1.938.478a.166.166 0 01.114-.012l.11.027.014.005.019.004a.163.163 0 01.09.056l1.901.421a.132.132 0 01.039.003l.26.05a.162.162 0 01.062.026l.849.17c.071.013.321.058.682.12l.553.105a.135.135 0 01.053-.002l.054.009c.6.1 1.165.187 1.674.26l.057.01a.179.179 0 01.034.009l.117.014s.009 0 .017.002l.012.001.074.009c.585.08 1.08.14 1.474.176l.379.043a.147.147 0 01.058-.01l.177.01a.127.127 0 01.04-.004 7.822 7.822 0 001.654-.1c.057-.01.112.01.15.051a32.427 32.427 0 001.013 1.068l-.076.156.114-.117zm20.352 8.793c-.342 0-.715-.008-1.14-.025a28.802 28.802 0 01-1.755-.123l-.044-.004a30.442 30.442 0 01-.607-.07l-.254-.03a32.91 32.91 0 01-.835-.124l-.241-.043a24.62 24.62 0 01-.775-.144l-.164-.033a29.113 29.113 0 01-3.563-.974l-.1-.035a32.147 32.147 0 01-.395-.138l-.42-.158a29.74 29.74 0 01-.562-.22l-.23-.093-.276-.118-.048-.02c-.134-.058-.267-.115-.4-.174a29.373 29.373 0 01-1.955-.963 29.455 29.455 0 01-2.36-1.42l-.139-.092a29.224 29.224 0 01-.868-.607c-.144-.105-.286-.213-.428-.32l-.217-.165a29.29 29.29 0 01-2.782-2.444l-.046-.045a32.516 32.516 0 01-.98-1.031 8.236 8.236 0 01-1.582.091.154.154 0 01-.062.007l-.145-.013a.129.129 0 01-.077.015l-.445-.051a32.021 32.021 0 01-1.48-.177l-.054-.006c-.008 0-.016 0-.023-.002l-.18-.023a.16.16 0 01-.045-.012l-.017-.002a82.634 82.634 0 01-1.672-.26.136.136 0 01-.06.002l-.613-.117c-.358-.06-.609-.106-.666-.116l-.938-.187a.158.158 0 01-.065-.027l-.15-.03a.147.147 0 01-.045-.002l-2.025-.449a.162.162 0 01-.084-.047.168.168 0 01-.097.006l-2.174-.536a.163.163 0 01-.114-.104l-.001-.002-.002-.001a22.764 22.764 0 01-.6-.184c-.583-.19-1.064-.48-1.43-.862a2.841 2.841 0 01-.776-2.073c.017-.25.206-2.476 1.542-3.032.825-.343 1.402-.276 2.587.093.02.003.033.002.049.008l.556.188c.286.095.608.205.975.33l.158.054.951.323.932.311c.35.116.678.223.985.321l1.932.591.89.215a34.36 34.36 0 01-.45-.871c-.187-.38-.373-.778-.554-1.188l-.079-.176-.006-.015a29.15 29.15 0 01-.987-2.618 3.56 3.56 0 01-.14-.252l-.03-.06a3.381 3.381 0 01-.348-1.49 25.598 25.598 0 01-.263-1.129l-.029-.14a29.54 29.54 0 01-.191-1.006h-3.866a.163.163 0 01-.154-.214l4.202-13.02a.163.163 0 01.156-.114h.42c.06-.2.12-.4.183-.598.035-.113.073-.225.11-.338l.12-.364c.067-.193.136-.385.207-.577l.04-.11a29.3 29.3 0 01.34-.876l.065-.155a29.005 29.005 0 011.702-3.444l.055-.093c.14-.24.274-.463.412-.683l.117-.186c.132-.207.25-.39.37-.57.061-.093.124-.184.187-.276a27.272 27.272 0 01.583-.826l.221-.295.207-.271c.11-.143.222-.284.334-.424l.005-.005c.271-.339.523-.64.765-.918l-.763-.737a.954.954 0 01-.743-.062 3.757 3.757 0 01-.18-.112l-.79-.51a1.11 1.11 0 01-.257-.223.988.988 0 01-.22-.792.963.963 0 01.188-.423c.036-.046.068-.081.1-.114l1.84-1.953a.96.96 0 01.43-.263.993.993 0 01.953.235c.052.049.1.103.145.165l.603.831c.065.086.148.209.19.36.07.231.053.49-.045.717l.694.67c.092-.085.185-.17.279-.254l.19-.17c.2-.179.403-.353.608-.526l.063-.053c.204-.17.41-.34.62-.505l.208-.163c.136-.105.271-.21.408-.312l.2-.147c.328-.241.654-.472.97-.686l.24-.158a29.534 29.534 0 011.41-.878l.232-.132a29.75 29.75 0 011.518-.809l.322-.156c.131-.063.263-.125.394-.186l.06-.027.29-.133a29.035 29.035 0 012.687-1.04 29.07 29.07 0 011.567-.472l.135-.038a28.505 28.505 0 011.664-.387l.22-.045c.268-.052.54-.101.81-.146l.11-.017c.255-.041.511-.079.768-.113l.227-.03c.28-.035.56-.067.84-.094l.137-.012c.293-.027.587-.049.88-.066l.088-.005c.288-.017.575-.03.864-.039.29-.007.578-.01.87-.008l.242.002c.236.003.472.008.706.017l.182.006c.328.014.655.034.98.06l.064.004c.227.018.453.039.678.062l.251.026c.263.03.524.062.785.098h.001l.048.007a28.81 28.81 0 011.826.32l.133.026c.27.057.538.118.806.183l.206.052c.209.052.415.106.621.163l.27.075a28.369 28.369 0 011.69.536l.163.057c.183.066.365.134.547.202l.139.053c.332.129.661.263.987.402l.104.046c.18.078.36.157.537.238l.132.062c.254.117.506.238.756.363l.157.077c.47.238.94.493 1.436.78l.096.056c.526.307 1.045.631 1.542.964l.216.147a29.679 29.679 0 012.77 2.143l.632-.61a1.062 1.062 0 01-.044-.721c.041-.147.124-.269.191-.358l.6-.828a1.23 1.23 0 01.144-.163.994.994 0 01.96-.236.96.96 0 01.426.262l1.84 1.954a.968.968 0 01.286.537.989.989 0 01-.221.793 1.078 1.078 0 01-.256.22l-.788.51c-.056.037-.11.071-.166.104a.964.964 0 01-.758.07l-.637.616c.216.233.427.472.636.712l.162.188c.356.418.695.838 1.008 1.248l.085.114a30.286 30.286 0 01.968 1.368l.077.114a28.779 28.779 0 011.055 1.722l.084.154c.133.24.262.475.385.711l.068.135.047.096c.11.216.22.431.325.649a30.135 30.135 0 01.795 1.82l.071.188c.093.237.185.474.27.714.03.081.057.163.085.244l.106.309c.041.12.083.239.122.36.087.266.169.535.248.804h6.552a.163.163 0 01.144.24l-5.633 10.81a30.11 30.11 0 01-.207 1.694l-.034.221c-.05.32-.104.638-.165.955l-.003.012-.051.254-.02.096a30.81 30.81 0 01-.23 1.038l-.055.22a29.632 29.632 0 01-.388 1.4l-.1.32c-.07.22-.142.44-.217.659l-.046.136c-.054.153-.108.304-.164.455l-.041.114c-.028.077-.056.154-.086.23-.12.315-.246.628-.377.94l-.028.062a26.44 26.44 0 01-.25.577l-.13.284c-.087.185-.174.37-.263.552l-.067.137a28.218 28.218 0 01-.678 1.29l.646-.167 1.695-.523c.306-.098.635-.205.984-.32l.932-.312 1.072-.364.037-.012c.367-.126.69-.236.975-.331l.556-.188a.16.16 0 01.052-.008c1.183-.368 1.76-.435 2.584-.092 1.331.553 1.524 2.776 1.542 3.033a2.842 2.842 0 01-.776 2.07c-.366.384-.847.674-1.43.864-.18.057-.382.12-.606.185a.139.139 0 01-.043.024.127.127 0 01-.069.048l-2.133.526a.16.16 0 01-.048.005l-.098.025a.164.164 0 01-.032.011l-.136.031a.196.196 0 01-.024.005l-.119.027c-.501.12-1.031.243-1.573.365a.135.135 0 01-.06.028l-.513.1c-.438.097-.738.16-.804.175l-.05.01a71.81 71.81 0 01-.657.115l-.609.115a.173.173 0 01-.066-.001c-.597.099-1.16.186-1.668.26l-.016.002a.157.157 0 01-.044.012l-.156.018a.176.176 0 01-.03.002v.002l-.074.009c-.583.08-1.082.14-1.481.177l-.442.05a.156.156 0 01-.084-.013 10.457 10.457 0 01-.624.01l-.056-.002a8.298 8.298 0 01-.41-.018l-.24-.018-.117-.014-.123-.014-.018-.003c-.202.211-.407.418-.613.623l-.113.11c-.15.147-.3.29-.453.433l-.19.178c-.206.19-.413.376-.622.558l-.002.002c-.219.19-.44.375-.664.558l-.173.14a29.419 29.419 0 01-1.418 1.072c-.258.187-.522.365-.788.541l-.123.08c-.174.115-.349.227-.525.337l-.22.137a29.372 29.372 0 01-4.063 2.074l-.216.088a29 29 0 01-2.443.87l-.106.031c-.268.08-.508.15-.748.215l-.248.067a28.494 28.494 0 01-3.663.717 32.12 32.12 0 01-.876.097l-.242.022c-.216.02-.43.036-.646.05l-.257.017a28.557 28.557 0 01-1.653.049z" fill="#0C1423"/><path d="M76.53 22.976a14.27 14.27 0 00-12.565-6.852 14.281 14.281 0 00-12.18 7.523 14.458 14.458 0 00.385 14.375 14.27 14.27 0 0012.565 6.852 14.281 14.281 0 0012.18-7.523 14.458 14.458 0 00-.385-14.375zm12.95 21.228c-4.866 9.033-14.152 14.769-24.36 15.045-10.208.277-19.787-4.948-25.129-13.705a28.915 28.915 0 01-.769-28.75C44.087 7.76 53.373 2.025 63.581 1.75c10.208-.277 19.787 4.947 25.129 13.704a28.916 28.916 0 01.769 28.75z" fill="#0C1423"/><path d="M64.347 16.542c-.123 0-.246.002-.37.005-4.938.133-9.468 2.931-11.822 7.301a14.072 14.072 0 00.373 13.953c2.585 4.235 7.259 6.782 12.195 6.65 4.938-.133 9.468-2.931 11.822-7.301a14.072 14.072 0 00-.373-13.952c-2.52-4.13-7.025-6.656-11.825-6.656zm.006 28.76c-5.091 0-9.869-2.678-12.541-7.06a14.926 14.926 0 01-.396-14.797c2.497-4.635 7.301-7.602 12.538-7.744 5.24-.14 10.193 2.56 12.934 7.054a14.925 14.925 0 01.396 14.798c-2.497 4.635-7.3 7.602-12.538 7.744-.131.004-.262.005-.393.005zm-.008-43.14c-.251 0-.501.003-.752.01-10.026.271-19.223 5.951-24.002 14.824-4.78 8.872-4.489 19.726.758 28.327 5.246 8.6 14.735 13.771 24.759 13.503 10.025-.27 19.222-5.952 24.001-14.824l.37.202-.37-.202c4.78-8.872 4.49-19.726-.757-28.327C83.237 7.29 74.09 2.161 64.345 2.161zm.011 57.52c-10.037 0-19.456-5.28-24.724-13.917-5.403-8.857-5.702-20.035-.78-29.173C43.773 7.455 53.245 1.606 63.57 1.326c10.329-.278 20.095 5.049 25.498 13.906 5.403 8.858 5.702 20.036.78 29.173-4.921 9.138-14.392 14.987-24.718 15.267-.258.007-.517.01-.774.01z" fill="#fff"/><path d="M64.348 17.357c-.117 0-.233.002-.35.005-4.649.126-8.914 2.76-11.13 6.875a13.25 13.25 0 00.351 13.137c2.433 3.988 6.836 6.387 11.483 6.262 4.65-.126 8.914-2.76 11.13-6.875a13.25 13.25 0 00-.351-13.137c-2.372-3.889-6.613-6.267-11.133-6.267zm.005 27.13c-4.811 0-9.326-2.532-11.85-6.67a14.104 14.104 0 01-.374-13.984c2.358-4.379 6.898-7.183 11.847-7.317 4.95-.134 9.632 2.42 12.222 6.666a14.103 14.103 0 01.374 13.982c-2.36 4.38-6.899 7.184-11.848 7.318-.124.003-.248.005-.371.005zm-.008-40.695c-.236 0-.472.003-.709.01-9.449.256-18.116 5.61-22.62 13.97-4.505 8.362-4.23 18.592.714 26.698 4.82 7.902 13.44 12.736 22.625 12.736.237 0 .472-.003.71-.01 9.448-.256 18.115-5.61 22.62-13.971l.37.201-.37-.201c4.503-8.361 4.23-18.591-.715-26.697C82.15 8.626 73.53 3.792 64.345 3.792zm.011 54.26c-9.477 0-18.37-4.987-23.343-13.14-5.1-8.362-5.383-18.916-.737-27.542 4.647-8.627 13.59-14.15 23.337-14.414 9.755-.262 18.973 4.767 24.074 13.13 5.101 8.362 5.383 18.916.737 27.542-4.647 8.627-13.59 14.15-23.337 14.414-.244.006-.488.01-.731.01z" fill="#fff"/><path d="M68.918 19.328a.538.538 0 00.03-.415 1.203 1.203 0 00-.393-.538c-.177-.127-.4-.2-.656-.225a.971.971 0 00-.556.092.765.765 0 00-.341.361c-.044.094-.088.282-.134.563-.012.072.02.12.099.141.128.038.252.069.373.092.059.014.1.017.129.002.025-.013.047-.046.066-.1l.044-.132.038-.134a.324.324 0 01.43-.209c.088.033.15.093.181.178a.323.323 0 01.014.18 1.295 1.295 0 01-.051.193l-.482 1.396c-.02.06-.04.11-.06.148a.348.348 0 01-.145.16.24.24 0 01-.199.03.237.237 0 01-.146-.137.372.372 0 01-.022-.255l.058-.232c.013-.07-.014-.12-.082-.145a4.266 4.266 0 00-.322-.08c-.062-.014-.107-.013-.133.001-.026.016-.047.053-.061.11-.02.073-.045.19-.078.351a.611.611 0 00.027.391c.11.234.211.374.309.453a.414.414 0 00.113.062c.057.02.15.048.278.086a.572.572 0 00.162.017.81.81 0 00.458-.165.8.8 0 00.291-.374c.016-.047.138-.349.368-.904l.393-.962zm-2.37-1.147c.015-.087.023-.139.025-.157.006-.063 0-.107-.022-.133-.02-.023-.066-.043-.14-.06a9.97 9.97 0 01-.227-.04c-.153-.027-.25-.016-.287.005-.036.021-.061.093-.075.215l-.057.458-.054.458a1.553 1.553 0 01-.025.16c-.02.08-.073.118-.156.114a2.771 2.771 0 01-.312-.03.157.157 0 01-.135-.12.734.734 0 01-.011-.22l.054-.88c.002-.07.002-.125 0-.163-.006-.061-.05-.096-.129-.104a2.961 2.961 0 00-.252-.017c-.172-.006-.276.004-.312.03-.036.027-.054.106-.054.237l-.008 3.034c0 .064.002.111.005.14.007.073.041.113.102.12.044.006.111.01.203.013.115.004.185-.005.209-.028.023-.024.039-.097.048-.22l.028-.453.028-.45a1.2 1.2 0 01.021-.179c.017-.078.067-.121.148-.121.069-.003.14 0 .21.012.092.012.15.034.177.065.027.031.036.09.03.174l-.016.138-.099.84a1.895 1.895 0 00-.014.158c0 .072.029.114.089.127.042.005.108.02.199.036.114.02.184.02.21 0 .028-.02.052-.091.073-.212l.268-1.502.258-1.445zm-3.581 1.002l.005.067c.006.215-.005.372-.033.475a.068.068 0 01-.043.042c-.025.01-.05.003-.073-.023a.206.206 0 01-.04-.07 142.618 142.618 0 00-.126-.36.268.268 0 01-.017-.086c.001-.037.052-.064.152-.08.111-.022.17-.003.175.035zm.114 2.15c.066-.014.133-.019.2-.025.076-.007.126-.024.151-.05.026-.027.042-.085.046-.172.007-.047.032-.656.175-1.829.028-.212.084-.65.194-1.318.012-.073.019-.12.02-.14.001-.078-.043-.117-.134-.118a3.335 3.335 0 00-.507.036c-.088.01-.137.052-.149.125a5.438 5.438 0 00-.045.423c-.005.132-.031.216-.08.25-.038.027-.136.042-.294.069l-.047.005c-.103.014-.172-.018-.207-.095a3.032 3.032 0 01-.07-.167l-.06-.172a31.449 31.449 0 01-.06-.172c-.019-.046-.042-.076-.07-.09-.029-.015-.073-.02-.134-.012-.027.003-.12.012-.276.05-.16.034-.255.068-.282.098-.04.045-.025.136.042.274.157.339.369.809.615 1.415.273.67.446 1.16.545 1.44.013.04.025.072.036.095.024.054.046.087.067.1.02.014.056.018.106.013l.217-.036v.002zm-2.083-2.916a1.558 1.558 0 00-.055-.17c-.025-.061-.075-.083-.15-.068-.16.035-.314.083-.46.143-.075.029-.105.08-.095.14.01.048.026.106.049.174l.138.41.14.408c.028.084.04.142.033.177-.002.013-.01.024-.023.035-.023.017-.043.017-.061-.001a.847.847 0 01-.097-.102l-.33-.458-.164-.22-.168-.22c-.03-.04-.061-.063-.09-.07a.3.3 0 00-.136.02c-.088.03-.172.07-.258.111-.068.034-.11.066-.127.096-.019.029-.024.073-.014.135.013.094.034.228.064.4l.052.266.055.268c.017.075.019.128.007.16a.04.04 0 01-.027.03c-.017.008-.03.009-.04.001a.658.658 0 01-.182-.236 134.29 134.29 0 00-.147-.297l-.15-.295a1.168 1.168 0 00-.08-.138c-.03-.05-.077-.061-.137-.037a2.549 2.549 0 00-.449.24c-.063.043-.08.095-.056.157.018.043.046.097.083.162l1.485 2.591c.038.066.066.111.083.136.043.062.092.079.148.052.128-.064.284-.148.47-.25.063-.03.084-.085.065-.163l-.058-.212-.053-.213-.158-.653c-.07-.302-.116-.522-.145-.659a.225.225 0 01-.005-.041c.002-.045.02-.074.05-.086a.064.064 0 01.076.018.827.827 0 01.091.107c.097.14.225.33.38.57.182.284.301.478.363.579l.19.306c.034.057.077.075.128.056.205-.082.391-.123.541-.177.054-.016.076-.058.065-.124a1.863 1.863 0 00-.041-.175l-.403-1.452-.397-1.431zM58.285 22.1l.2.277c.07.11.05.198-.06.265-.152.105-.298.098-.439-.02a1.455 1.455 0 01-.307-.369.339.339 0 01-.03-.28.373.373 0 01.19-.227c.087-.043.156-.033.208.03l.236.326.002-.001zm-.893.734l.257.283a.86.86 0 00.354.208c.12.032.248.034.384.006a.898.898 0 00.381-.184c.017-.016.091-.064.218-.153l.215-.157c.095-.072.152-.113.157-.145.005-.03-.025-.099-.092-.204l-1.649-2.598a.814.814 0 00-.084-.115c-.043-.048-.098-.054-.165-.018-.095.05-.19.121-.297.197-.097.071-.15.124-.159.16-.011.034.01.09.062.166l.472.653c.046.065.076.109.088.133.04.075.025.145-.045.21l-.192.163a.877.877 0 00-.17.183.818.818 0 00-.146.505.76.76 0 00.18.457l.23.252.001-.002zm-.127 1.285c.062.057.108.096.136.116.057.044.11.044.159.002.031-.029.079-.076.141-.143.08-.085.12-.144.117-.176 0-.034-.044-.095-.131-.183l-2.123-2.154a1.067 1.067 0 00-.12-.109c-.056-.043-.117-.035-.182.023-.048.044-.114.11-.198.2-.109.115-.165.193-.17.231 0 .039.045.1.139.184l1.13 1.017 1.102.992zm-2.917-.603c.081-.11.178-.155.29-.132a.51.51 0 01.195.103l1.333.982c.063.046.104.08.124.1.095.093.108.195.04.307-.07.112-.163.153-.284.12a.7.7 0 01-.16-.075l-1.434-.945a.42.42 0 01-.143-.141c-.057-.103-.045-.21.039-.319zm1.589 2.1a.84.84 0 00.385-.006.648.648 0 00.323-.162c.097-.107.202-.234.285-.405a.392.392 0 00.034-.184c-.006-.344-.106-.612-.344-.802l-.723-.602-.737-.613a.708.708 0 00-.383-.176.9.9 0 00-.514.09 1.329 1.329 0 00-.435.39 1.123 1.123 0 00-.15 1.108.392.392 0 00.08.121c.163.143.267.227.312.252l1.46.835c.117.066.253.117.407.154zm-1.327-.21l-1.308-.683a1.142 1.142 0 00-.163-.075c-.072-.026-.135.003-.19.087a1.5 1.5 0 00-.102.204c-.075.163-.107.264-.098.3.008.039.074.085.197.14l.5.225.5.225a.59.59 0 01.188.115c.022.024.029.049.022.076-.008.03-.029.047-.062.048a1.719 1.719 0 01-.185 0 20.054 20.054 0 00-.614-.02c-.363-.002-.57.005-.62.006-.017 0-.044 0-.082.002l-.08.003c-.088.003-.15.053-.189.15-.047.117-.08.215-.1.29-.052.166-.069.27-.054.31.016.04.088.079.216.117l2.883.86c.057.018.109.03.154.04.056.01.093-.008.112-.053.026-.063.05-.133.073-.21.032-.112.05-.179.035-.207-.014-.03-.079-.066-.195-.108l-1.03-.376a2.856 2.856 0 01-.148-.057.925.925 0 01-.1-.063c-.027-.019-.036-.043-.028-.073.007-.03.027-.047.06-.05a12.9 12.9 0 01.636.041c.232.02.412.038.554.054l.198.024.196.024c.074.01.123-.01.149-.063.075-.15.126-.29.187-.4.024-.05.008-.093-.05-.13a1.797 1.797 0 00-.154-.088l-1.308-.685zm-2.906 3.06c-.026.222-.041.338-.038.352a.87.87 0 00.18.518.7.7 0 00.409.283c.362.09.702-.01 1.017-.262a4.77 4.77 0 00.414-.377c.074-.076.158-.146.252-.208.196-.126.384-.152.568-.093.133.045.201.124.202.237.002.114-.068.188-.209.227a7.04 7.04 0 01-.134.032c-.058.016-.09.054-.093.115-.01.12.001.254.032.398.01.05.042.075.1.072a.921.921 0 00.535-.175.76.76 0 00.265-.34.89.89 0 00.06-.461.763.763 0 00-.17-.422.924.924 0 00-.442-.3 1.063 1.063 0 00-.953.129 5.78 5.78 0 00-.5.378l-.297.244a.519.519 0 01-.399.115.264.264 0 01-.177-.105.336.336 0 01-.075-.201c-.005-.157.071-.273.225-.342a.25.25 0 01.077-.023l.069-.01a.988.988 0 01.07-.008c.054-.008.093-.022.114-.043a.232.232 0 00.05-.122c.013-.065.029-.195.048-.391.007-.063-.016-.102-.07-.12a.47.47 0 00-.115-.027 1.122 1.122 0 00-.571.135.769.769 0 00-.221.198c-.129.153-.192.357-.223.597zm.216 1.632a2.04 2.04 0 00-.16-.002c-.062.002-.105.015-.127.04-.02.023-.034.072-.04.148-.001.045-.01.122-.006.232.005.156.022.252.05.285.025.033.1.047.221.044l.458-.01.459-.013c.074-.002.128-.001.16.002.082.009.126.055.133.14.012.081.008.186.018.314.003.07-.03.12-.096.15a.734.734 0 01-.215.045l-.874.073a1.893 1.893 0 00-.16.023c-.06.015-.088.064-.086.144.001.057.006.142.017.253.014.174.049.275.08.307.032.031.114.038.243.019l2.984-.433c.063-.01.109-.018.136-.024.07-.018.104-.058.099-.12-.006-.043-.008-.111-.017-.202-.01-.116-.028-.184-.054-.205-.026-.019-.1-.024-.223-.015l-.449.037-.447.038a1.276 1.276 0 01-.178.004c-.079-.006-.127-.049-.144-.13a.724.724 0 01-.022-.21c0-.093.015-.155.042-.186.027-.03.083-.049.167-.055l.138-.003.84-.024a1.86 1.86 0 00.158-.009c.071-.01.109-.045.114-.106.002-.043 0-.111 0-.204.004-.116-.005-.186-.027-.21-.024-.023-.097-.037-.219-.041l-1.516-.05-1.458-.046zm3.203 2.702c.082-.02.14-.036.172-.047.068-.023.098-.067.09-.131a2.857 2.857 0 00-.04-.198c-.026-.114-.054-.18-.078-.197-.026-.018-.1-.016-.222.007l-2.964.551a1.04 1.04 0 00-.157.04c-.067.022-.101.078-.088.164.01.065.028.158.055.277.034.156.067.245.096.27.031.024.107.02.23-.01l1.47-.368 1.436-.358zm-.489 1.192l.32-.115c.125-.038.206.005.24.13.05.18 0 .32-.15.421a1.433 1.433 0 01-.437.193.327.327 0 01-.276-.049.4.4 0 01-.157-.251c-.019-.095.009-.158.083-.19l.378-.137v-.002zm.444 1.07l.342-.168c.265-.16.403-.383.417-.655a.942.942 0 00-.015-.215.962.962 0 00-.05-.206l-.09-.251a2.94 2.94 0 01-.088-.253c-.033-.114-.064-.178-.092-.192-.028-.014-.102-.003-.221.032l-2.942.86a.809.809 0 00-.133.05c-.058.027-.078.078-.06.153.023.105.055.22.095.346.042.112.08.178.11.196.031.02.09.016.178-.014l.756-.271c.075-.027.125-.043.151-.048.083-.018.147.016.19.1.017.03.05.109.098.234.038.1.084.17.126.215a.88.88 0 00.444.282.718.718 0 00.48-.042l.305-.15-.002-.002zm4.704 6.608a.537.537 0 00-.03.416c.085.223.218.403.393.537.177.128.4.2.656.226a.971.971 0 00.556-.092.765.765 0 00.342-.362c.043-.093.087-.281.134-.562.012-.072-.022-.12-.1-.142a4.352 4.352 0 00-.373-.092c-.059-.013-.1-.016-.129-.002-.025.014-.047.047-.066.1l-.044.132-.038.135a.325.325 0 01-.43.209.295.295 0 01-.181-.178.325.325 0 01-.014-.18c.01-.061.028-.126.051-.193l.483-1.397c.02-.06.04-.108.059-.148a.35.35 0 01.145-.16.241.241 0 01.199-.03c.065.02.113.066.146.138a.372.372 0 01.022.254l-.058.232c-.013.071.014.12.082.146.106.03.213.057.322.08.062.013.107.013.133-.002.026-.016.047-.052.061-.11.02-.072.045-.19.078-.35a.61.61 0 00-.027-.392c-.11-.233-.211-.373-.31-.452a.416.416 0 00-.112-.062 7.306 7.306 0 00-.278-.086c-.046-.016-.101-.016-.162-.017a.813.813 0 00-.458.165.805.805 0 00-.292.374c-.015.047-.138.348-.367.904l-.393.961zm2.371 1.148a2.189 2.189 0 00-.025.157c-.007.063 0 .107.02.133.02.023.067.043.141.059l.227.04c.154.027.25.016.287-.005.036-.02.061-.093.076-.215l.057-.457.053-.458c.01-.074.017-.128.025-.16.02-.08.073-.118.157-.115.082.002.186.012.311.03.07.011.115.051.135.12a.727.727 0 01.012.22l-.055.881a2.14 2.14 0 000 .162c.006.062.05.097.13.105.056.007.14.013.25.017.174.006.278-.005.314-.03.035-.027.053-.106.054-.238l.007-3.033c0-.065-.001-.111-.005-.14-.007-.073-.041-.114-.102-.121a2.776 2.776 0 00-.202-.013c-.116-.004-.185.006-.21.028-.022.025-.038.098-.047.22l-.029.453-.027.45a1.22 1.22 0 01-.022.18c-.017.077-.066.12-.148.12a1.1 1.1 0 01-.21-.01c-.091-.014-.15-.035-.177-.067-.026-.03-.036-.088-.03-.173l.017-.139.098-.839a1.82 1.82 0 00.014-.159c0-.071-.029-.114-.089-.126-.041-.005-.108-.02-.2-.036-.113-.02-.183-.02-.21 0-.026.02-.05.09-.072.212l-.268 1.502-.257 1.445zm3.58-1.003c0-.016-.003-.038-.005-.067a1.77 1.77 0 01.033-.474.068.068 0 01.043-.043c.025-.01.05-.003.073.023.02.024.033.047.04.07l.057.167.068.193c.015.047.02.075.019.086-.002.037-.053.064-.153.08-.11.023-.17.003-.175-.035zm-.114-2.149c-.066.013-.133.018-.2.025-.076.006-.126.023-.15.049-.027.028-.042.085-.047.172-.007.047-.031.657-.175 1.829-.028.212-.083.65-.194 1.318-.012.073-.018.12-.02.14 0 .078.044.118.134.118.14.004.308-.01.507-.036.087-.01.137-.052.149-.125a5.37 5.37 0 00.046-.423c.004-.132.03-.216.08-.25.037-.027.135-.041.293-.069l.047-.005c.103-.014.173.018.207.095a3.25 3.25 0 01.13.34l.06.172c.02.045.042.075.07.089a.24.24 0 00.134.013c.027-.004.12-.013.276-.05.16-.035.255-.068.282-.099.04-.045.024-.136-.041-.274a31.48 31.48 0 01-.616-1.415c-.273-.67-.445-1.16-.544-1.44a1.222 1.222 0 00-.037-.095c-.023-.054-.046-.087-.066-.1-.021-.014-.056-.018-.107-.013l-.217.036v-.002zm2.084 2.915c.022.08.04.137.054.171.025.06.075.083.149.067a2.69 2.69 0 00.461-.143c.075-.029.105-.08.096-.14a1.414 1.414 0 00-.05-.173l-.137-.411-.14-.408a.414.414 0 01-.034-.176c.002-.013.01-.025.024-.036.022-.017.042-.017.06.002a.832.832 0 01.097.102l.33.458.165.22c.068.09.123.163.167.219.03.04.061.063.09.07a.311.311 0 00.136-.02c.088-.029.172-.07.258-.11.068-.035.11-.067.127-.096.02-.029.024-.074.015-.135a12.281 12.281 0 00-.065-.4l-.052-.267-.055-.267a.326.326 0 01-.007-.161.04.04 0 01.027-.03c.017-.008.03-.008.041 0 .067.05.128.128.181.235l.147.297.15.295c.028.057.055.103.08.139.03.048.077.06.138.036a2.52 2.52 0 00.448-.24c.063-.042.081-.095.056-.156a1.41 1.41 0 00-.083-.163l-1.485-2.59a1.877 1.877 0 00-.083-.136c-.043-.063-.092-.079-.148-.052a13.7 13.7 0 00-.47.25c-.062.03-.084.084-.064.162l.057.212.054.214.157.653c.07.301.116.522.145.658a.225.225 0 01.006.041c-.003.045-.02.074-.051.086a.064.064 0 01-.076-.017.848.848 0 01-.091-.107c-.097-.141-.225-.33-.38-.57-.182-.285-.3-.479-.363-.58l-.19-.306c-.034-.056-.076-.075-.127-.055-.206.081-.392.123-.542.176-.054.017-.075.058-.065.124.007.043.02.102.041.175l.403 1.453.398 1.43zm2.712-3.683l-.2-.277c-.07-.11-.05-.198.06-.265.152-.105.298-.098.439.02.114.096.217.218.308.369.05.087.06.18.03.28a.374.374 0 01-.191.227c-.087.043-.156.034-.208-.03l-.236-.326-.002.002zm.893-.734l-.257-.283a.862.862 0 00-.354-.208.84.84 0 00-.384-.006.896.896 0 00-.381.184c-.016.016-.091.064-.218.153l-.215.157c-.094.072-.152.113-.156.145-.006.031.025.099.091.204l1.649 2.599a.7.7 0 00.084.114c.043.048.098.054.165.018.095-.05.19-.121.297-.197.097-.071.15-.124.16-.159.01-.035-.01-.09-.063-.167l-.472-.653a1.343 1.343 0 01-.088-.133c-.04-.075-.025-.145.045-.21.026-.021.09-.075.192-.163a.873.873 0 00.17-.183.818.818 0 00.146-.505.757.757 0 00-.18-.457l-.229-.252-.002.002zm.128-1.284a2.576 2.576 0 00-.136-.117c-.058-.043-.11-.044-.16-.002a2.692 2.692 0 00-.14.143c-.081.086-.12.144-.118.177 0 .033.044.094.131.182l2.123 2.155c.05.05.09.087.12.108.057.043.118.036.182-.023.048-.044.114-.11.199-.2.108-.115.164-.192.169-.23.001-.04-.045-.1-.138-.185l-1.13-1.017-1.102-.992zm2.916.601c-.081.11-.178.155-.29.133a.52.52 0 01-.195-.103l-1.333-.982a1.077 1.077 0 01-.124-.1c-.094-.093-.108-.195-.04-.307.07-.113.163-.154.284-.121.05.016.104.04.16.076l1.434.945a.419.419 0 01.143.14c.057.103.045.21-.039.32zm-1.589-2.1a.834.834 0 00-.385.006.642.642 0 00-.323.163 1.658 1.658 0 00-.285.404.39.39 0 00-.034.184c.007.344.107.612.344.802l.723.602.737.614c.123.103.25.162.383.175a.898.898 0 00.514-.09c.157-.082.303-.213.435-.39a1.125 1.125 0 00.15-1.108.39.39 0 00-.08-.12 2.772 2.772 0 00-.312-.252l-1.46-.835a1.551 1.551 0 00-.407-.154zm1.327.21l1.308.684c.073.038.127.063.163.075.072.026.135-.004.189-.088.024-.035.06-.102.103-.203.075-.164.108-.264.099-.3-.008-.04-.075-.086-.198-.141l-.5-.225-.5-.224a.582.582 0 01-.188-.115c-.022-.024-.03-.05-.022-.077.008-.03.029-.046.062-.048.073-.003.134-.003.185 0a13.645 13.645 0 001.234.014c.017 0 .044 0 .082-.002.036 0 .063-.002.08-.003.088-.003.151-.053.189-.15.047-.117.08-.215.101-.29.05-.166.068-.27.053-.31-.016-.04-.088-.078-.216-.117l-2.883-.86a1.622 1.622 0 00-.154-.039c-.056-.01-.093.008-.112.053a2.12 2.12 0 00-.073.21c-.032.112-.05.178-.034.207.013.029.078.065.194.108.02.006.326.118 1.03.375.076.028.125.047.148.057.026.014.06.035.1.063.027.02.037.044.029.074-.008.03-.028.046-.061.05a.614.614 0 01-.08-.002 22.421 22.421 0 01-1.11-.093l-.198-.025-.197-.023c-.073-.01-.123.01-.148.063-.075.15-.126.289-.186.4-.025.05-.009.093.049.13.033.022.084.051.154.088l1.308.684zm2.906-3.06c.026-.221.041-.338.038-.351a.868.868 0 00-.181-.518.7.7 0 00-.407-.284c-.363-.09-.703.01-1.017.262a4.432 4.432 0 00-.414.377 1.565 1.565 0 01-.253.209c-.195.125-.384.152-.568.093-.133-.046-.2-.125-.202-.238-.001-.113.068-.188.209-.227l.068-.015.066-.016a.119.119 0 00.094-.115 1.445 1.445 0 00-.032-.398c-.01-.051-.043-.075-.1-.073a.921.921 0 00-.536.175.76.76 0 00-.265.34.895.895 0 00-.06.462.763.763 0 00.17.421.92.92 0 00.442.3c.32.107.635.074.954-.129.014-.008.189-.122.5-.378l.296-.244a.519.519 0 01.399-.115c.069.01.13.044.177.105a.33.33 0 01.075.202c.004.157-.07.273-.225.342a.276.276 0 01-.076.022l-.07.01-.07.009c-.054.007-.092.022-.114.043a.228.228 0 00-.05.121 4.57 4.57 0 00-.047.392c-.008.062.015.102.068.12a.467.467 0 00.116.026c.169.012.358-.03.571-.134a.779.779 0 00.221-.199c.13-.153.192-.356.223-.597zM76.78 30.9c.088.002.141.003.16.001.063-.002.105-.015.127-.04.02-.023.034-.072.04-.148.002-.045.01-.122.007-.232-.006-.156-.023-.251-.05-.285-.026-.033-.1-.047-.222-.044l-.458.01-.458.013a1.536 1.536 0 01-.162-.002c-.08-.009-.125-.055-.132-.14-.012-.081-.008-.186-.017-.313-.003-.071.028-.121.095-.152a.733.733 0 01.215-.044l.874-.073c.069-.008.122-.015.16-.023.06-.015.088-.064.085-.144 0-.057-.005-.142-.016-.253-.014-.174-.049-.275-.08-.307-.032-.031-.113-.037-.243-.019l-2.983.433c-.065.01-.11.017-.137.025-.07.018-.104.057-.099.118.006.044.009.112.017.203.01.116.029.184.054.205.027.019.1.024.223.016l.45-.038.446-.038c.072-.006.132-.007.179-.004.078.006.126.05.144.13a.739.739 0 01.021.21c0 .093-.014.155-.042.186-.027.03-.082.049-.167.055l-.139.003-.839.024a1.885 1.885 0 00-.158.01c-.07.009-.109.044-.113.105-.003.043 0 .111 0 .204-.005.116.004.186.026.21.024.023.097.037.22.041l1.515.05 1.458.046zm-3.203-2.702c-.082.02-.139.036-.172.047-.068.024-.098.067-.09.131.006.043.02.109.04.198.026.114.054.18.078.197.026.018.1.016.222-.006l2.964-.553a.996.996 0 00.157-.038c.067-.023.101-.08.088-.165a3.905 3.905 0 00-.055-.277c-.034-.155-.067-.245-.096-.27-.03-.023-.107-.02-.229.01l-1.472.368-1.435.358zm.489-1.192l-.32.115c-.125.037-.205-.006-.24-.131-.05-.18.001-.319.15-.42.122-.083.268-.148.438-.194a.327.327 0 01.276.05.403.403 0 01.156.25c.02.095-.009.159-.083.191l-.378.136.001.003zm-.443-1.071l-.343.169c-.265.16-.403.382-.417.655a.945.945 0 00.016.215c.01.07.024.139.049.205a58.618 58.618 0 01.178.504c.033.114.064.178.093.192.028.014.102.004.22-.03l2.943-.862a.803.803 0 00.133-.049c.057-.027.077-.079.06-.153a4.552 4.552 0 00-.096-.346c-.042-.113-.08-.178-.11-.196-.031-.02-.09-.016-.178.013l-.756.272a1.375 1.375 0 01-.15.048c-.084.018-.148-.016-.191-.101a2.764 2.764 0 01-.097-.234.676.676 0 00-.127-.215.885.885 0 00-.443-.282.718.718 0 00-.48.042l-.306.15.002.003z" fill="#fff"/><path d="M80.015 33.728l-.005-4.738h-.005c.003-.107.009-.213.009-.321 0-7.387-7.182-13.4-16.012-13.4s-16.011 6.013-16.011 13.4v.001h-.002v5.058h.002c0 7.39 7.182 13.402 16.011 13.402 8.83 0 16.012-6.012 16.012-13.402z" fill="#0C1423"/><path d="M88.195 8.905a.82.82 0 00.186-.66.792.792 0 00-.156-.35 1.417 1.417 0 00-.088-.102l-.376-.404-.634-.675-.658-.694-.172-.18a.808.808 0 00-.355-.218.829.829 0 00-.801.198 1.082 1.082 0 00-.125.141l-.415.573-.186.258a.93.93 0 00-.165.306.898.898 0 00.07.68l.017.029-9.454 9.136a.766.766 0 00-.852.549.781.781 0 00.011.467L47.78 43.014l-.01.012c-.018.02-1.734 2.038-3.948 2.26-.763.076-1.518.075-2.244-.003l-1.537-.31-.012-.005-.047-.01h-.006l-.001-.009-2.203-.532a27.023 27.023 0 01-.239-.07l-1.697-.522c-.308-.099-.637-.206-.987-.322l-.932-.311c-.392-.132-.746-.253-1.074-.365l-.036-.012c-.367-.125-.69-.235-.975-.33l-.556-.188.002.008c-1.24-.39-1.763-.43-2.524-.113-1.243.517-1.426 2.661-1.442 2.895 0 .01-.098 1.076.731 1.944.347.364.806.64 1.363.82.192.063.412.13.657.2l-.007.01.495.128c.504.138 1.09.289 1.74.447l.128.033.052.013.09.022v-.001l.14.032c.518.124 1.066.251 1.626.377l.01.002-.01.013.514.1c.492.109.808.176.82.178l.012.003c.038.006.295.053.675.118l.196.039.415.077-.002-.013.053.009c.602.1 1.167.188 1.677.261l.055.009v.005l.157.019.029.004.074.008c.582.08 1.081.14 1.478.176l.072.009.373.042-.003-.017c1.557.086 2.782-.168 3.475-.728.626-.506 11.343-10.503 11.454-10.607l19.868-19.108a.724.724 0 00.751-.003.745.745 0 00.338-.796l9.505-9.186a.785.785 0 00.706-.017l.01-.006c.053-.03.105-.064.158-.099l.085-.054.55-.356.154-.1a.933.933 0 00.22-.189z" fill="#0C1423"/><path d="M87.168 8.238l-1.023.984-1.082 1.041-.029.029-.925.888-.03.029-.922.888-.031.03-.922.886-.031.03-.922.886-.032.031-.922.887-.033.032-.92.885-.033.032-.92.884-.034.033-.92.884-.034.033-.919.885-.035.033-.147.142-.625.6-20.054 19.29S44.807 48.668 44.19 49.167c-.617.498-1.835.783-3.606.629-1.77-.155-4.857-.717-4.857-.717s-4.181-.883-6.22-1.545c-2.038-.66-1.866-2.414-1.866-2.414s.099-1.419.713-2.2c.106-.119.796-.798 2.353-.237 1.703.615 8.901 3.594 12.017 3.55 1.13-.017 2.874-.21 4.847-2.084l27.191-25.817-.3-.315.617-.59.01-.009.514-.49.08-.077.876-.835.084-.082.872-.83.09-.086.867-.827.094-.089.862-.823.098-.094.859-.819.102-.097.854-.815.107-.102.85-.81.11-.106.846-.807.115-.11.841-.802.12-.115.64-.61.178-.17.49-.468.413-.394c1.076.508 1.117 1.278 1.117 1.278z" fill="#0C1423"/><path d="M87.168 8.239l-4.822 4.676L69.619 25.23l-8.511 8.22-4.65 4.485c-.787.771-1.61 1.525-2.43 2.294l-2.489 2.323c-1.677 1.56-3.383 3.144-5.109 4.748l-1.304 1.202-.66.6c-.113.1-.227.204-.363.29a2.663 2.663 0 01-.414.218c-.574.238-1.186.325-1.79.354a11.355 11.355 0 01-1.812-.08 66.405 66.405 0 01-3.578-.528c-.3-.053-.593-.1-.897-.16l-.888-.194a110.72 110.72 0 01-1.774-.406c-1.182-.286-2.364-.567-3.534-.947-.146-.06-.3-.102-.438-.181l-.212-.11-.2-.132a2.58 2.58 0 01-.674-.689 2.464 2.464 0 01-.393-1.389c.01-.166.032-.316.056-.472.107-.614.262-1.235.642-1.776.1-.15.245-.25.386-.333.145-.082.3-.143.46-.18.318-.081.646-.074.96-.029.314.044.62.143.905.25l.855.325 1.702.648a87.08 87.08 0 003.419 1.21c1.145.375 2.296.721 3.459.984.58.135 1.166.23 1.75.296.293.009.583.038.877.02.293-.01.584-.038.87-.089 1.151-.189 2.212-.744 3.107-1.48.447-.365.863-.784 1.29-1.184l1.27-1.204 2.514-2.382 18.186-17.207c1.849-1.744 3.59-3.386 4.467-4.215l-.298-.315 8.075-7.658 2.073-1.96c.605-.567 1.109-1.067 1.537-1.44.529.25.83.594.967.857.07.131.104.24.121.313.018.073.02.112.02.112s-.003-.04-.02-.112a1.301 1.301 0 00-.124-.311c-.136-.26-.45-.606-.963-.842-.051.02-.1.089-.156.136l-.169.162-.363.349a7116.876 7116.876 0 00-2.885 2.776l-7.942 7.622.303.315-4.532 4.33-18.127 17.27-2.509 2.386-1.269 1.206c-.426.4-.839.818-1.303 1.2-.917.758-2.023 1.34-3.225 1.54a6.768 6.768 0 01-.904.094c-.3.019-.607-.01-.91-.02a15.37 15.37 0 01-1.787-.299c-1.177-.264-2.335-.611-3.485-.987a87.361 87.361 0 01-3.43-1.213l-1.705-.647-.852-.322a3.945 3.945 0 00-.85-.236 2.176 2.176 0 00-.852.024 1.45 1.45 0 00-.389.152c-.118.07-.233.15-.3.258-.33.464-.49 1.066-.588 1.651-.023.147-.044.3-.053.44a2.176 2.176 0 00.348 1.222c.313.485.824.812 1.377 1 1.146.373 2.332.657 3.508.942.59.14 1.18.275 1.77.407l.885.194c.288.057.592.106.887.158a66.34 66.34 0 003.562.527c.593.07 1.182.109 1.77.083.584-.026 1.172-.112 1.7-.33.129-.057.257-.118.372-.195.116-.073.223-.17.333-.267l.658-.596 1.305-1.198 5.116-4.739 2.495-2.316c.823-.769 1.645-1.517 2.435-2.286 1.59-1.526 3.147-3.018 4.662-4.47l8.545-8.184 12.8-12.238 4.86-4.636z" fill="#fff"/><path d="M86.257 9.34L84.71 7.72a.525.525 0 01-.049-.653l.657-.89c.184-.247.507-.288.708-.077l1.892 1.983c.202.211.149.534-.105.708l-.91.625a.517.517 0 01-.646-.075z" fill="#0C1423"/><path d="M86.257 9.34l-.317-.305a295.88 295.88 0 00-.826-.815l-.264-.265-.14-.14a.735.735 0 01-.139-.172.612.612 0 01-.048-.467.66.66 0 01.117-.213l.13-.181.27-.37.136-.188.069-.096a.792.792 0 01.09-.1.552.552 0 01.524-.134.527.527 0 01.24.15l.166.173.657.693.633.674.302.323c.05.057.094.099.148.165a.49.49 0 01.097.22.531.531 0 01-.122.428.665.665 0 01-.157.134l-.154.1-.55.356c-.083.052-.156.101-.232.146a.507.507 0 01-.233.058.54.54 0 01-.31-.097c-.062-.045-.087-.077-.087-.077s.028.03.091.069c.063.038.17.079.305.07a.46.46 0 00.209-.067c.066-.045.14-.103.219-.16l.528-.386c.095-.074.209-.135.276-.224.07-.09.105-.21.081-.324a.361.361 0 00-.075-.156c-.037-.043-.096-.1-.144-.149l-.309-.316-.644-.663-.662-.689-.165-.174a.346.346 0 00-.159-.102.374.374 0 00-.355.09.637.637 0 00-.067.075l-.07.094c-.048.062-.094.124-.14.186l-.276.365-.134.178a.516.516 0 00-.1.165.47.47 0 00.026.356c.052.1.165.195.246.291l.252.277.776.863.29.331z" fill="#fff"/><path d="M76.376 19.395a.427.427 0 01-.308.12.43.43 0 01-.304-.134l-1.307-1.369a.438.438 0 01.012-.614.43.43 0 01.611.012l1.313 1.375a.439.439 0 01-.017.61z" fill="#0C1423"/><path d="M76.376 19.395c-.001-.006-.064.094-.247.128a.45.45 0 01-.317-.07c-.105-.082-.193-.184-.304-.291l-.733-.742c-.133-.142-.269-.266-.41-.433a.499.499 0 01.063-.632.482.482 0 01.628-.037l.066.054.05.054.102.108.199.212.707.767c.101.116.2.208.275.317a.458.458 0 01.058.322c-.04.182-.144.24-.137.243-.007-.001.09-.07.114-.247a.417.417 0 00-.072-.294c-.071-.09-.183-.185-.287-.295l-.733-.741-.202-.209-.103-.106-.052-.053-.051-.04a.368.368 0 00-.48.03.381.381 0 00-.052.483c.115.14.266.288.391.426l.707.766c.104.11.195.225.281.301a.415.415 0 00.29.085c.176-.018.249-.112.249-.106z" fill="#fff"/><path d="M74.762 18.332L47.571 44.148c-1.973 1.874-3.718 2.068-4.847 2.084-3.116.045-10.314-2.934-12.016-3.55-1.558-.56-2.248.12-2.354.238.145-.185.319-.335.526-.421 1.089-.453 1.6-.095 5.807 1.3 4.209 1.395 5.247 1.487 5.247 1.487s1.528.569 3.92.329c2.394-.239 4.169-2.376 4.169-2.376L74.46 18.017l.301.315z" fill="#fff"/><path d="M30.915 42.65c.242.089.558.21.93.353 2.677 1.027 8.257 3.167 10.877 3.126 1.235-.018 2.895-.267 4.778-2.056l27.116-25.745-.158-.165-26.364 25.152c-.066.08-1.822 2.163-4.23 2.403-2.301.231-3.792-.272-3.953-.33-.141-.016-1.291-.176-5.256-1.49-.769-.255-1.414-.475-1.962-.662a51.307 51.307 0 00-1.778-.587zm11.739 3.687c-2.697 0-8.217-2.118-10.882-3.14-.468-.18-.845-.324-1.1-.416-1.483-.535-2.127.08-2.24.209l-.159-.133c.166-.213.357-.366.568-.454.925-.385 1.44-.209 3.918.636.548.187 1.193.407 1.96.661 4.134 1.37 5.214 1.482 5.224 1.483l.026.006c.016.005 1.538.558 3.875.323 2.324-.232 4.082-2.318 4.1-2.34l26.52-25.301.444.464-.075.072S49.614 42.35 47.642 44.224c-1.936 1.838-3.644 2.094-4.917 2.112l-.071.001z" fill="#fff"/><path d="M28.43 42.99l-.171-.117.02-.022.151.14z" fill="#fff"/><path d="M31.55 42.573l1.004 6.054 1.89.418 3.324-4.502-1.887-.562-1.99 2.83-.656-3.682-1.686-.556z" fill="#F04941"/><path d="M32.646 48.54l1.754.388 3.194-4.326-1.67-.499-2.093 2.974-.688-3.867-1.462-.482.965 5.811zm1.842.624l-2.025-.45-1.046-6.295 1.91.629.622 3.495 1.89-2.685 2.103.627-3.454 4.679z" fill="#0C1423"/><path d="M36.7 49.482l-1.093-5.58-1.804-.586-3.512 4.758 1.95.481 2.059-2.927.626 3.52 1.773.334z" fill="#F04941"/><path d="M35.017 49.058l1.55.291-1.051-5.367-1.674-.542-3.373 4.569 1.727.426 2.163-3.074.658 3.697zm1.815.556l-1.996-.375-.595-3.344-1.956 2.78-2.173-.537 3.651-4.946 1.935.627 1.134 5.795z" fill="#0C1423"/><path d="M35.776 44.023l1.323 5.48 1.85.269 3.003-4.245-1.75-.335-1.912 2.774-.728-3.408-1.786-.535z" fill="#F04941"/><path d="M37.182 49.41l1.72.25 2.872-4.061-1.525-.293-2.01 2.915-.765-3.581-1.555-.466 1.264 5.236zm1.814.473l-1.981-.288-1.381-5.723 2.016.604.691 3.234 1.815-2.633 1.973.378-3.133 4.428z" fill="#0C1423"/><path d="M41.019 50.049l-.86-4.962-1.965-.425-3.268 4.486 1.913.35 2.012-2.684.544 3.058 1.624.177z" fill="#F04941"/><path d="M39.485 49.776l1.406.153-.824-4.754-1.829-.395-3.128 4.294 1.684.309 2.119-2.826.572 3.219zm1.66.393l-1.839-.2-.515-2.898-1.907 2.543-2.142-.392 3.407-4.678 2.1.454.897 5.17zM84.803 7.816l-9.831 9.5 1.454 1.503 9.82-9.49-1.443-1.513z" fill="#0C1423"/><path d="M75.118 17.32l1.31 1.353L86.1 9.326l-1.3-1.363-9.682 9.356zm1.306 1.645l-1.598-1.65 9.98-9.645 1.586 1.662-9.968 9.633z" fill="#fff"/><path d="M84.097 8.499l.576.255.433 1.676-1.01-1.931z" fill="#0C1423"/><path d="M84.097 8.499l.1.022c.063.018.155.037.26.071l.118.037c.044.015.07.023.17.063l.046.15.063.204.059.213.052.214.044.21c.028.135.05.263.064.374.016.11.02.204.028.27l.005.103-.045-.093c-.025-.06-.067-.145-.106-.25a5.695 5.695 0 01-.127-.358l-.062-.204-.059-.212-.051-.215-.045-.209-.011-.06v-.013c.009 0-.05-.03-.085-.05l-.107-.062c-.096-.056-.172-.11-.227-.145l-.084-.06z" fill="#fff"/><path d="M83.144 9.42l.576.254.434 1.676-1.01-1.93z" fill="#0C1423"/><path d="M83.144 9.42s.037.007.101.022c.063.017.154.037.26.07l.117.038c.045.015.07.022.17.063l.047.15.063.204.058.212.052.214.045.21c.028.136.049.264.064.374.016.11.02.205.027.27l.006.103-.045-.093c-.025-.06-.067-.144-.106-.249a5.47 5.47 0 01-.127-.358l-.062-.205-.059-.212a40.475 40.475 0 00-.051-.214l-.045-.21-.012-.06.001-.013c.008 0-.05-.03-.085-.05l-.107-.062c-.096-.055-.172-.11-.228-.145l-.084-.06z" fill="#fff"/><path d="M82.192 10.34l.576.255.434 1.675-1.01-1.93z" fill="#0C1423"/><path d="M82.192 10.34l.1.022c.063.018.155.037.26.07l.118.038c.044.015.071.023.17.063l.047.15.062.204.06.213.051.214.045.209c.027.136.049.264.063.375.016.11.02.204.028.27l.006.103-.046-.093c-.025-.06-.067-.145-.106-.25a5.428 5.428 0 01-.126-.358l-.062-.204-.06-.213-.05-.214-.045-.21-.012-.06v-.012c.01 0-.05-.03-.085-.05l-.106-.063c-.096-.055-.173-.11-.228-.145l-.084-.06z" fill="#fff"/><path d="M81.24 11.26l.576.254.433 1.676-1.01-1.93z" fill="#0C1423"/><path d="M81.24 11.26l.1.021c.063.018.155.038.26.071l.118.038c.044.014.07.022.17.062l.047.15.062.204.059.213.052.214.044.21c.028.135.05.263.064.374.016.11.02.205.028.27l.005.103-.045-.093c-.025-.06-.067-.145-.106-.249a5.308 5.308 0 01-.126-.358l-.063-.205-.058-.212-.052-.215-.045-.209-.011-.06v-.013c.009 0-.05-.03-.085-.05l-.106-.062c-.096-.056-.173-.11-.228-.145l-.084-.06z" fill="#fff"/><path d="M80.287 12.18l.576.255.434 1.676-1.01-1.93z" fill="#0C1423"/><path d="M80.287 12.18l.101.022c.063.018.154.037.26.071l.117.037c.045.016.071.023.17.064l.048.15.062.204.059.212.051.215.045.208c.028.136.05.264.064.375.016.11.02.205.028.27l.005.103-.045-.093c-.025-.06-.067-.145-.107-.249a5.583 5.583 0 01-.188-.563l-.059-.212-.051-.215-.045-.209-.012-.06.001-.013c.008 0-.05-.03-.085-.05a14.784 14.784 0 00-.107-.062c-.096-.056-.172-.11-.228-.145l-.084-.06z" fill="#fff"/><path d="M79.335 13.1l.576.256.434 1.675-1.01-1.93z" fill="#0C1423"/><path d="M79.335 13.1l.1.023c.063.017.155.037.26.07l.118.038c.044.015.071.023.17.063.014.041.03.095.047.15l.062.204.06.212.051.215.045.209c.027.136.049.264.063.374.016.11.021.205.028.27l.006.103-.046-.093c-.025-.06-.067-.145-.106-.249a5.392 5.392 0 01-.126-.358l-.062-.204-.059-.213-.052-.214-.044-.21-.012-.06v-.012c.01 0-.05-.03-.084-.051l-.107-.062c-.096-.055-.173-.11-.228-.145l-.084-.06z" fill="#fff"/><path d="M78.383 14.02l.576.255.433 1.676-1.01-1.93z" fill="#0C1423"/><path d="M78.383 14.02l.1.023c.063.017.155.037.26.07.037.013.076.024.118.038.044.015.07.022.17.063l.047.15.062.204.06.212.05.215.046.209c.027.136.048.264.063.374.016.11.02.205.028.27l.005.103-.045-.093c-.025-.06-.067-.144-.106-.249a5.625 5.625 0 01-.126-.358l-.063-.204-.058-.213-.052-.214-.044-.21-.012-.06v-.013c.009 0-.05-.03-.085-.05l-.106-.062c-.097-.055-.173-.11-.228-.144l-.084-.06z" fill="#fff"/><path d="M77.43 14.941l.576.255.434 1.676-1.01-1.93z" fill="#0C1423"/><path d="M77.43 14.941l.101.022c.063.018.154.038.26.071l.117.037c.045.016.071.023.17.064l.048.15.062.204.059.212.052.214.044.21c.028.135.05.263.064.374.016.11.02.205.028.27l.005.103-.045-.093c-.025-.06-.067-.145-.106-.25a5.573 5.573 0 01-.127-.357l-.062-.205-.058-.212-.052-.214-.045-.21-.012-.06c0-.007.001-.008.002-.013.007 0-.05-.03-.086-.05l-.107-.062c-.096-.056-.172-.11-.228-.145l-.083-.06z" fill="#fff"/><path d="M76.478 15.861l.576.255.434 1.676-1.01-1.93z" fill="#0C1423"/><path d="M76.478 15.861l.1.022c.063.018.155.038.26.071l.118.038c.044.015.071.022.17.063.014.041.03.095.047.15l.063.204.058.212.052.214.045.21c.027.135.049.263.063.374.017.11.02.205.028.27l.006.103-.046-.093c-.025-.06-.066-.145-.106-.249a5.622 5.622 0 01-.188-.563l-.059-.212-.052-.215-.044-.209-.012-.06.001-.013c.008 0-.05-.03-.085-.05a16.052 16.052 0 01-.107-.062c-.096-.056-.173-.11-.228-.145l-.084-.06z" fill="#fff"/><path d="M75.526 16.782l.576.255.433 1.676-1.009-1.931z" fill="#0C1423"/><path d="M75.526 16.782l.1.022c.063.017.155.037.26.071l.118.037c.044.015.07.023.17.063l.047.15.063.204.058.213.052.214.045.209c.027.136.049.264.063.375.016.11.02.204.028.269l.005.104-.045-.094c-.025-.06-.067-.144-.106-.248a5.653 5.653 0 01-.189-.563l-.058-.213-.052-.214-.044-.21-.012-.06.001-.012c.008 0-.05-.03-.086-.05a16.65 16.65 0 00-.106-.062c-.096-.056-.173-.111-.228-.145l-.084-.06z" fill="#fff"/><path d="M75.385 17.73l.406-.425c.261-.267.63-.654 1.08-1.109.45-.456.978-.985 1.547-1.547l.88-.865.913-.888.918-.882.894-.85c.582-.55 1.128-1.06 1.6-1.493.47-.434.868-.789 1.144-1.04l.439-.391-.406.425c-.261.267-.63.654-1.08 1.109-.449.456-.977.985-1.546 1.547l-.88.865-.913.888-.919.882-.895.85c-.581.55-1.127 1.059-1.598 1.492-.47.435-.87.79-1.145 1.042l-.439.39zm10.273-9.352c-.548-.574-.671-.75-.696-.804-.1-.215-.071-.286.116-.552.092-.132.315-.423.47-.623.022.476.108 1.496.42 2.3l-.31-.321z" fill="#fff"/><path d="M39.804 9.424a.82.82 0 01-.186-.66.792.792 0 01.156-.351c.032-.04.061-.072.09-.101l.375-.404.634-.676.658-.694.172-.179a.807.807 0 01.355-.218.829.829 0 01.801.198c.044.04.085.087.124.141l.416.572.186.258c.059.078.13.183.164.306a.898.898 0 01-.086.71l9.454 9.136a.766.766 0 01.851.549.781.781 0 01-.01.467L80.22 43.533l.01.012c.017.02 1.734 2.038 3.948 2.26.763.075 1.518.075 2.244-.003l1.537-.31.012-.005.047-.01.005-.001.002-.008 2.203-.532.239-.07 1.697-.523c.308-.098.637-.205.987-.321l.932-.312c.391-.131.746-.252 1.073-.364l.037-.013c.366-.125.689-.235.975-.33l.556-.188-.002.008c1.24-.389 1.762-.429 2.524-.112 1.243.517 1.426 2.66 1.442 2.895.001.01.098 1.075-.731 1.944-.347.364-.806.64-1.363.82-.193.062-.413.13-.658.2l.008.01-.495.128a67.04 67.04 0 01-1.74.447l-.129.032v.001l-.05.012-.09.023-.001-.002-.14.033c-.518.124-1.066.25-1.626.377l-.01.002.01.013-.513.1-.82.178-.013.002c-.038.007-.295.053-.675.118l-.196.04-.416.077.003-.013-.054.008c-.6.1-1.166.188-1.676.262l-.055.008-.001.006-.156.018-.03.005v-.001l-.073.009c-.582.08-1.082.14-1.478.176l-.072.008-.373.043.003-.018c-1.557.087-2.782-.167-3.475-.727-.626-.506-11.343-10.503-11.454-10.607L52.28 20.229a.724.724 0 01-.751-.002.745.745 0 01-.338-.797l-9.505-9.185a.79.79 0 01-.706-.017l-.01-.006a3.657 3.657 0 01-.159-.1l-.084-.053-.55-.356-.154-.1a.94.94 0 01-.22-.189z" fill="#0C1423"/><path d="M40.832 8.758l1.023.984 1.082 1.04.029.03.925.888.03.028.922.888.03.03.923.887.032.03.921.886.032.031.922.887.033.031.92.886.033.032.92.884.034.032.92.885.033.033.92.884.035.034.147.141.625.601 20.054 19.288s10.816 10.09 11.433 10.588c.617.499 1.835.784 3.606.63 1.77-.155 4.857-.718 4.857-.718s4.181-.882 6.22-1.544c2.038-.66 1.866-2.415 1.866-2.415s-.099-1.418-.713-2.199c-.106-.12-.796-.799-2.354-.237-1.702.614-8.9 3.594-12.016 3.55-1.13-.017-2.874-.211-4.847-2.085L53.238 18.852l.3-.316-.617-.589-.01-.009-.514-.49-.08-.077-.876-.835-.084-.082-.872-.83-.09-.087-.867-.827-.093-.088-.864-.824-.097-.093-.859-.82-.102-.097-.854-.814-.107-.102-.85-.811-.11-.106-.846-.807-.115-.11-.841-.802-.12-.114-.64-.61V8.51l-.178-.17-.49-.468-.413-.394c-1.077.508-1.117 1.279-1.117 1.279z" fill="#0C1423"/><path d="M40.832 8.758l4.86 4.637 12.8 12.237 8.545 8.183c1.515 1.453 3.071 2.946 4.662 4.47.79.77 1.612 1.518 2.435 2.287l2.495 2.316 5.116 4.739 1.305 1.198.658.596c.11.097.217.194.332.267a2.4 2.4 0 00.374.195c.528.218 1.115.305 1.7.33.587.026 1.176-.014 1.769-.082a66.297 66.297 0 003.562-.528c.295-.052.599-.1.887-.159l.885-.193c.59-.131 1.18-.267 1.77-.407 1.176-.285 2.362-.569 3.508-.942.553-.187 1.064-.514 1.378-1a2.176 2.176 0 00.347-1.222 4.988 4.988 0 00-.053-.44c-.098-.585-.259-1.187-.587-1.65-.068-.11-.183-.189-.301-.259a1.445 1.445 0 00-.389-.152 2.172 2.172 0 00-.852-.024c-.29.04-.567.129-.85.236l-.852.322-1.704.647a87.42 87.42 0 01-3.43 1.213c-1.152.375-2.31.723-3.486.988-.588.135-1.185.233-1.786.298-.304.01-.61.039-.911.02a6.71 6.71 0 01-.904-.094c-1.202-.2-2.308-.782-3.225-1.54-.464-.382-.877-.8-1.304-1.2l-1.268-1.206-2.51-2.386c-6.63-6.319-12.82-12.216-18.126-17.27l-4.532-4.33.303-.315-7.942-7.622-2.056-1.978-.83-.798-.362-.349-.169-.162c-.056-.047-.105-.115-.157-.136-.513.236-.827.583-.962.842-.07.13-.105.238-.123.31-.018.074-.02.113-.02.113s.001-.04.018-.112a1.32 1.32 0 01.122-.313c.137-.263.438-.608.967-.857.428.373.932.873 1.538 1.44l2.072 1.96 8.075 7.658-.299.315 4.468 4.215L75.98 40.271l2.513 2.382 1.27 1.204c.428.4.844.819 1.291 1.184.895.737 1.956 1.291 3.107 1.48.286.05.577.078.87.09.294.017.584-.012.876-.02a15.07 15.07 0 001.751-.298c1.163-.262 2.314-.608 3.46-.982a88.008 88.008 0 003.418-1.211l1.702-.648.855-.324c.285-.108.591-.207.905-.25.314-.046.642-.053.96.028.159.037.315.098.46.18.141.084.287.183.386.333.38.542.535 1.162.642 1.776.024.156.046.306.056.472a2.26 2.26 0 01-.039.489 2.446 2.446 0 01-.354.9 2.59 2.59 0 01-.674.69l-.2.131-.212.11c-.139.08-.292.121-.438.181-1.17.38-2.352.661-3.534.947a120 120 0 01-1.774.406l-.888.194c-.305.06-.598.107-.897.16a66.36 66.36 0 01-3.579.527 11.34 11.34 0 01-1.81.08c-.605-.027-1.217-.115-1.79-.352a2.679 2.679 0 01-.415-.219c-.137-.087-.25-.19-.363-.29l-.66-.6-1.304-1.202-5.11-4.748a6866.6 6866.6 0 00-2.489-2.323c-.82-.769-1.642-1.523-2.43-2.293l-4.649-4.486-8.51-8.22-12.728-12.315-4.822-4.676z" fill="#fff"/><path d="M41.743 9.86l1.547-1.621a.525.525 0 00.048-.653l-.656-.89c-.184-.247-.507-.288-.708-.077L40.08 8.602c-.201.211-.148.534.106.708l.91.625a.516.516 0 00.646-.076z" fill="#0C1423"/><path d="M41.743 9.86l.29-.33.776-.864c.082-.088.166-.18.253-.277.081-.096.194-.192.245-.29a.47.47 0 00.027-.357.51.51 0 00-.1-.165 503.832 503.832 0 00-.55-.73l-.07-.093a.628.628 0 00-.068-.074.373.373 0 00-.354-.091.349.349 0 00-.16.102l-.164.174-.662.689-.644.663a243 243 0 00-.31.316c-.047.05-.107.106-.143.15a.365.365 0 00-.076.155.403.403 0 00.082.324c.067.089.18.15.276.224l.529.386c.078.057.152.115.218.16a.457.457 0 00.209.066.521.521 0 00.304-.07c.064-.037.092-.068.092-.068s-.025.032-.086.077a.517.517 0 01-.543.04c-.077-.046-.15-.095-.233-.147l-.55-.356-.154-.1a.673.673 0 01-.157-.134.532.532 0 01-.122-.428.501.501 0 01.097-.22c.053-.066.098-.108.149-.165l.3-.323.634-.674c.216-.23.437-.461.657-.693l.166-.173a.532.532 0 01.24-.15.552.552 0 01.525.133.79.79 0 01.089.101l.069.096.137.188.268.37.131.181a.66.66 0 01.117.213c.05.16.026.33-.048.467a.736.736 0 01-.14.172l-.139.14-.265.265-.825.815-.317.305z" fill="#fff"/><path d="M51.624 19.913a.427.427 0 00.308.12.427.427 0 00.304-.133l1.307-1.369a.437.437 0 00-.012-.614.43.43 0 00-.611.012l-1.313 1.375a.439.439 0 00.017.61z" fill="#0C1423"/><path d="M51.624 19.913c0-.005.073.088.25.106a.415.415 0 00.288-.084c.087-.076.178-.192.282-.3l.706-.767c.126-.138.277-.286.392-.426a.382.382 0 00-.052-.483.368.368 0 00-.48-.03l-.051.04-.052.053-.103.107-.202.208-.733.741c-.104.11-.216.205-.288.295a.42.42 0 00-.072.294c.025.176.121.245.115.246.007-.001-.096-.06-.137-.242a.458.458 0 01.057-.322c.076-.109.175-.2.276-.317l.707-.767.199-.212.101-.107.051-.055.066-.054a.482.482 0 01.627.037.497.497 0 01.064.632c-.141.167-.277.291-.41.433l-.733.742c-.111.107-.2.209-.304.29a.451.451 0 01-.317.071c-.183-.034-.246-.135-.247-.129z" fill="#fff"/><path d="M53.238 18.852l27.191 25.816c1.973 1.874 3.718 2.069 4.847 2.084 3.116.045 10.314-2.934 12.016-3.549 1.558-.562 2.248.118 2.354.237a1.317 1.317 0 00-.527-.421c-1.088-.453-1.599-.095-5.806 1.3-4.209 1.395-5.247 1.487-5.247 1.487s-1.528.569-3.92.329c-2.393-.239-4.169-2.376-4.169-2.376L53.539 18.537l-.301.315z" fill="#fff"/><path d="M53.384 18.848L80.5 44.592c1.883 1.79 3.543 2.039 4.778 2.056h.07c2.656 0 8.153-2.108 10.806-3.126.373-.143.689-.264.93-.354-.45.134-1.02.329-1.778.587-.548.187-1.193.407-1.961.662-3.965 1.314-5.114 1.474-5.256 1.49-.161.058-1.651.562-3.954.33-2.407-.24-4.163-2.323-4.237-2.412L53.542 18.682l-.158.166zm31.962 28.008h-.071c-1.273-.019-2.982-.275-4.917-2.113l-27.19-25.816-.076-.072.443-.465.075.07 26.438 25.223c.026.03 1.786 2.116 4.107 2.348 2.342.235 3.86-.317 3.875-.323l.027-.006c.01-.001 1.09-.112 5.223-1.483.768-.254 1.412-.474 1.96-.66 2.478-.845 2.993-1.021 3.919-.637.21.088.402.24.568.454l-.158.133c-.114-.128-.759-.743-2.242-.209a72.62 72.62 0 00-1.1.416c-2.664 1.022-8.184 3.14-10.88 3.14z" fill="#fff"/><path d="M99.581 43.523l-.011-.012.152-.14.019.021-.16.131z" fill="#fff"/><path d="M96.476 43.161l-.986 5.944-1.856.411-3.263-4.42 1.853-.553 1.954 2.778.643-3.614 1.655-.546z" fill="#F04941"/><path d="M90.542 45.152l3.135 4.248 1.722-.382.948-5.706-1.435.474-.675 3.797-2.055-2.92-1.64.49zm3.05 4.48L90.2 45.037l2.065-.616 1.855 2.637.61-3.432 1.876-.618-1.026 6.182-1.989.44z" fill="#0C1423"/><path d="M91.42 49.943l1.072-5.48 1.772-.574 3.448 4.672-1.914.472-2.022-2.874-.615 3.457-1.74.327z" fill="#F04941"/><path d="M92.582 44.544l-1.031 5.27 1.521-.287.646-3.63 2.123 3.019 1.697-.419-3.313-4.486-1.643.533zm-1.292 5.53l1.113-5.69 1.9-.616 3.585 4.857-2.134.526-1.92-2.729-.584 3.283-1.96.368z" fill="#0C1423"/><path d="M92.224 44.542l-1.323 5.48-1.85.269-3.003-4.245 1.75-.335 1.912 2.774.728-3.407 1.786-.536z" fill="#F04941"/><path d="M86.225 46.118l2.874 4.061 1.718-.25 1.264-5.236-1.555.467-.766 3.58-2.01-2.914-1.525.292zm2.779 4.285l-3.133-4.428 1.973-.378 1.815 2.632.691-3.233 2.016-.604-1.381 5.722-1.981.289z" fill="#0C1423"/><path d="M87.18 50.5l.843-4.872 1.93-.417 3.208 4.405-1.878.344-1.976-2.636-.534 3.003-1.594.173z" fill="#F04941"/><path d="M88.059 45.619l-.809 4.667 1.38-.15.563-3.16 2.08 2.775 1.653-.303-3.071-4.217-1.796.388zM87 50.522l.88-5.076L89.942 45l3.345 4.593-2.102.385-1.872-2.498-.507 2.846-1.806.196zM43.197 8.336l9.83 9.5-1.453 1.503-9.82-9.49 1.443-1.513z" fill="#0C1423"/><path d="M41.9 9.846l9.672 9.347 1.31-1.354L43.2 8.483l-1.3 1.363zm9.676 9.64l-9.968-9.634 1.586-1.662 9.98 9.644-1.598 1.651z" fill="#fff"/><path d="M43.903 9.019l-.576.255-.433 1.675 1.01-1.93z" fill="#0C1423"/><path d="M43.903 9.019l-.084.06c-.055.034-.131.089-.228.144l-.106.062c-.035.02-.094.05-.086.05 0 .005.002.006.001.013l-.011.06-.045.21-.052.214-.058.213-.063.204a5.43 5.43 0 01-.126.358c-.04.105-.08.189-.106.25l-.045.092.005-.103c.008-.065.012-.16.028-.27.015-.11.036-.238.064-.374l.044-.21.052-.214.059-.212.062-.205.047-.15c.1-.04.126-.047.17-.062l.117-.038c.106-.033.198-.053.26-.07l.101-.022z" fill="#fff"/><path d="M44.856 9.938l-.577.255-.433 1.677 1.01-1.932z" fill="#0C1423"/><path d="M44.856 9.938l-.085.06c-.055.035-.131.09-.227.145l-.107.062c-.035.02-.093.05-.085.05v.013l-.011.06-.045.21-.051.214-.06.213-.061.204a5.604 5.604 0 01-.126.358c-.04.105-.081.189-.106.25l-.046.093.006-.104c.007-.065.011-.16.028-.27a5.04 5.04 0 01.063-.374c.015-.068.03-.138.044-.21l.052-.214.06-.212c.02-.07.041-.138.062-.205l.046-.149c.1-.04.126-.048.17-.063l.118-.038c.106-.033.197-.053.26-.07l.1-.023z" fill="#fff"/><path d="M45.808 10.86l-.576.254-.434 1.676 1.01-1.93z" fill="#0C1423"/><path d="M45.808 10.86l-.084.059c-.055.035-.132.09-.228.145l-.107.062c-.035.02-.093.05-.085.05l.001.013-.012.06-.044.21-.052.214-.059.213-.062.204a5.618 5.618 0 01-.126.358c-.04.104-.081.189-.106.25l-.046.092.006-.103c.007-.065.012-.16.028-.27.014-.11.036-.239.063-.374l.045-.21.052-.214.059-.213.062-.204.047-.15c.1-.04.125-.047.17-.062l.117-.038c.106-.033.198-.053.26-.07l.1-.023z" fill="#fff"/><path d="M46.76 11.78l-.576.254-.433 1.676 1.01-1.93z" fill="#0C1423"/><path d="M46.76 11.78l-.084.06c-.055.034-.132.088-.228.144l-.106.062c-.036.02-.094.05-.086.05 0 .005.002.006.001.013l-.011.06-.045.21-.052.214-.059.212c-.02.07-.042.138-.062.205a5.596 5.596 0 01-.126.358c-.04.104-.08.189-.106.25l-.045.092.005-.103c.007-.065.012-.16.028-.27.015-.11.036-.239.063-.375l.045-.209.052-.214.059-.213.062-.204.047-.15c.1-.04.126-.047.17-.062l.117-.038c.106-.033.198-.053.26-.07l.101-.023z" fill="#fff"/><path d="M47.712 12.7l-.576.255-.433 1.676 1.01-1.931z" fill="#0C1423"/><path d="M47.712 12.7l-.084.06c-.055.034-.131.089-.227.145l-.107.062c-.035.02-.094.05-.085.05v.013l-.011.06-.045.209-.052.214-.058.213-.062.204a5.561 5.561 0 01-.127.359c-.039.104-.08.188-.106.248l-.045.094.005-.104c.008-.065.012-.159.028-.27.015-.11.036-.238.064-.374.014-.068.03-.138.044-.21l.052-.213.06-.213a98.1 98.1 0 01.108-.354c.1-.04.126-.048.17-.063l.118-.037c.105-.034.197-.053.26-.071l.1-.022z" fill="#fff"/><path d="M48.665 13.62l-.576.255-.434 1.676 1.01-1.931z" fill="#0C1423"/><path d="M48.665 13.62l-.084.06c-.056.034-.132.089-.228.144l-.107.062c-.035.02-.093.05-.085.05v.013l-.01.06-.046.21-.051.214-.059.213-.062.204a5.64 5.64 0 01-.126.358c-.04.105-.081.19-.107.25l-.045.093.005-.104c.008-.065.012-.16.029-.27a5.04 5.04 0 01.063-.374l.045-.21.051-.214.06-.212.061-.204.047-.15c.1-.04.126-.048.17-.063l.118-.037c.106-.034.197-.054.26-.071l.1-.022z" fill="#fff"/><path d="M49.617 14.54l-.576.256-.433 1.675 1.01-1.93z" fill="#0C1423"/><path d="M49.617 14.54l-.084.06c-.055.035-.132.09-.228.145l-.106.062c-.036.02-.094.05-.086.05 0 .005.002.007.001.013l-.011.06-.045.21-.052.214-.059.213a5.59 5.59 0 01-.189.563c-.038.104-.08.188-.105.248l-.045.093.005-.103c.007-.065.012-.16.028-.27.014-.11.036-.238.063-.374l.045-.21.052-.213.059-.213a98.1 98.1 0 01.062-.205l.047-.15c.1-.04.126-.047.17-.062l.117-.037c.106-.034.198-.054.26-.071l.101-.023z" fill="#fff"/><path d="M50.57 15.46l-.577.256-.433 1.676 1.01-1.931z" fill="#0C1423"/><path d="M50.57 15.46l-.085.06c-.055.035-.131.09-.227.146l-.107.061c-.035.02-.094.05-.085.05v.014l-.012.06-.044.209-.052.214-.058.213-.062.204a5.666 5.666 0 01-.127.359c-.039.104-.08.188-.106.249l-.045.093.005-.104c.008-.065.012-.159.028-.27.015-.11.036-.238.064-.374l.044-.209.052-.214.059-.213.062-.204.047-.15c.1-.04.126-.048.17-.063l.118-.037c.105-.034.197-.053.26-.071l.1-.022z" fill="#fff"/><path d="M51.522 16.38l-.576.256-.434 1.676 1.01-1.931z" fill="#0C1423"/><path d="M51.522 16.38l-.085.06c-.055.035-.131.09-.227.145-.034.02-.07.04-.107.063-.035.02-.093.05-.085.05v.012l-.011.061-.045.209-.051.214-.059.213-.062.204a5.54 5.54 0 01-.127.359c-.039.104-.08.188-.105.249l-.046.093.005-.104c.008-.065.012-.16.028-.27a5.61 5.61 0 01.064-.374l.045-.21.051-.213.06-.213c.02-.07.041-.138.062-.204l.047-.15c.099-.04.125-.048.17-.063l.117-.037c.106-.034.197-.053.26-.071l.1-.022z" fill="#fff"/><path d="M52.474 17.301l-.576.255-.434 1.676 1.01-1.93z" fill="#0C1423"/><path d="M52.474 17.301l-.084.06c-.055.035-.132.09-.228.145l-.106.062c-.036.02-.094.05-.086.05 0 .005.002.007.001.013l-.012.06c-.014.068-.03.138-.044.21l-.052.214-.059.212c-.02.07-.042.139-.062.205a5.53 5.53 0 01-.126.358c-.04.104-.081.189-.106.249l-.046.093.006-.103c.007-.065.011-.16.028-.27.014-.11.036-.239.063-.375l.045-.208.052-.215c.02-.071.04-.142.058-.212l.063-.205.047-.15c.1-.04.126-.047.17-.062l.117-.037c.106-.034.198-.054.26-.072l.1-.022z" fill="#fff"/><path d="M52.614 18.249l-.438-.39c-.276-.253-.675-.608-1.145-1.042-.471-.434-1.017-.943-1.599-1.493l-.894-.85-.919-.881-.913-.889-.88-.864a172.2 172.2 0 01-1.547-1.548c-.45-.454-.818-.841-1.08-1.109l-.405-.425.439.39c.276.253.675.607 1.145 1.042.47.433 1.017.943 1.598 1.492l.895.85.918.882.913.889.88.864a159 159 0 011.547 1.548c.45.455.819.841 1.08 1.108l.405.426zM42.341 8.896c.548-.574.672-.75.697-.804.1-.215.071-.285-.116-.551a23.236 23.236 0 00-.47-.623c-.023.476-.108 1.495-.42 2.299l.31-.32z" fill="#fff"/><path d="M64.002 46.353c-8.404 0-15.24-5.662-15.24-12.625 0-.287.014-.572.037-.855 2.11 5.339 8.13 9.198 15.203 9.198 7.074 0 13.093-3.86 15.204-9.198.023.283.036.568.036.855 0 6.963-6.835 12.625-15.24 12.625zM79.5 32.05c-.043-.285-.1-.57-.167-.85a9.77 9.77 0 00-.23-.829c-1.778-5.558-7.864-9.654-15.1-9.654s-13.321 4.096-15.1 9.654c-.088.272-.165.55-.23.829a11.008 11.008 0 00-.296 2.528c0 7.188 6.995 13.014 15.626 13.014 8.632 0 15.626-5.826 15.626-13.014 0-.567-.044-1.13-.129-1.678z" fill="#0C1423"/><path d="M64.002 46.353c-8.405 0-15.24-5.663-15.24-12.625a10.526 10.526 0 01.14-1.702c.043-.277.1-.554.17-.827 1.415-5.753 7.57-10.094 14.93-10.094 7.36 0 13.515 4.341 14.93 10.094.07.273.127.55.17.827a10.392 10.392 0 01.14 1.702c0 6.962-6.835 12.625-15.24 12.625zm15.724-15.156a10.57 10.57 0 00-.227-.85v-.002a11.61 11.61 0 00-.293-.824c-2.111-5.333-8.13-9.193-15.204-9.193S50.91 24.188 48.8 29.521a11.61 11.61 0 00-.294.824v.003c-.087.279-.162.561-.226.849-.19.819-.288 1.666-.288 2.53 0 7.39 7.182 13.403 16.011 13.403 8.83 0 16.012-6.012 16.012-13.402 0-.865-.098-1.712-.288-2.531z" fill="#FCF2DD"/><path d="M64.002 45.576c-6.875 0-12.647-3.948-14.109-9.222 3.037 3.987 8.304 6.494 14.11 6.494 5.804 0 11.07-2.507 14.109-6.494-1.465 5.274-7.234 9.222-14.11 9.222zm15.204-12.703c-2.111 5.339-8.13 9.198-15.204 9.198S50.91 38.21 48.8 32.873c-.023.282-.036.567-.036.855 0 6.962 6.834 12.625 15.24 12.625 8.404 0 15.239-5.663 15.239-12.625 0-.288-.013-.573-.036-.855z" fill="#0C1423"/><path d="M78.112 36.354c-1.465 5.273-7.234 9.221-14.11 9.221-6.875 0-12.647-3.948-14.109-9.221 3.037 3.986 8.304 6.494 14.11 6.494 5.804 0 11.07-2.508 14.109-6.494z" fill="#FCF2DD"/><path d="M79.629 28.67c0 7.186-6.997 13.012-15.627 13.012S48.376 35.856 48.376 28.67c0-7.187 6.996-13.013 15.626-13.013 8.63 0 15.627 5.826 15.627 13.013z" fill="#0C1423"/><path d="M79.103 30.37c-.044.28-.1.558-.17.83-1.416 5.752-7.571 10.094-14.93 10.094-7.36 0-13.516-4.342-14.931-10.094a8.734 8.734 0 01-.17-.83 9.404 9.404 0 01-.103-.849 9.302 9.302 0 01-.036-.852c0-6.96 6.834-12.622 15.24-12.622 8.404 0 15.239 5.662 15.239 12.622 0 .287-.01.57-.036.852-.02.285-.057.57-.103.85zm-15.1-15.1c-8.83 0-16.012 6.012-16.012 13.399 0 .865.097 1.71.288 2.528a10.689 10.689 0 00.52 1.676c2.11 5.339 8.13 9.198 15.203 9.198 7.074 0 13.093-3.86 15.204-9.198a10.646 10.646 0 00.52-1.676c.19-.818.288-1.663.288-2.528 0-7.387-7.182-13.4-16.012-13.4z" fill="#FCF2DD"/><path d="M64.135 38.897c-7.847 0-14.23-4.965-14.23-11.069 0-6.103 6.383-11.068 14.23-11.068 7.846 0 14.23 4.965 14.23 11.068 0 6.104-6.384 11.069-14.23 11.069zm-15.373-5.169h-.773v-5.059h.773v5.059zm30.481.001l-.005-4.738h.772l.005 4.737h-.772z" fill="#FCF2DD"/><path d="M85.347 27.021l-.74 6.005c-.014.09-.047.19-.237.31-.249.154-.55.23-.923.23h-.178l1.38-4.309h-1.71l.732-2.236h1.676z" fill="#0C1423"/><path d="M83.135 29.115h1.708l-1.38 4.308c.338-.001.61-.07.832-.209.155-.096.164-.159.171-.209l.72-5.842h-1.412l-.64 1.952zm.312 4.593h-.373l1.38-4.309h-1.71l.825-2.52h1.937l-.76 6.164c-.017.124-.067.267-.302.413-.27.17-.597.252-.997.252zm-38.7-.142h-.173a1.42 1.42 0 01-.288-.023l.001-.032.12-.367c.091.15.206.291.34.422z" fill="#0C1423"/><path d="M45.096 33.707h-.522c-.127 0-.234-.008-.317-.025l-.113-.024v-.116c0-.02.001-.036.003-.05l.006-.025.213-.66.16.262c.085.137.192.27.319.394l.25.244z" fill="#0C1423"/><path d="M84.985 21.736l-2.241-1.185-2.241 1.185.428-2.51-1.813-1.778 2.505-.367 1.12-2.284 1.121 2.284 2.505.366-1.812 1.778.428 2.511z" fill="#fff"/><path d="M79.468 17.563l1.576 1.546a.165.165 0 01.048.145l-.373 2.183 1.95-1.03a.161.161 0 01.15 0l1.95 1.03-.373-2.183a.164.164 0 01.047-.145l1.576-1.547-2.178-.318a.162.162 0 01-.123-.09l-.974-1.986-.975 1.986a.163.163 0 01-.122.09l-2.179.319zm1.035 4.338a.164.164 0 01-.16-.192l.413-2.426-1.752-1.718a.165.165 0 01-.04-.168.162.162 0 01.13-.111l2.421-.354 1.082-2.207c.055-.112.238-.112.293 0l1.082 2.207 2.42.354a.164.164 0 01.09.28l-1.75 1.717.413 2.426a.163.163 0 01-.236.173l-2.165-1.146-2.165 1.146a.16.16 0 01-.076.019z" fill="#0C1423"/><path d="M81.503 19.039l-1.242-1.217 1.716-.251.766-1.564.768 1.563 1.715.251-1.241 1.218.293 1.718-1.534-.81-1.534.81.293-1.718z" fill="#F04941"/><path d="M80.612 17.936l1.004.986a.164.164 0 01.047.145l-.237 1.391 1.242-.657a.161.161 0 01.151 0l1.242.657-.237-1.391a.165.165 0 01.047-.145l1.004-.986-1.388-.203a.162.162 0 01-.122-.09l-.621-1.265-.621 1.266a.163.163 0 01-.123.09l-1.388.202zm.598 2.986a.163.163 0 01-.16-.192l.277-1.634-1.18-1.157a.164.164 0 01.09-.28l1.632-.238.728-1.486c.055-.112.238-.112.293 0l.729 1.486 1.63.238a.164.164 0 01.09.28l-1.18 1.157.28 1.634a.163.163 0 01-.237.173l-1.458-.771-1.458.77a.16.16 0 01-.076.02z" fill="#0C1423"/><path d="M47.544 22.006l-2.24-1.186-2.241 1.186.427-2.51-1.813-1.779 2.506-.366 1.12-2.285 1.12 2.285 2.506.366-1.813 1.778.428 2.51z" fill="#fff"/><path d="M42.027 17.832l1.577 1.546a.166.166 0 01.047.145l-.372 2.183 1.948-1.03a.16.16 0 01.152 0l1.949 1.03-.373-2.183a.165.165 0 01.047-.145l1.577-1.547-2.18-.318a.162.162 0 01-.122-.09l-.974-1.986-.974 1.986a.163.163 0 01-.123.09l-2.179.319zm1.036 4.338a.165.165 0 01-.16-.192l.412-2.426-1.751-1.718a.164.164 0 01.09-.28l2.42-.353 1.083-2.207c.055-.112.237-.112.292 0l1.083 2.207 2.42.354a.164.164 0 01.09.28l-1.751 1.717.414 2.426a.164.164 0 01-.065.16.162.162 0 01-.172.013l-2.165-1.145-2.165 1.145a.16.16 0 01-.075.019z" fill="#0C1423"/><path d="M44.062 19.309l-1.241-1.218 1.715-.25.767-1.564.767 1.563 1.715.251-1.24 1.218.292 1.718-1.534-.81-1.534.81.293-1.718z" fill="#F04941"/><path d="M43.17 18.205l1.005.986a.164.164 0 01.048.145l-.237 1.391 1.241-.657a.162.162 0 01.152 0l1.242.657-.237-1.391a.165.165 0 01.047-.145l1.004-.986-1.388-.203a.162.162 0 01-.123-.09l-.621-1.265-.62 1.266a.163.163 0 01-.124.09l-1.388.202zm.6 2.986a.163.163 0 01-.161-.192l.278-1.634-1.18-1.157a.164.164 0 01.09-.28l1.63-.238.73-1.486c.055-.113.237-.113.292 0l.73 1.486 1.63.238a.163.163 0 01.131.112.165.165 0 01-.041.168l-1.18 1.157.279 1.634a.164.164 0 01-.065.16.16.16 0 01-.172.013l-1.458-.771-1.458.771a.163.163 0 01-.076.019z" fill="#0C1423"/></svg>