<svg width="70" height="70" fill="none" xmlns="http://www.w3.org/2000/svg"><g clip-path="url(#clip0)"><path d="M57.627 35.001H12.799c-1.306 0-2.382-1.123-2.382-2.4 0-.212.04-.453.083-.646l2.386-16.659c.203-1.082 1.177-1.295 2.343-1.295h39.974c1.158 0 2.141.195 2.341 1.273l2.386 16.962c.036.198.084.314.084.527C60.012 34.039 58.932 35 57.627 35zm-1.794 18.683c-2.524 0-4.57-1.986-4.57-4.463 0-2.46 2.046-4.444 4.57-4.444 2.508 0 4.559 1.984 4.559 4.444 0 2.477-2.051 4.463-4.559 4.463zm-41.301 0c-2.506 0-4.554-1.986-4.554-4.463 0-2.46 2.048-4.444 4.554-4.444 2.531 0 4.575 1.984 4.575 4.444 0 2.477-2.044 4.463-4.575 4.463zM22.4 4.201h28v4.2h-28c-2.8 0-2.8-4.2 0-4.2zm39.483 6.426c-.818-3.938-3.206-5.524-7.102-7.11C50.89 1.94 41.878.047 35.099.047c-6.808 0-15.867 1.894-19.76 3.472-3.895 1.586-6.245 3.17-7.055 7.11L5.6 32.55V63h4.2v2.8c0 5.6 7 5.6 7 0V63h35v2.8c0 5.6 8.4 5.6 8.4 0V63h4.2V32.55l-2.517-21.923z" fill="#202020"/></g><defs><clipPath id="clip0"><path fill="#fff" d="M0 0h70v70H0z"/></clipPath></defs></svg>