<svg width="70" height="70" fill="none" xmlns="http://www.w3.org/2000/svg"><path d="M21.875 25.503c1.012-1.114 2.669-2.17 5.104-2.17 3.36 0 5.524 2.31 6.286 4.845.737 2.47.291 5.527-1.809 7.635-.728.7-1.5 1.353-2.313 1.955l-.116.09c-.817.63-1.546 1.202-2.188 1.838-.744.746-1.353 1.56-1.706 2.595h6.221a2.188 2.188 0 010 4.375h-8.75a2.187 2.187 0 01-2.187-2.187c0-3.637 1.528-6.076 3.336-7.878.864-.863 1.803-1.59 2.596-2.205l.009-.006c.834-.645 1.482-1.146 1.998-1.662.793-.8 1.07-2.115.717-3.296-.335-1.111-1.079-1.724-2.094-1.724-1.03 0-1.56.4-1.866.738a2.46 2.46 0 00-.432.668v.009a2.189 2.189 0 11-4.165-1.348l.102-.28c.3-.732.724-1.405 1.254-1.992h.003zm16.771-2.17a2.188 2.188 0 012.187 2.188v8.02h4.375v-8.02a2.187 2.187 0 114.375 0v18.87a2.188 2.188 0 01-4.375 0v-6.475h-6.562a2.187 2.187 0 01-2.188-2.187V25.52a2.187 2.187 0 012.188-2.187z" fill="#202020"/><path d="M64.167 35C64.167 18.89 51.109 5.833 35 5.833S5.833 18.891 5.833 35c0 16.108 13.058 29.166 29.167 29.166S64.167 51.108 64.167 35zm-53.959 0a24.792 24.792 0 1149.583 0 24.792 24.792 0 01-49.583 0z" fill="#202020"/></svg>