<svg width="70" height="70" fill="none" xmlns="http://www.w3.org/2000/svg"><path fill-rule="evenodd" clip-rule="evenodd" d="M4.375 52.5h13.344v8.51H4.375V52.5zm13.825.993l8.872-25.235 5.176 1.82-8.868 25.235-5.18-1.82z" fill="#202020"/><path fill-rule="evenodd" clip-rule="evenodd" d="M11.353 14.073l-2.126 7.28S7.94 24.74 11.095 25.79c3.553 1.085 30.59 9.118 30.59 9.118l6.086-10.412-36.418-10.422z" fill="#202020"/><path fill-rule="evenodd" clip-rule="evenodd" d="M59.977 21.748c.46-.17 9.84-5.25 9.84-5.25-.71-.713-1.125-1.251-2.166-1.553L18.135.442A6.103 6.103 0 0010.53 4.54L8.995 9.778S51.468 22.22 52.771 22.404l-4.458 7.866 12.889 4.485 4.331-12.784c0-.004-4.856-.004-5.556-.223zM7.696 53.283L6.138 50.97c8.505-5.242 11.419-19.233 11.331-29.623l2.88-.027c.091 11.62-3.177 26.124-12.653 31.964z" fill="#202020"/><path fill-rule="evenodd" clip-rule="evenodd" d="M8.877 56.855C8.877 64.052 4.904 69.88 0 69.88V43.84c4.904 0 8.877 5.827 8.877 13.015z" fill="#202020"/></svg>