<svg width="70" height="70" fill="none" xmlns="http://www.w3.org/2000/svg"><path d="M35 0c-5.654 0-9.038.862-11.19 1.936-1.076.538-1.84 1.104-2.355 1.682-.517.58-.843 1.43-.843 1.43a2.69 2.69 0 00-.167.673l-1.432 18.426c-.019.113.019.297 0 .42l-.167 1.853a2.697 2.697 0 000 .503c0 8.885 7.27 16.154 16.154 16.154 8.885 0 16.154-7.27 16.154-16.154v-.503l-1.6-20.699a2.69 2.69 0 00-.166-.673s-.326-.85-.843-1.43c-.514-.581-1.279-1.146-2.356-1.682C44.038.859 40.654 0 35 0zm0 43.077c-17.77 0-32.308 8.362-32.308 15.9V70h64.616V58.978c0-7.162-13.144-15.05-29.7-15.818A38.482 38.482 0 0035 43.077zm0-37.692c5.115 0 7.67.807 8.75 1.346.36.18.404.25.506.336l1.093 13.798c-2.477.151-5.853.674-10.349.674s-7.87-.523-10.35-.674l1.094-13.798c.1-.086.145-.156.506-.336 1.08-.539 3.635-1.346 8.75-1.346zm-2.189 2.692v3.198h-3.196v4.375h3.199v3.196h4.372v-3.198h3.199v-4.373h-3.199V8.077h-4.375zm-5.888 41.058l6.9 15.48H8.077v-5.637c0-2.006 6.865-7.88 18.846-9.843zm16.154 0c11.98 1.965 18.846 7.837 18.846 9.843v5.637H36.176l6.9-15.48z" fill="#202020"/></svg>