<svg width="29" height="29" fill="none" xmlns="http://www.w3.org/2000/svg"><path d="M25.288 21.016a.982.982 0 00-.517-.707l-4.157-2.45-.034-.019a1.236 1.236 0 00-.562-.13c-.348 0-.68.132-.912.363l-1.227 1.228a.72.72 0 01-.275.125c-.014-.002-1.428-.103-4.03-2.706-2.597-2.597-2.707-4.015-2.708-4.015a.655.655 0 01.123-.296l1.046-1.046a1.33 1.33 0 00.26-1.456L9.986 5.56A.955.955 0 009.13 5a.985.985 0 00-.696.299L5.58 8.145a2.184 2.184 0 00-.56 1.13c-.026.183-.532 4.551 5.457 10.54 5.084 5.084 9.048 5.479 10.143 5.479a3.11 3.11 0 00.399-.02 2.184 2.184 0 001.128-.559l2.85-2.85a.982.982 0 00.29-.85z" fill="#0C1423"/></svg>